<svg width="12" height="7" viewBox="0 0 12 7" fill="none" xmlns="http://www.w3.org/2000/svg">
<path d="M6 5.5L6.35355 5.85355L6 6.20711L5.64645 5.85355L6 5.5ZM0.646446 0.853554C0.451184 0.658292 0.451184 0.341709 0.646446 0.146447C0.841709 -0.0488153 1.15829 -0.0488153 1.35355 0.146447L0.646446 0.853554ZM10.6464 0.146447C10.8417 -0.0488157 11.1583 -0.0488157 11.3536 0.146447C11.5488 0.341709 11.5488 0.658291 11.3536 0.853553L10.6464 0.146447ZM5.64645 5.85355L0.646446 0.853554L1.35355 0.146447L6.35355 5.14645L5.64645 5.85355ZM5.64645 5.14645L10.6464 0.146447L11.3536 0.853553L6.35355 5.85355L5.64645 5.14645Z" fill="black" fill-opacity="0.7"/>
</svg>
