<svg width="14" height="14" viewBox="0 0 14 14" fill="none" xmlns="http://www.w3.org/2000/svg">
<g clip-path="url(#clip0_1_3058)">
<path d="M0.841486 7.98234C0.898769 7.99164 0.956743 7.99592 1.01475 7.99517L10.8915 7.99517L10.6761 8.09534C10.4656 8.19498 10.2741 8.33058 10.1101 8.49602L7.34046 11.2657C6.97569 11.6139 6.9144 12.1741 7.19522 12.5929C7.52205 13.0393 8.14883 13.1362 8.59521 12.8094C8.63127 12.783 8.66554 12.7542 8.69775 12.7232L13.7062 7.7147C14.0976 7.32372 14.098 6.6895 13.707 6.29809C13.7067 6.29784 13.7065 6.29755 13.7062 6.2973L8.69775 1.28884C8.30603 0.89821 7.6718 0.899085 7.28114 1.29081C7.2504 1.32164 7.2217 1.35445 7.19522 1.38901C6.9144 1.80787 6.97569 2.36804 7.34046 2.71625L10.1051 5.49094C10.2521 5.63806 10.4211 5.76143 10.606 5.85656L10.9065 5.99179L1.06987 5.99179C0.558163 5.97279 0.109217 6.33023 0.0130854 6.83321C-0.07547 7.37929 0.295407 7.89375 0.841486 7.98234Z" fill="#495086"/>
</g>
<defs>
<clipPath id="clip0_1_3058">
<rect width="14" height="14" fill="white" transform="translate(14 14) rotate(-180)"/>
</clipPath>
</defs>
</svg>
