<svg width="12" height="12" viewBox="0 0 12 12" fill="none" xmlns="http://www.w3.org/2000/svg">
<g clip-path="url(#clip0_75_468)">
<path d="M0.721274 6.84214C0.770374 6.85011 0.820065 6.85379 0.869783 6.85314L9.33554 6.85314L9.15094 6.939C8.9705 7.02441 8.80635 7.14064 8.66583 7.28244L6.29183 9.65645C5.97916 9.95492 5.92663 10.4351 6.16733 10.7941C6.44747 11.1767 6.98471 11.2597 7.36732 10.9796C7.39823 10.957 7.42761 10.9323 7.45522 10.9057L11.7482 6.61274C12.0837 6.27762 12.084 5.73399 11.7489 5.3985C11.7486 5.39828 11.7484 5.39804 11.7482 5.39783L7.45522 1.10486C7.11946 0.770033 6.57583 0.770783 6.24098 1.10655C6.21463 1.13298 6.19003 1.16109 6.16733 1.19072C5.92663 1.54974 5.97916 2.02988 6.29183 2.32835L8.66154 4.70666C8.78751 4.83277 8.93235 4.93851 9.09084 5.02005L9.34842 5.13596L0.917033 5.13596C0.478426 5.11967 0.0936146 5.42605 0.0112171 5.85718C-0.0646877 6.32524 0.253206 6.76621 0.721274 6.84214Z" fill="white"/>
</g>
<defs>
<clipPath id="clip0_75_468">
<rect width="12" height="12" fill="white" transform="translate(12 12) rotate(-180)"/>
</clipPath>
</defs>
</svg>
