<svg width="16" height="16" viewBox="0 0 16 16" fill="none" xmlns="http://www.w3.org/2000/svg">
<g clip-path="url(#clip0_76_800)">
<path d="M1.03421 7.13031C1.0862 7.25492 1.2075 7.33624 1.34211 7.33624H4.99355L4.99355 15.6668C4.99355 15.8507 5.14284 16 5.32678 16L10.6583 16C10.8423 16 10.9916 15.8507 10.9916 15.6668V7.33621H14.657C14.7916 7.33621 14.9129 7.25489 14.9649 7.13093C15.0162 7.00632 14.9882 6.86302 14.8929 6.76771L8.24515 0.0979366C8.18251 0.0353012 8.09785 -3.05176e-05 8.00923 -3.05176e-05C7.9206 -3.05176e-05 7.83594 0.0353012 7.7733 0.0972805L1.10619 6.76705C1.01088 6.8624 0.98223 7.00566 1.03421 7.13031Z" fill="#C7E4F3"/>
</g>
<defs>
<clipPath id="clip0_76_800">
<rect width="16" height="16" fill="white" transform="translate(16 16) rotate(-180)"/>
</clipPath>
</defs>
</svg>
