<svg width="1814" height="263" viewBox="0 0 1814 263" fill="none" xmlns="http://www.w3.org/2000/svg">
<path opacity="0.0344828" d="M-377.384 -41.5649C-377.581 -44.4751 -377.008 -47.3859 -375.724 -50.0048L-164.3 -481.076C-163.015 -483.695 -161.064 -485.93 -158.642 -487.555L239.992 -755.162C242.414 -756.788 245.221 -757.747 248.131 -757.944L727.162 -790.382C730.072 -790.579 732.983 -790.006 735.602 -788.722L1166.67 -577.297C1169.29 -576.013 1171.53 -574.062 1173.15 -571.64L1440.76 -173.006C1442.38 -170.584 1443.34 -167.777 1443.54 -164.867L1475.98 314.164C1476.18 317.074 1475.6 319.985 1474.32 322.604L1262.89 753.675C1261.61 756.294 1259.66 758.529 1257.24 760.155L858.603 1027.76C856.181 1029.39 853.374 1030.35 850.464 1030.54L371.433 1062.98C368.523 1063.18 365.612 1062.61 362.993 1061.32L-68.0785 849.897C-70.6973 848.612 -72.9319 846.661 -74.5576 844.239L-342.164 445.605C-343.79 443.183 -344.75 440.376 -344.947 437.466L-377.384 -41.5649Z" stroke="url(#paint0_linear)" stroke-width="2"/>
<path opacity="0.0689655" d="M-355.524 -86.9874C-355.569 -89.9039 -354.845 -92.7808 -353.425 -95.3288L-122.66 -509.486C-121.24 -512.034 -119.175 -514.164 -116.671 -515.66L290.256 -758.949C292.76 -760.446 295.613 -761.257 298.53 -761.301L772.583 -768.532C775.5 -768.576 778.376 -767.852 780.925 -766.432L1195.08 -535.667C1197.63 -534.247 1199.76 -532.182 1201.26 -529.678L1444.54 -122.751C1446.04 -120.248 1446.85 -117.395 1446.9 -114.478L1454.13 359.576C1454.17 362.492 1453.45 365.369 1452.03 367.917L1221.26 782.074C1219.84 784.622 1217.78 786.752 1215.27 788.249L808.347 1031.54C805.844 1033.03 802.99 1033.85 800.074 1033.89L326.02 1041.12C323.104 1041.16 320.227 1040.44 317.679 1039.02L-96.4786 808.255C-99.0267 806.836 -101.156 804.77 -102.653 802.267L-345.941 395.34C-347.438 392.836 -348.249 389.983 -348.294 387.066L-355.524 -86.9874Z" stroke="url(#paint1_linear)" stroke-width="2"/>
<path opacity="0.103448" d="M-331.484 -130.611C-331.376 -133.525 -330.502 -136.36 -328.951 -138.831L-80.028 -535.246C-78.4769 -537.716 -76.3029 -539.734 -73.7244 -541.098L340.057 -759.942C342.635 -761.306 345.527 -761.966 348.442 -761.858L816.209 -744.492C819.124 -744.384 821.959 -743.51 824.429 -741.959L1220.84 -493.036C1223.31 -491.484 1225.33 -489.311 1226.7 -486.732L1445.54 -72.9505C1446.9 -70.3721 1447.56 -67.4803 1447.46 -64.5654L1430.09 403.202C1429.98 406.116 1429.11 408.951 1427.56 411.422L1178.63 807.837C1177.08 810.307 1174.91 812.325 1172.33 813.689L758.549 1032.53C755.971 1033.9 753.079 1034.56 750.164 1034.45L282.397 1017.08C279.482 1016.97 276.647 1016.1 274.177 1014.55L-122.238 765.627C-124.708 764.075 -126.727 761.901 -128.09 759.323L-346.934 345.542C-348.298 342.963 -348.959 340.071 -348.851 337.156L-331.484 -130.611Z" stroke="url(#paint2_linear)" stroke-width="2"/>
<path opacity="0.137931" d="M-305.39 -172.34C-305.129 -175.245 -304.108 -178.031 -302.43 -180.416L-36.5644 -558.337C-34.8861 -560.723 -32.6094 -562.625 -29.9632 -563.851L389.244 -758.208C391.89 -759.435 394.812 -759.943 397.718 -759.683L857.94 -718.397C860.845 -718.136 863.63 -717.116 866.016 -715.437L1243.94 -449.572C1246.32 -447.894 1248.22 -445.617 1249.45 -442.971L1443.81 -23.7638C1445.03 -21.1175 1445.54 -18.1951 1445.28 -15.2899L1404 444.932C1403.74 447.837 1402.72 450.623 1401.04 453.008L1135.17 830.929C1133.49 833.315 1131.22 835.217 1128.57 836.444L709.363 1030.8C706.717 1032.03 703.795 1032.54 700.889 1032.27L240.668 990.989C237.762 990.728 234.977 989.708 232.591 988.029L-145.33 722.164C-147.715 720.486 -149.617 718.209 -150.844 715.563L-345.2 296.356C-346.427 293.71 -346.936 290.787 -346.675 287.882L-305.39 -172.34Z" stroke="url(#paint3_linear)" stroke-width="2"/>
<path opacity="0.172414" d="M-277.38 -212.083C-276.968 -214.97 -275.803 -217.699 -274.002 -219.993L7.56162 -578.747C9.36248 -581.041 11.7355 -582.821 14.4424 -583.908L437.661 -753.816C440.367 -754.903 443.313 -755.258 446.2 -754.845L897.672 -690.381C900.559 -689.968 903.287 -688.803 905.582 -687.003L1264.34 -405.439C1266.63 -403.638 1268.41 -401.265 1269.5 -398.558L1439.4 24.6602C1440.49 27.3671 1440.85 30.3122 1440.43 33.1997L1375.97 484.671C1375.56 487.559 1374.39 490.287 1372.59 492.582L1091.03 851.335C1089.23 853.63 1086.85 855.41 1084.15 856.497L660.929 1026.4C658.222 1027.49 655.277 1027.85 652.389 1027.43L200.918 962.969C198.03 962.557 195.302 961.392 193.007 959.591L-165.746 678.027C-168.041 676.226 -169.821 673.853 -170.908 671.146L-340.815 247.928C-341.902 245.222 -342.257 242.276 -341.845 239.389L-277.38 -212.083Z" stroke="url(#paint4_linear)" stroke-width="2"/>
<path opacity="0.206897" d="M-247.577 -249.747C-247.014 -252.609 -245.708 -255.273 -243.789 -257.47L52.2055 -596.462C54.124 -598.659 56.5869 -600.312 59.3469 -601.256L485.182 -746.834C487.942 -747.778 490.901 -747.978 493.763 -747.415L935.336 -660.572C938.198 -660.01 940.862 -658.703 943.059 -656.785L1282.05 -360.79C1284.25 -358.872 1285.9 -356.409 1286.84 -353.649L1432.42 72.1861C1433.37 74.9461 1433.57 77.9057 1433 80.7678L1346.16 522.341C1345.6 525.203 1344.29 527.866 1342.37 530.063L1046.38 869.055C1044.46 871.252 1042 872.906 1039.24 873.849L613.403 1019.43C610.643 1020.37 607.683 1020.57 604.821 1020.01L163.249 933.166C160.387 932.603 157.723 931.297 155.526 929.378L-183.466 633.384C-185.663 631.465 -187.317 629.002 -188.26 626.242L-333.838 200.408C-334.782 197.647 -334.982 194.688 -334.42 191.826L-247.577 -249.747Z" stroke="url(#paint5_linear)" stroke-width="2"/>
<path opacity="0.241379" d="M-216.117 -285.262C-215.405 -288.09 -213.961 -290.682 -211.93 -292.776L97.2089 -611.491C99.2398 -613.585 101.786 -615.107 104.592 -615.905L531.672 -737.351C534.478 -738.149 537.444 -738.194 540.272 -737.482L970.858 -629.117C973.686 -628.405 976.278 -626.961 978.372 -624.93L1297.09 -315.791C1299.18 -313.76 1300.7 -311.214 1301.5 -308.408L1422.95 118.672C1423.74 121.478 1423.79 124.444 1423.08 127.272L1314.71 557.858C1314 560.686 1312.56 563.278 1310.53 565.372L1001.39 884.087C999.356 886.181 996.81 887.703 994.004 888.501L566.924 1009.95C564.118 1010.74 561.152 1010.79 558.324 1010.08L127.738 901.713C124.91 901.001 122.318 899.557 120.224 897.526L-198.491 588.387C-200.585 586.356 -202.107 583.81 -202.905 581.004L-324.351 153.924C-325.149 151.118 -325.194 148.152 -324.482 145.324L-216.117 -285.262Z" stroke="url(#paint6_linear)" stroke-width="2"/>
<path opacity="0.275862" d="M-183.155 -318.558C-182.296 -321.345 -180.718 -323.858 -178.58 -325.842L142.404 -623.846C144.542 -625.831 147.164 -627.218 150.008 -627.868L576.991 -725.454C579.834 -726.104 582.799 -725.994 585.586 -725.135L1004.16 -596.156C1006.95 -595.297 1009.46 -593.72 1011.44 -591.582L1309.45 -270.597C1311.43 -268.46 1312.82 -265.838 1313.47 -262.994L1411.05 163.989C1411.7 166.833 1411.59 169.797 1410.74 172.585L1281.76 591.156C1280.9 593.944 1279.32 596.456 1277.18 598.441L956.198 896.445C954.06 898.429 951.438 899.816 948.594 900.466L521.611 998.053C518.767 998.703 515.803 998.593 513.015 997.734L94.444 868.755C91.6565 867.896 89.1441 866.318 87.1595 864.181L-210.845 543.196C-212.829 541.058 -214.216 538.436 -214.866 535.592L-312.453 108.609C-313.103 105.766 -312.993 102.801 -312.134 100.014L-183.155 -318.558Z" stroke="url(#paint7_linear)" stroke-width="2"/>
<path opacity="0.310345" d="M-148.837 -349.58C-147.833 -352.319 -146.127 -354.745 -143.888 -356.615L187.634 -633.553C189.872 -635.423 192.564 -636.67 195.437 -637.17L621.012 -711.245C623.886 -711.745 626.841 -711.48 629.579 -710.476L1035.18 -561.839C1037.91 -560.835 1040.34 -559.128 1042.21 -556.89L1319.15 -225.368C1321.02 -223.129 1322.27 -220.438 1322.77 -217.565L1396.84 208.011C1397.34 210.884 1397.08 213.839 1396.07 216.578L1247.43 622.174C1246.43 624.912 1244.72 627.339 1242.49 629.209L910.964 906.146C908.725 908.016 906.034 909.264 903.16 909.764L477.585 983.839C474.711 984.339 471.757 984.074 469.018 983.07L63.4221 834.433C60.6833 833.429 58.257 831.722 56.387 829.484L-220.551 497.962C-222.421 495.723 -223.668 493.032 -224.169 490.158L-298.243 64.5833C-298.743 61.7096 -298.478 58.7549 -297.474 56.0162L-148.837 -349.58Z" stroke="url(#paint8_linear)" stroke-width="2"/>
<path opacity="0.344828" d="M-113.307 -378.276C-112.162 -380.959 -110.33 -383.292 -107.997 -385.043L232.749 -640.638C235.083 -642.389 237.836 -643.494 240.731 -643.843L663.624 -694.822C666.52 -695.172 669.457 -694.752 672.139 -693.607L1063.86 -526.31C1066.55 -525.164 1068.88 -523.333 1070.63 -520.999L1326.23 -180.253C1327.98 -177.92 1329.08 -175.167 1329.43 -172.271L1380.41 250.622C1380.76 253.518 1380.34 256.454 1379.19 259.137L1211.9 650.862C1210.75 653.544 1208.92 655.878 1206.59 657.628L865.842 913.224C863.508 914.974 860.755 916.08 857.86 916.429L434.967 967.408C432.071 967.757 429.134 967.338 426.452 966.192L34.7264 798.896C32.0439 797.75 29.7103 795.918 27.96 793.585L-227.636 452.839C-229.386 450.506 -230.491 447.753 -230.84 444.857L-281.82 21.9644C-282.169 19.0685 -281.75 16.1317 -280.604 13.4493L-113.307 -378.276Z" stroke="url(#paint9_linear)" stroke-width="2"/>
<path opacity="0.37931" d="M-76.7025 -404.596C-75.4181 -407.215 -73.4669 -409.449 -71.0451 -411.075L277.613 -645.132C280.035 -646.758 282.842 -647.718 285.752 -647.915L704.728 -676.285C707.638 -676.482 710.549 -675.91 713.167 -674.625L1090.2 -489.707C1092.81 -488.423 1095.05 -486.472 1096.68 -484.05L1330.73 -135.392C1332.36 -132.97 1333.32 -130.163 1333.51 -127.253L1361.89 291.723C1362.08 294.633 1361.51 297.544 1360.23 300.163L1175.31 677.191C1174.02 679.81 1172.07 682.045 1169.65 683.671L820.992 917.728C818.57 919.354 815.763 920.313 812.853 920.51L393.877 948.881C390.967 949.078 388.056 948.505 385.437 947.221L8.40883 762.303C5.78997 761.018 3.55538 759.067 1.9296 756.645L-232.128 407.987C-233.753 405.565 -234.713 402.758 -234.91 399.848L-263.281 -19.1274C-263.478 -22.0376 -262.905 -24.9484 -261.621 -27.5672L-76.7025 -404.596Z" stroke="url(#paint10_linear)" stroke-width="2"/>
<path opacity="0.413793" d="M-33.2055 -434.694L322.058 -647.095C324.562 -648.591 327.415 -649.403 330.332 -649.447L744.199 -655.759C747.116 -655.804 749.992 -655.08 752.541 -653.66L1114.12 -452.193C1116.66 -450.773 1118.79 -448.708 1120.29 -446.204L1332.69 -90.9407C1334.19 -88.4371 1335 -85.5836 1335.04 -82.6672L1341.36 331.2C1341.4 334.117 1340.68 336.994 1339.26 339.542L1137.79 701.118C1136.37 703.666 1134.3 705.795 1131.8 707.292L776.537 919.692C774.034 921.189 771.18 922 768.264 922.045L354.396 928.357C351.48 928.402 348.603 927.678 346.055 926.258L-15.5211 724.791C-18.0691 723.371 -20.1985 721.306 -21.6953 718.802L-234.096 363.538C-235.592 361.035 -236.404 358.182 -236.448 355.265L-242.761 -58.6026C-242.805 -61.5191 -242.081 -64.396 -240.661 -66.944L-39.1942 -428.52C-37.7745 -431.068 -35.7091 -433.197 -33.2055 -434.694Z" stroke="url(#paint11_linear)" stroke-width="2"/>
<path opacity="0.448276" d="M-0.909447 -450.077C0.641682 -452.547 2.81577 -454.566 5.39424 -455.93L365.966 -646.632C368.545 -647.995 371.437 -648.656 374.351 -648.548L781.967 -633.415C784.882 -633.307 787.717 -632.433 790.187 -630.882L1135.63 -413.968C1138.1 -412.417 1140.11 -410.243 1141.48 -407.665L1332.18 -47.0925C1333.54 -44.514 1334.21 -41.6222 1334.1 -38.7074L1318.96 368.908C1318.86 371.823 1317.98 374.658 1316.43 377.128L1099.52 722.567C1097.97 725.037 1095.79 727.056 1093.21 728.42L732.641 919.121C730.063 920.485 727.171 921.146 724.256 921.038L316.641 905.905C313.726 905.797 310.891 904.923 308.421 903.372L-37.0183 686.458C-39.4885 684.907 -41.5069 682.733 -42.8707 680.155L-233.573 319.583C-234.936 317.004 -235.597 314.112 -235.489 311.197L-220.356 -96.4182C-220.248 -99.3331 -219.374 -102.168 -217.823 -104.638L-0.909447 -450.077Z" stroke="url(#paint12_linear)" stroke-width="2"/>
<path opacity="0.482759" d="M37.9829 -469.154C39.6612 -471.539 41.9379 -473.441 44.5843 -474.668L409.182 -643.706C411.828 -644.933 414.751 -645.442 417.656 -645.181L817.926 -609.274C820.831 -609.013 823.616 -607.992 826.002 -606.314L1154.69 -375.082C1157.08 -373.404 1158.98 -371.127 1160.21 -368.481L1329.24 -3.88324C1330.47 -1.23696 1330.98 1.68546 1330.72 4.59069L1294.81 404.861C1294.55 407.766 1293.53 410.551 1291.85 412.937L1060.62 741.627C1058.94 744.012 1056.67 745.914 1054.02 747.141L689.421 916.179C686.775 917.406 683.852 917.915 680.947 917.654L280.677 881.746C277.772 881.486 274.987 880.465 272.601 878.787L-56.0887 647.555C-58.4743 645.877 -60.3762 643.6 -61.6031 640.954L-230.641 276.356C-231.868 273.71 -232.377 270.787 -232.116 267.882L-196.208 -132.388C-195.948 -135.293 -194.927 -138.078 -193.249 -140.464L37.9829 -469.154Z" stroke="url(#paint13_linear)" stroke-width="2"/>
<path opacity="0.517241" d="M77.3467 -485.78C79.1476 -488.074 81.5207 -489.854 84.2276 -490.941L451.586 -638.423C454.293 -639.51 457.238 -639.865 460.126 -639.453L852.009 -583.497C854.897 -583.084 857.625 -581.919 859.919 -580.118L1171.32 -335.717C1173.62 -333.917 1175.4 -331.543 1176.48 -328.837L1323.97 38.5222C1325.05 41.2291 1325.41 44.1741 1324.99 47.0617L1269.04 438.945C1268.63 441.833 1267.46 444.56 1265.66 446.855L1021.26 758.258C1019.46 760.552 1017.09 762.332 1014.38 763.419L647.02 910.901C644.313 911.988 641.368 912.343 638.481 911.931L246.597 855.975C243.71 855.562 240.982 854.397 238.687 852.597L-72.7154 608.196C-75.01 606.395 -76.7901 604.022 -77.8768 601.315L-225.359 233.956C-226.446 231.249 -226.801 228.304 -226.388 225.416L-170.432 -166.467C-170.02 -169.354 -168.855 -172.082 -167.054 -174.377L77.3467 -485.78Z" stroke="url(#paint14_linear)" stroke-width="2"/>
<path opacity="0.551724" d="M117.023 -499.974C118.942 -502.172 121.405 -503.825 124.165 -504.769L493.043 -630.876C495.803 -631.819 498.763 -632.019 501.625 -631.457L884.136 -556.229C886.998 -555.666 889.661 -554.36 891.858 -552.442L1185.51 -296.037C1187.71 -294.119 1189.36 -291.656 1190.3 -288.896L1316.41 79.9828C1317.35 82.7428 1317.55 85.7024 1316.99 88.5644L1241.76 471.076C1241.2 473.938 1239.9 476.601 1237.98 478.798L981.572 772.449C979.654 774.646 977.191 776.3 974.431 777.243L605.552 903.35C602.792 904.294 599.833 904.494 596.97 903.931L214.459 828.704C211.597 828.141 208.934 826.835 206.737 824.916L-86.9143 568.512C-89.1114 566.593 -90.7649 564.13 -91.7085 561.37L-217.815 192.492C-218.759 189.732 -218.959 186.772 -218.396 183.91L-143.169 -198.601C-142.606 -201.463 -141.3 -204.126 -139.381 -206.324L117.023 -499.974Z" stroke="url(#paint15_linear)" stroke-width="2"/>
<path opacity="0.586207" d="M156.889 -511.822C158.92 -513.915 161.466 -515.438 164.272 -516.235L533.455 -621.217C536.261 -622.015 539.227 -622.06 542.055 -621.349L914.268 -527.674C917.097 -526.962 919.688 -525.518 921.782 -523.488L1197.29 -256.257C1199.38 -254.226 1200.91 -251.68 1201.7 -248.874L1306.69 120.309C1307.48 123.114 1307.53 126.08 1306.82 128.909L1213.14 501.122C1212.43 503.951 1210.99 506.542 1208.96 508.636L941.726 784.144C939.695 786.238 937.149 787.76 934.343 788.558L565.16 893.54C562.355 894.338 559.389 894.383 556.56 893.671L184.347 799.997C181.518 799.285 178.927 797.841 176.833 795.81L-98.6753 528.58C-100.769 526.549 -102.291 524.003 -103.089 521.197L-208.071 152.014C-208.869 149.208 -208.914 146.242 -208.202 143.414L-114.528 -228.799C-113.816 -231.628 -112.372 -234.219 -110.341 -236.313L156.889 -511.822Z" stroke="url(#paint16_linear)" stroke-width="2"/>
<path opacity="0.62069" d="M196.773 -521.188C198.91 -523.173 201.533 -524.56 204.376 -525.21L572.679 -609.385C575.523 -610.035 578.487 -609.925 581.275 -609.066L942.323 -497.813C945.11 -496.954 947.623 -495.376 949.607 -493.238L1206.66 -216.366C1208.64 -214.229 1210.03 -211.606 1210.68 -208.763L1294.85 159.541C1295.5 162.384 1295.39 165.349 1294.53 168.136L1183.28 529.184C1182.42 531.972 1180.84 534.484 1178.71 536.468L901.835 793.518C899.697 795.503 897.075 796.89 894.231 797.54L525.928 881.715C523.085 882.365 520.12 882.255 517.333 881.396L156.285 770.142C153.497 769.283 150.985 767.706 149 765.568L-108.049 488.696C-110.034 486.558 -111.421 483.936 -112.071 481.093L-196.246 112.789C-196.896 109.946 -196.786 106.981 -195.927 104.194L-84.6737 -256.854C-83.8148 -259.642 -82.2372 -262.154 -80.0996 -264.138L196.773 -521.188Z" stroke="url(#paint17_linear)" stroke-width="2"/>
<path opacity="0.655172" d="M236.551 -528.187C238.79 -530.057 241.481 -531.305 244.355 -531.805L610.629 -595.558C613.503 -596.058 616.457 -595.793 619.196 -594.789L968.275 -466.863C971.013 -465.86 973.44 -464.153 975.31 -461.914L1213.66 -176.588C1215.53 -174.349 1216.78 -171.658 1217.28 -168.784L1281.03 197.489C1281.53 200.363 1281.26 203.318 1280.26 206.056L1152.33 555.135C1151.33 557.874 1149.62 560.3 1147.38 562.17L862.059 800.518C859.82 802.388 857.129 803.636 854.255 804.136L487.981 867.889C485.108 868.389 482.153 868.124 479.414 867.12L130.336 739.194C127.597 738.191 125.171 736.484 123.301 734.245L-115.048 448.919C-116.918 446.681 -118.165 443.989 -118.666 441.116L-182.418 74.8419C-182.918 71.9682 -182.653 69.0135 -181.649 66.2748L-53.7238 -282.804C-52.7202 -285.543 -51.0133 -287.969 -48.7747 -289.839L236.551 -528.187Z" stroke="url(#paint18_linear)" stroke-width="2"/>
<path opacity="0.689655" d="M284.067 -536.105L647.2 -579.88C650.096 -580.229 653.032 -579.81 655.715 -578.664L992.084 -435.008C994.767 -433.863 997.1 -432.031 998.851 -429.698L1218.33 -137.104C1220.08 -134.77 1221.18 -132.017 1221.53 -129.122L1265.31 234.011C1265.66 236.907 1265.24 239.843 1264.09 242.526L1120.44 578.895C1119.29 581.578 1117.46 583.911 1115.13 585.662L822.531 805.139C820.198 806.889 817.445 807.994 814.549 808.343L451.417 852.119C448.521 852.468 445.584 852.048 442.902 850.903L106.532 707.247C103.85 706.102 101.516 704.27 99.7657 701.937L-119.711 409.342C-121.461 407.009 -122.567 404.256 -122.916 401.36L-166.691 38.2278C-167.04 35.332 -166.621 32.3952 -165.475 29.7128L-21.8196 -306.657C-20.674 -309.339 -18.8425 -311.673 -16.5091 -313.423L276.085 -532.9C278.418 -534.65 281.171 -535.755 284.067 -536.105Z" stroke="url(#paint19_linear)" stroke-width="2"/>
<path opacity="0.724138" d="M315.236 -535.277C317.658 -536.903 320.465 -537.863 323.375 -538.06L682.295 -562.364C685.206 -562.561 688.116 -561.988 690.735 -560.704L1013.72 -402.291C1016.34 -401.007 1018.57 -399.056 1020.2 -396.634L1220.71 -97.9522C1222.33 -95.5304 1223.29 -92.7233 1223.49 -89.8131L1247.79 269.107C1247.99 272.017 1247.42 274.928 1246.13 277.547L1087.72 600.533C1086.44 603.151 1084.49 605.386 1082.06 607.012L783.383 807.52C780.961 809.145 778.154 810.105 775.244 810.302L416.324 834.606C413.414 834.803 410.503 834.231 407.884 832.946L84.8981 674.534C82.2793 673.25 80.0447 671.298 78.4189 668.877L-122.089 370.195C-123.715 367.773 -124.674 364.966 -124.871 362.056L-149.175 3.1354C-149.372 0.225199 -148.8 -2.68561 -147.515 -5.30443L10.8969 -328.29C12.1813 -330.909 14.1325 -333.144 16.5542 -334.769L315.236 -535.277Z" stroke="url(#paint20_linear)" stroke-width="2"/>
<path opacity="0.758621" d="M353.872 -535.424C356.376 -536.921 359.229 -537.732 362.146 -537.777L715.827 -543.171C718.744 -543.216 721.621 -542.492 724.169 -541.072L1033.16 -368.903C1035.71 -367.483 1037.84 -365.418 1039.34 -362.914L1220.85 -59.314C1222.35 -56.8105 1223.16 -53.957 1223.2 -51.0404L1228.6 302.641C1228.64 305.558 1227.92 308.435 1226.5 310.983L1054.33 619.977C1052.91 622.525 1050.84 624.655 1048.34 626.151L744.74 807.664C742.236 809.161 739.383 809.972 736.466 810.016L382.784 815.411C379.868 815.455 376.991 814.731 374.443 813.312L65.4485 641.142C62.9004 639.723 60.7711 637.657 59.2743 635.154L-122.238 331.553C-123.735 329.05 -124.546 326.196 -124.591 323.28L-129.985 -30.4018C-130.03 -33.3183 -129.306 -36.1951 -127.886 -38.7431L44.2833 -347.738C45.703 -350.286 47.7685 -352.415 50.272 -353.912L353.872 -535.424Z" stroke="url(#paint21_linear)" stroke-width="2"/>
<path opacity="0.793103" d="M391.874 -533.396C394.453 -534.76 397.345 -535.421 400.26 -535.313L747.724 -522.413C750.639 -522.304 753.473 -521.431 755.944 -519.88L1050.41 -334.976C1052.88 -333.425 1054.9 -331.251 1056.26 -328.672L1218.82 -21.3095C1220.18 -18.731 1220.84 -15.839 1220.74 -12.9241L1207.84 334.54C1207.73 337.455 1206.85 340.29 1205.3 342.76L1020.4 637.223C1018.85 639.693 1016.67 641.712 1014.1 643.075L706.733 805.636C704.154 806.999 701.262 807.66 698.347 807.552L350.883 794.652C347.968 794.544 345.133 793.67 342.663 792.119L48.2001 607.215C45.7299 605.664 43.7116 603.49 42.3478 600.912L-120.213 293.549C-121.576 290.97 -122.237 288.078 -122.129 285.164L-109.229 -62.3007C-109.121 -65.2155 -108.247 -68.0505 -106.696 -70.5207L78.2078 -364.983C79.7589 -367.454 81.933 -369.472 84.5114 -370.836L391.874 -533.396Z" stroke="url(#paint22_linear)" stroke-width="2"/>
<path opacity="0.827586" d="M429.135 -529.261C431.781 -530.488 434.704 -530.996 437.609 -530.736L777.926 -500.206C780.832 -499.946 783.617 -498.925 786.003 -497.247L1065.46 -300.649C1067.85 -298.971 1069.75 -296.694 1070.98 -294.048L1214.7 15.9408C1215.92 18.5871 1216.43 21.5097 1216.17 24.415L1185.64 364.733C1185.38 367.638 1184.36 370.423 1182.68 372.809L986.084 652.268C984.405 654.653 982.129 656.555 979.482 657.782L669.494 801.502C666.848 802.729 663.925 803.237 661.02 802.977L320.702 772.447C317.797 772.187 315.012 771.166 312.626 769.488L33.1671 572.89C30.7814 571.211 28.8796 568.935 27.6527 566.288L-116.067 256.3C-117.294 253.654 -117.803 250.731 -117.542 247.826L-87.0125 -92.4916C-86.7519 -95.3968 -85.7311 -98.1823 -84.0528 -100.568L112.545 -380.027C114.223 -382.413 116.5 -384.314 119.146 -385.541L429.135 -529.261Z" stroke="url(#paint23_linear)" stroke-width="2"/>
<path opacity="0.862069" d="M465.503 -523.092C468.209 -524.179 471.155 -524.534 474.042 -524.122L806.337 -476.674C809.224 -476.262 811.953 -475.097 814.247 -473.296L1078.3 -266.058C1080.59 -264.257 1082.37 -261.884 1083.46 -259.177L1208.52 52.3223C1209.6 55.0291 1209.96 57.9744 1209.55 60.862L1162.1 393.157C1161.69 396.044 1160.52 398.772 1158.72 401.067L951.482 665.119C949.682 667.413 947.308 669.193 944.602 670.28L633.102 795.337C630.395 796.423 627.45 796.778 624.562 796.366L292.268 748.919C289.38 748.506 286.652 747.341 284.358 745.54L20.3057 538.302C18.0112 536.501 16.2311 534.128 15.1444 531.421L-109.912 219.922C-110.999 217.215 -111.354 214.27 -110.942 211.382L-63.4941 -120.912C-63.0818 -123.8 -61.9166 -126.528 -60.1158 -128.823L147.122 -392.875C148.923 -395.169 151.296 -396.949 154.003 -398.036L465.503 -523.092Z" stroke="url(#paint24_linear)" stroke-width="2"/>
<path opacity="0.896552" d="M500.913 -514.978C503.673 -515.922 506.633 -516.122 509.495 -515.559L832.945 -451.947C835.807 -451.384 838.47 -450.078 840.668 -448.159L1088.98 -231.345C1091.17 -229.427 1092.83 -226.963 1093.77 -224.204L1200.41 87.7183C1201.35 90.4783 1201.55 93.4381 1200.99 96.3001L1137.38 419.75C1136.81 422.612 1135.51 425.275 1133.59 427.473L916.774 675.782C914.856 677.98 912.393 679.633 909.633 680.577L597.711 787.212C594.951 788.155 591.991 788.356 589.129 787.793L265.679 724.181C262.817 723.618 260.154 722.312 257.956 720.394L9.64661 503.579C7.44945 501.66 5.79601 499.198 4.85245 496.437L-101.783 184.516C-102.726 181.756 -102.927 178.796 -102.364 175.934L-38.7521 -147.516C-38.1892 -150.378 -36.8829 -153.041 -34.9645 -155.239L181.85 -403.548C183.769 -405.746 186.232 -407.399 188.992 -408.343L500.913 -514.978Z" stroke="url(#paint25_linear)" stroke-width="2"/>
<path opacity="0.931035" d="M535.231 -504.987C538.037 -505.784 541.003 -505.83 543.832 -505.118L857.672 -426.134C860.501 -425.422 863.092 -423.978 865.186 -421.947L1097.49 -196.625C1099.58 -194.595 1101.1 -192.048 1101.9 -189.243L1190.42 122.043C1191.22 124.848 1191.26 127.815 1190.55 130.643L1111.57 444.483C1110.85 447.312 1109.41 449.903 1107.38 451.997L882.058 684.299C880.027 686.393 877.481 687.915 874.676 688.712L563.39 777.231C560.585 778.028 557.618 778.074 554.79 777.362L240.95 698.378C238.121 697.666 235.53 696.222 233.436 694.191L1.13414 468.869C-0.959596 466.839 -2.48187 464.293 -3.27969 461.487L-91.7978 150.201C-92.5956 147.396 -92.6408 144.43 -91.929 141.601L-12.9452 -172.239C-12.2334 -175.068 -10.7894 -177.659 -8.75862 -179.753L216.563 -412.055C218.594 -414.148 221.14 -415.671 223.946 -416.468L535.231 -504.987Z" stroke="url(#paint26_linear)" stroke-width="2"/>
<path opacity="0.965517" d="M568.369 -493.245C571.213 -493.895 574.177 -493.785 576.965 -492.926L880.489 -399.398C883.276 -398.539 885.788 -396.962 887.773 -394.824L1103.87 -162.064C1105.85 -159.927 1107.24 -157.304 1107.89 -154.461L1178.65 155.163C1179.3 158.006 1179.19 160.971 1178.33 163.758L1084.81 467.282C1083.95 470.07 1082.37 472.582 1080.23 474.566L847.473 690.662C845.335 692.646 842.713 694.033 839.87 694.683L530.246 765.448C527.403 766.097 524.438 765.987 521.65 765.128L218.127 671.6C215.339 670.741 212.827 669.164 210.842 667.026L-5.25317 434.267C-7.23774 432.129 -8.62469 429.507 -9.27458 426.663L-80.0389 117.04C-80.6888 114.196 -80.5787 111.232 -79.7197 108.444L13.8083 -195.08C14.6673 -197.867 16.2449 -200.38 18.3825 -202.364L251.142 -418.46C253.28 -420.444 255.902 -421.831 258.746 -422.481L568.369 -493.245Z" stroke="url(#paint27_linear)" stroke-width="2"/>
<path d="M600.315 -480.512C603.188 -481.013 606.143 -480.748 608.882 -479.744L901.836 -372.386C904.575 -371.382 907.001 -369.675 908.871 -367.437L1108.9 -127.985C1110.77 -125.746 1112.02 -123.055 1112.52 -120.181L1166.02 187.204C1166.52 190.077 1166.25 193.032 1165.25 195.771L1057.89 488.725C1056.89 491.464 1055.18 493.89 1052.94 495.76L813.491 695.787C811.252 697.657 808.561 698.905 805.687 699.405L498.303 752.908C495.429 753.408 492.474 753.143 489.735 752.139L196.781 644.781C194.042 643.777 191.616 642.071 189.746 639.832L-10.281 400.38C-12.151 398.141 -13.3988 395.45 -13.899 392.576L-67.4014 85.1915C-67.9016 82.3179 -67.6365 79.3631 -66.6329 76.6243L40.7251 -216.33C41.7287 -219.069 43.4356 -221.495 45.6742 -223.365L285.126 -423.392C287.365 -425.262 290.056 -426.51 292.93 -427.01L600.315 -480.512Z" stroke="url(#paint28_linear)" stroke-width="2"/>
<defs>
<linearGradient id="paint0_linear" x1="-378.7" y1="-46.207" x2="1477.3" y2="318.806" gradientUnits="userSpaceOnUse">
<stop stop-color="#45C6FE"/>
<stop offset="1" stop-color="white" stop-opacity="0.57"/>
</linearGradient>
<linearGradient id="paint1_linear" x1="-356.596" y1="-91.692" x2="1455.2" y2="364.28" gradientUnits="userSpaceOnUse">
<stop stop-color="#45C6FE"/>
<stop offset="1" stop-color="white" stop-opacity="0.57"/>
</linearGradient>
<linearGradient id="paint2_linear" x1="-332.308" y1="-135.365" x2="1430.91" y2="407.956" gradientUnits="userSpaceOnUse">
<stop stop-color="#45C6FE"/>
<stop offset="1" stop-color="white" stop-opacity="0.57"/>
</linearGradient>
<linearGradient id="paint3_linear" x1="-305.964" y1="-177.131" x2="1404.57" y2="449.723" gradientUnits="userSpaceOnUse">
<stop stop-color="#45C6FE"/>
<stop offset="1" stop-color="white" stop-opacity="0.57"/>
</linearGradient>
<linearGradient id="paint4_linear" x1="-277.703" y1="-216.897" x2="1376.29" y2="489.486" gradientUnits="userSpaceOnUse">
<stop stop-color="#45C6FE"/>
<stop offset="1" stop-color="white" stop-opacity="0.57"/>
</linearGradient>
<linearGradient id="paint5_linear" x1="-247.647" y1="-254.572" x2="1346.23" y2="527.165" gradientUnits="userSpaceOnUse">
<stop stop-color="#45C6FE"/>
<stop offset="1" stop-color="white" stop-opacity="0.57"/>
</linearGradient>
<linearGradient id="paint6_linear" x1="-215.935" y1="-290.084" x2="1314.53" y2="562.68" gradientUnits="userSpaceOnUse">
<stop stop-color="#45C6FE"/>
<stop offset="1" stop-color="white" stop-opacity="0.57"/>
</linearGradient>
<linearGradient id="paint7_linear" x1="-182.72" y1="-323.363" x2="1281.32" y2="595.962" gradientUnits="userSpaceOnUse">
<stop stop-color="#45C6FE"/>
<stop offset="1" stop-color="white" stop-opacity="0.57"/>
</linearGradient>
<linearGradient id="paint8_linear" x1="-148.152" y1="-354.356" x2="1246.75" y2="626.95" gradientUnits="userSpaceOnUse">
<stop stop-color="#45C6FE"/>
<stop offset="1" stop-color="white" stop-opacity="0.57"/>
</linearGradient>
<linearGradient id="paint9_linear" x1="-112.373" y1="-383.01" x2="1210.96" y2="655.596" gradientUnits="userSpaceOnUse">
<stop stop-color="#45C6FE"/>
<stop offset="1" stop-color="white" stop-opacity="0.57"/>
</linearGradient>
<linearGradient id="paint10_linear" x1="-75.5217" y1="-409.274" x2="1174.13" y2="681.87" gradientUnits="userSpaceOnUse">
<stop stop-color="#45C6FE"/>
<stop offset="1" stop-color="white" stop-opacity="0.57"/>
</linearGradient>
<linearGradient id="paint11_linear" x1="-37.7702" y1="-433.13" x2="1136.37" y2="705.728" gradientUnits="userSpaceOnUse">
<stop stop-color="#45C6FE"/>
<stop offset="1" stop-color="white" stop-opacity="0.57"/>
</linearGradient>
<linearGradient id="paint12_linear" x1="0.753949" y1="-454.607" x2="1097.85" y2="727.097" gradientUnits="userSpaceOnUse">
<stop stop-color="#45C6FE"/>
<stop offset="1" stop-color="white" stop-opacity="0.57"/>
</linearGradient>
<linearGradient id="paint13_linear" x1="39.8811" y1="-473.59" x2="1058.72" y2="746.063" gradientUnits="userSpaceOnUse">
<stop stop-color="#45C6FE"/>
<stop offset="1" stop-color="white" stop-opacity="0.57"/>
</linearGradient>
<linearGradient id="paint14_linear" x1="79.4744" y1="-490.11" x2="1019.13" y2="762.589" gradientUnits="userSpaceOnUse">
<stop stop-color="#45C6FE"/>
<stop offset="1" stop-color="white" stop-opacity="0.57"/>
</linearGradient>
<linearGradient id="paint15_linear" x1="119.375" y1="-504.188" x2="979.221" y2="776.663" gradientUnits="userSpaceOnUse">
<stop stop-color="#45C6FE"/>
<stop offset="1" stop-color="white" stop-opacity="0.57"/>
</linearGradient>
<linearGradient id="paint16_linear" x1="159.458" y1="-515.906" x2="939.157" y2="788.229" gradientUnits="userSpaceOnUse">
<stop stop-color="#45C6FE"/>
<stop offset="1" stop-color="white" stop-opacity="0.57"/>
</linearGradient>
<linearGradient id="paint17_linear" x1="199.552" y1="-525.133" x2="899.056" y2="797.463" gradientUnits="userSpaceOnUse">
<stop stop-color="#45C6FE"/>
<stop offset="1" stop-color="white" stop-opacity="0.57"/>
</linearGradient>
<linearGradient id="paint18_linear" x1="239.533" y1="-531.981" x2="859.077" y2="804.312" gradientUnits="userSpaceOnUse">
<stop stop-color="#45C6FE"/>
<stop offset="1" stop-color="white" stop-opacity="0.57"/>
</linearGradient>
<linearGradient id="paint19_linear" x1="279.261" y1="-536.532" x2="819.355" y2="808.771" gradientUnits="userSpaceOnUse">
<stop stop-color="#45C6FE"/>
<stop offset="1" stop-color="white" stop-opacity="0.57"/>
</linearGradient>
<linearGradient id="paint20_linear" x1="318.598" y1="-538.739" x2="780.021" y2="810.981" gradientUnits="userSpaceOnUse">
<stop stop-color="#45C6FE"/>
<stop offset="1" stop-color="white" stop-opacity="0.57"/>
</linearGradient>
<linearGradient id="paint21_linear" x1="357.411" y1="-538.705" x2="741.201" y2="810.944" gradientUnits="userSpaceOnUse">
<stop stop-color="#45C6FE"/>
<stop offset="1" stop-color="white" stop-opacity="0.57"/>
</linearGradient>
<linearGradient id="paint22_linear" x1="395.579" y1="-536.487" x2="703.027" y2="808.727" gradientUnits="userSpaceOnUse">
<stop stop-color="#45C6FE"/>
<stop offset="1" stop-color="white" stop-opacity="0.57"/>
</linearGradient>
<linearGradient id="paint23_linear" x1="432.997" y1="-532.154" x2="665.632" y2="804.394" gradientUnits="userSpaceOnUse">
<stop stop-color="#45C6FE"/>
<stop offset="1" stop-color="white" stop-opacity="0.57"/>
</linearGradient>
<linearGradient id="paint24_linear" x1="469.511" y1="-525.779" x2="629.094" y2="798.023" gradientUnits="userSpaceOnUse">
<stop stop-color="#45C6FE"/>
<stop offset="1" stop-color="white" stop-opacity="0.57"/>
</linearGradient>
<linearGradient id="paint25_linear" x1="505.056" y1="-517.451" x2="593.568" y2="789.685" gradientUnits="userSpaceOnUse">
<stop stop-color="#45C6FE"/>
<stop offset="1" stop-color="white" stop-opacity="0.57"/>
</linearGradient>
<linearGradient id="paint26_linear" x1="539.498" y1="-507.24" x2="559.123" y2="779.484" gradientUnits="userSpaceOnUse">
<stop stop-color="#45C6FE"/>
<stop offset="1" stop-color="white" stop-opacity="0.57"/>
</linearGradient>
<linearGradient id="paint27_linear" x1="572.748" y1="-495.272" x2="525.867" y2="767.474" gradientUnits="userSpaceOnUse">
<stop stop-color="#45C6FE"/>
<stop offset="1" stop-color="white" stop-opacity="0.57"/>
</linearGradient>
<linearGradient id="paint28_linear" x1="604.794" y1="-482.307" x2="493.824" y2="754.702" gradientUnits="userSpaceOnUse">
<stop stop-color="#45C6FE"/>
<stop offset="1" stop-color="white" stop-opacity="0.57"/>
</linearGradient>
</defs>
</svg>
