<svg width="1920" height="1446" viewBox="0 0 1920 1446" fill="none" xmlns="http://www.w3.org/2000/svg">
<path opacity="0.0344828" d="M1645.27 3.15884C1645.47 0.197417 1644.89 -2.76458 1643.58 -5.42958L1432.15 -436.501C1430.85 -439.166 1428.86 -441.44 1426.4 -443.094L1027.76 -710.701C1025.3 -712.355 1022.44 -713.332 1019.48 -713.532L540.45 -745.969C537.488 -746.17 534.526 -745.587 531.861 -744.28L100.79 -532.856C98.1249 -531.549 95.8511 -529.564 94.1968 -527.099L-173.41 -128.465C-175.064 -126 -176.041 -123.144 -176.241 -120.183L-208.678 358.848C-208.879 361.81 -208.296 364.772 -206.989 367.437L4.43488 798.508C5.74176 801.173 7.72728 803.447 10.1917 805.101L408.826 1072.71C411.29 1074.36 414.147 1075.34 417.108 1075.54L896.139 1107.98C899.101 1108.18 902.063 1107.59 904.728 1106.29L1335.8 894.863C1338.46 893.556 1340.74 891.571 1342.39 889.106L1610 490.472C1611.65 488.008 1612.63 485.151 1612.83 482.19L1645.27 3.15884Z" stroke="url(#paint0_linear)" stroke-width="1.4151"/>
<path opacity="0.0689655" d="M1623.41 -42.2789C1623.45 -45.2468 1622.72 -48.1742 1621.27 -50.7672L1390.51 -464.925C1389.06 -467.518 1386.96 -469.684 1384.41 -471.207L977.486 -714.496C974.938 -716.019 972.034 -716.845 969.067 -716.89L495.013 -724.12C492.045 -724.165 489.118 -723.429 486.525 -721.984L72.3675 -491.219C69.7746 -489.774 67.6078 -487.672 66.0847 -485.125L-177.204 -78.1974C-178.727 -75.65 -179.552 -72.7463 -179.598 -69.7784L-186.828 404.275C-186.873 407.243 -186.136 410.17 -184.692 412.763L46.0736 826.921C47.5181 829.514 49.6199 831.68 52.1676 833.204L459.095 1076.49C461.642 1078.02 464.546 1078.84 467.514 1078.89L941.567 1086.12C944.535 1086.16 947.462 1085.42 950.055 1083.98L1364.21 853.215C1366.81 851.77 1368.97 849.668 1370.5 847.121L1613.78 440.194C1615.31 437.646 1616.13 434.742 1616.18 431.774L1623.41 -42.2789Z" stroke="url(#paint1_linear)" stroke-width="1.4151"/>
<path opacity="0.103448" d="M1599.37 -85.9174C1599.26 -88.8836 1598.37 -91.7684 1596.79 -94.2822L1347.87 -490.697C1346.29 -493.211 1344.08 -495.265 1341.45 -496.652L927.672 -715.496C925.048 -716.884 922.105 -717.557 919.139 -717.446L451.372 -700.08C448.406 -699.97 445.521 -699.081 443.007 -697.502L46.5921 -448.579C44.0783 -447.001 42.0245 -444.789 40.6369 -442.165L-178.207 -28.3831C-179.595 -25.7594 -180.267 -22.8166 -180.157 -19.8504L-162.791 447.917C-162.681 450.883 -161.792 453.768 -160.213 456.281L88.71 852.696C90.2883 855.21 92.5006 857.264 95.1245 858.652L508.906 1077.5C511.53 1078.88 514.473 1079.56 517.439 1079.45L985.206 1062.08C988.172 1061.97 991.057 1061.08 993.57 1059.5L1389.99 810.578C1392.5 809 1394.55 806.788 1395.94 804.164L1614.78 390.382C1616.17 387.759 1616.84 384.816 1616.73 381.85L1599.37 -85.9174Z" stroke="url(#paint2_linear)" stroke-width="1.4151"/>
<path opacity="0.137931" d="M1573.28 -127.662C1573.01 -130.618 1571.97 -133.453 1570.26 -135.88L1304.4 -513.801C1302.69 -516.229 1300.37 -518.164 1297.68 -519.413L878.475 -713.769C875.782 -715.018 872.808 -715.535 869.852 -715.27L409.63 -673.984C406.674 -673.719 403.839 -672.68 401.412 -670.972L23.4908 -405.107C21.0631 -403.399 19.1278 -401.082 17.8794 -398.39L-176.477 20.8173C-177.726 23.5101 -178.243 26.4841 -177.978 29.4404L-136.692 489.662C-136.427 492.619 -135.388 495.453 -133.68 497.881L132.185 875.802C133.893 878.229 136.21 880.165 138.903 881.413L558.109 1075.77C560.802 1077.02 563.776 1077.54 566.732 1077.27L1026.95 1035.98C1029.91 1035.72 1032.74 1034.68 1035.17 1032.97L1413.09 767.107C1415.52 765.399 1417.46 763.083 1418.71 760.39L1613.06 341.183C1614.31 338.49 1614.83 335.516 1614.56 332.56L1573.28 -127.662Z" stroke="url(#paint3_linear)" stroke-width="1.4151"/>
<path opacity="0.172414" d="M1545.26 -167.42C1544.84 -170.358 1543.66 -173.135 1541.82 -175.47L1260.26 -534.223C1258.43 -536.558 1256.01 -538.369 1253.26 -539.475L830.04 -709.383C827.286 -710.489 824.289 -710.85 821.35 -710.431L369.879 -645.966C366.94 -645.547 364.164 -644.361 361.829 -642.528L3.07571 -360.965C0.7407 -359.132 -1.07065 -356.717 -2.17641 -353.963L-172.084 69.2554C-173.19 72.0098 -173.552 75.0068 -173.132 77.9452L-108.667 529.417C-108.248 532.355 -107.062 535.131 -105.23 537.466L176.334 896.22C178.166 898.555 180.581 900.366 183.336 901.472L606.554 1071.38C609.309 1072.49 612.306 1072.85 615.244 1072.43L1066.72 1007.96C1069.65 1007.54 1072.43 1006.36 1074.77 1004.53L1433.52 722.961C1435.85 721.129 1437.66 718.714 1438.77 715.96L1608.68 292.741C1609.78 289.987 1610.15 286.99 1609.73 284.052L1545.26 -167.42Z" stroke="url(#paint4_linear)" stroke-width="1.4151"/>
<path opacity="0.206897" d="M1515.46 -205.099C1514.88 -208.012 1513.55 -210.722 1511.6 -212.958L1215.61 -551.95C1213.65 -554.186 1211.15 -555.868 1208.34 -556.828L782.505 -702.407C779.696 -703.367 776.684 -703.571 773.772 -702.998L332.199 -616.155C329.287 -615.582 326.576 -614.253 324.34 -612.301L-14.6514 -316.306C-16.8873 -314.354 -18.5698 -311.848 -19.5299 -309.039L-165.108 116.796C-166.068 119.604 -166.272 122.616 -165.7 125.528L-78.8568 567.101C-78.284 570.014 -76.9547 572.724 -75.0025 574.96L220.992 913.952C222.944 916.188 225.451 917.87 228.259 918.83L654.094 1064.41C656.903 1065.37 659.914 1065.57 662.827 1065L1104.4 978.157C1107.31 977.584 1110.02 976.255 1112.26 974.303L1451.25 678.308C1453.49 676.356 1455.17 673.85 1456.13 671.041L1601.71 245.206C1602.67 242.398 1602.87 239.386 1602.3 236.473L1515.46 -205.099Z" stroke="url(#paint5_linear)" stroke-width="1.4151"/>
<path opacity="0.241379" d="M1483.99 -240.629C1483.27 -243.508 1481.8 -246.145 1479.73 -248.275L1170.59 -566.991C1168.53 -569.121 1165.94 -570.67 1163.08 -571.482L736.002 -692.928C733.147 -693.74 730.128 -693.786 727.25 -693.061L296.665 -584.697C293.786 -583.972 291.149 -582.503 289.018 -580.436L-29.6969 -271.297C-31.8275 -269.23 -33.3765 -266.639 -34.1883 -263.784L-155.634 163.296C-156.446 166.151 -156.492 169.17 -155.768 172.048L-47.403 602.633C-46.6786 605.512 -45.2092 608.149 -43.1427 610.279L265.997 928.995C268.063 931.125 270.654 932.675 273.509 933.486L700.59 1054.93C703.445 1055.74 706.463 1055.79 709.342 1055.07L1139.93 946.701C1142.81 945.976 1145.44 944.507 1147.57 942.441L1466.29 633.301C1468.42 631.235 1469.97 628.643 1470.78 625.789L1592.23 198.708C1593.04 195.853 1593.08 192.835 1592.36 189.956L1483.99 -240.629Z" stroke="url(#paint6_linear)" stroke-width="1.4151"/>
<path opacity="0.275862" d="M1451.03 -273.94C1450.15 -276.776 1448.55 -279.333 1446.37 -281.352L1125.39 -579.356C1123.21 -581.376 1120.54 -582.787 1117.65 -583.449L690.668 -681.035C687.774 -681.697 684.758 -681.585 681.921 -680.711L263.35 -551.732C260.513 -550.858 257.957 -549.252 255.937 -547.077L-42.067 -226.092C-44.0866 -223.917 -45.4979 -221.249 -46.1591 -218.355L-143.746 208.628C-144.407 211.522 -144.295 214.538 -143.421 217.375L-14.4423 635.946C-13.5682 638.783 -11.9629 641.34 -9.78764 643.359L311.197 941.363C313.372 943.383 316.041 944.794 318.934 945.455L745.918 1043.04C748.811 1043.7 751.828 1043.59 754.664 1042.72L1173.24 913.738C1176.07 912.864 1178.63 911.259 1180.65 909.084L1478.65 588.099C1480.67 585.924 1482.08 583.255 1482.74 580.362L1580.33 153.379C1580.99 150.485 1580.88 147.468 1580.01 144.632L1451.03 -273.94Z" stroke="url(#paint7_linear)" stroke-width="1.4151"/>
<path opacity="0.310345" d="M1416.71 -304.976C1415.68 -307.763 1413.95 -310.232 1411.67 -312.135L1080.15 -589.073C1077.87 -590.976 1075.13 -592.245 1072.21 -592.754L646.632 -666.829C643.707 -667.338 640.701 -667.068 637.914 -666.047L232.318 -517.409C229.531 -516.388 227.062 -514.651 225.159 -512.373L-51.7788 -180.851C-53.6818 -178.574 -54.9515 -175.835 -55.4604 -172.911L-129.535 252.665C-130.044 255.589 -129.774 258.595 -128.753 261.382L19.8846 666.978C20.906 669.765 22.6429 672.234 24.9208 674.137L356.443 951.075C358.72 952.978 361.459 954.248 364.383 954.757L789.959 1028.83C792.883 1029.34 795.889 1029.07 798.676 1028.05L1204.27 879.411C1207.06 878.39 1209.53 876.653 1211.43 874.375L1488.37 542.853C1490.27 540.576 1491.54 537.837 1492.05 534.913L1566.12 109.338C1566.63 106.413 1566.36 103.407 1565.34 100.62L1416.71 -304.976Z" stroke="url(#paint8_linear)" stroke-width="1.4151"/>
<path opacity="0.344828" d="M1381.17 -333.687C1380 -336.417 1378.14 -338.791 1375.77 -340.572L1035.02 -596.168C1032.65 -597.949 1029.84 -599.074 1026.9 -599.429L604.005 -650.409C601.058 -650.764 598.069 -650.337 595.34 -649.171L203.614 -481.875C200.885 -480.709 198.51 -478.845 196.729 -476.471L-58.8669 -135.725C-60.6481 -133.35 -61.7727 -130.549 -62.1279 -127.602L-113.107 295.291C-113.463 298.238 -113.036 301.226 -111.87 303.956L55.4266 695.681C56.5924 698.411 58.4562 700.785 60.8306 702.566L401.577 958.162C403.951 959.943 406.752 961.068 409.699 961.423L832.592 1012.4C835.539 1012.76 838.527 1012.33 841.257 1011.17L1232.98 843.869C1235.71 842.703 1238.09 840.839 1239.87 838.465L1495.46 497.719C1497.24 495.344 1498.37 492.543 1498.72 489.596L1549.7 66.7034C1550.06 63.7566 1549.63 60.7681 1548.47 58.0385L1381.17 -333.687Z" stroke="url(#paint9_linear)" stroke-width="1.4151"/>
<path opacity="0.37931" d="M1344.56 -360.021C1343.25 -362.685 1341.27 -364.959 1338.8 -366.614L990.146 -600.671C987.681 -602.325 984.825 -603.302 981.863 -603.502L562.888 -631.873C559.926 -632.073 556.964 -631.491 554.3 -630.184L177.271 -445.266C174.606 -443.959 172.332 -441.973 170.678 -439.509L-63.3795 -90.8504C-65.034 -88.3862 -66.0104 -85.5297 -66.2109 -82.5683L-94.5814 336.407C-94.782 339.369 -94.1995 342.331 -92.8923 344.996L92.0258 722.024C93.3329 724.689 95.3184 726.963 97.7828 728.617L446.441 962.675C448.905 964.329 451.762 965.306 454.723 965.506L873.699 993.877C876.66 994.077 879.622 993.495 882.287 992.188L1259.32 807.269C1261.98 805.962 1264.25 803.977 1265.91 801.512L1499.97 452.854C1501.62 450.39 1502.6 447.533 1502.8 444.572L1531.17 25.5965C1531.37 22.6351 1530.79 19.673 1529.48 17.0081L1344.56 -360.021Z" stroke="url(#paint10_linear)" stroke-width="1.4151"/>
<path opacity="0.413793" d="M1307.04 -383.958C1305.6 -386.551 1303.5 -388.718 1300.95 -390.241L945.686 -602.641C943.138 -604.165 940.234 -604.99 937.267 -605.035L523.399 -611.348C520.431 -611.393 517.504 -610.656 514.911 -609.212L153.335 -407.744C150.742 -406.3 148.575 -404.198 147.052 -401.65L-65.3483 -46.3865C-66.8716 -43.839 -67.6972 -40.9354 -67.7424 -37.9676L-74.0547 375.9C-74.1 378.868 -73.3633 381.795 -71.9185 384.388L129.549 745.964C130.993 748.557 133.095 750.724 135.643 752.247L490.906 964.647C493.454 966.171 496.358 966.996 499.326 967.041L913.193 973.354C916.161 973.399 919.088 972.662 921.681 971.218L1283.26 769.75C1285.85 768.306 1288.02 766.204 1289.54 763.656L1501.94 408.393C1503.46 405.845 1504.29 402.941 1504.33 399.974L1510.65 -13.894C1510.69 -16.8619 1509.96 -19.7894 1508.51 -22.3822L1307.04 -383.958Z" stroke="url(#paint11_linear)" stroke-width="1.4151"/>
<path opacity="0.448276" d="M1268.75 -405.529C1267.17 -408.042 1264.96 -410.096 1262.34 -411.484L901.764 -602.186C899.14 -603.574 896.198 -604.246 893.231 -604.136L485.616 -589.003C482.65 -588.893 479.765 -588.004 477.251 -586.425L131.812 -369.512C129.298 -367.933 127.245 -365.721 125.857 -363.097L-64.8451 -2.5251C-66.233 0.0986252 -66.9055 3.04147 -66.7953 6.0076L-51.6621 413.623C-51.552 416.589 -50.6631 419.474 -49.0846 421.988L167.829 767.427C169.407 769.941 171.62 771.994 174.243 773.382L534.816 964.084C537.439 965.472 540.382 966.145 543.348 966.034L950.964 950.901C953.93 950.791 956.815 949.902 959.329 948.324L1304.77 731.41C1307.28 729.832 1309.34 727.619 1310.72 724.996L1501.42 364.423C1502.81 361.8 1503.49 358.857 1503.38 355.891L1488.24 -51.725C1488.13 -54.6911 1487.24 -57.5761 1485.66 -60.0897L1268.75 -405.529Z" stroke="url(#paint12_linear)" stroke-width="1.4151"/>
<path opacity="0.482759" d="M1229.85 -424.618C1228.14 -427.046 1225.82 -428.981 1223.13 -430.229L858.533 -599.267C855.84 -600.516 852.866 -601.033 849.91 -600.768L449.64 -564.861C446.684 -564.596 443.849 -563.557 441.422 -561.849L112.732 -330.617C110.304 -328.909 108.369 -326.593 107.12 -323.9L-61.9176 40.6979C-63.1662 43.3906 -63.6838 46.3646 -63.4185 49.3209L-27.5109 449.591C-27.2458 452.547 -26.2072 455.382 -24.4992 457.809L206.732 786.499C208.44 788.927 210.757 790.862 213.45 792.111L578.048 961.149C580.74 962.397 583.714 962.915 586.671 962.649L986.941 926.742C989.897 926.477 992.731 925.438 995.159 923.73L1323.85 692.498C1326.28 690.791 1328.21 688.474 1329.46 685.781L1498.5 321.183C1499.75 318.491 1500.26 315.516 1500 312.56L1464.09 -87.7096C1463.83 -90.6659 1462.79 -93.5003 1461.08 -95.928L1229.85 -424.618Z" stroke="url(#paint13_linear)" stroke-width="1.4151"/>
<path opacity="0.517241" d="M1190.48 -441.256C1188.64 -443.591 1186.23 -445.402 1183.47 -446.508L816.114 -593.991C813.36 -595.096 810.363 -595.458 807.425 -595.038L415.541 -539.082C412.603 -538.662 409.827 -537.477 407.492 -535.644L96.0892 -291.243C93.7543 -289.411 91.9429 -286.996 90.837 -284.241L-56.6451 83.1174C-57.7511 85.8718 -58.1123 88.8688 -57.6927 91.8072L-1.73664 483.69C-1.31716 486.629 -0.131582 489.405 1.70107 491.74L246.102 803.142C247.935 805.477 250.349 807.289 253.104 808.395L620.463 955.877C623.217 956.983 626.214 957.344 629.153 956.924L1021.04 900.968C1023.97 900.549 1026.75 899.363 1029.09 897.531L1340.49 653.13C1342.82 651.297 1344.63 648.882 1345.74 646.128L1493.22 278.769C1494.33 276.015 1494.69 273.018 1494.27 270.079L1438.31 -121.804C1437.89 -124.742 1436.71 -127.518 1434.88 -129.853L1190.48 -441.256Z" stroke="url(#paint14_linear)" stroke-width="1.4151"/>
<path opacity="0.551724" d="M1150.79 -455.463C1148.84 -457.699 1146.33 -459.381 1143.52 -460.341L774.645 -586.448C771.837 -587.408 768.825 -587.612 765.913 -587.039L383.401 -511.812C380.489 -511.239 377.779 -509.91 375.543 -507.958L81.8919 -251.553C79.6561 -249.601 77.9736 -247.095 77.0134 -244.286L-49.0933 124.592C-50.0536 127.401 -50.2575 130.413 -49.6847 133.325L25.5427 515.836C26.1154 518.749 27.4446 521.459 29.397 523.695L285.801 817.346C287.754 819.582 290.26 821.264 293.069 822.224L661.947 948.331C664.755 949.291 667.767 949.495 670.68 948.922L1053.19 873.695C1056.1 873.122 1058.81 871.793 1061.05 869.841L1354.7 613.436C1356.94 611.484 1358.62 608.978 1359.58 606.169L1485.69 237.291C1486.65 234.482 1486.85 231.47 1486.28 228.558L1411.05 -153.953C1410.48 -156.866 1409.15 -159.576 1407.2 -161.812L1150.79 -455.463Z" stroke="url(#paint15_linear)" stroke-width="1.4151"/>
<path opacity="0.586207" d="M1110.92 -467.286C1108.85 -469.416 1106.26 -470.965 1103.4 -471.777L734.221 -576.759C731.366 -577.571 728.347 -577.617 725.469 -576.893L353.256 -483.218C350.378 -482.494 347.741 -481.025 345.61 -478.958L70.1015 -211.727C67.9709 -209.661 66.4219 -207.07 65.6099 -204.215L-39.372 164.968C-40.184 167.823 -40.23 170.841 -39.5055 173.72L54.1689 545.933C54.8932 548.811 56.3625 551.448 58.4292 553.579L325.66 829.087C327.726 831.218 330.317 832.767 333.172 833.579L702.355 938.561C705.21 939.373 708.229 939.419 711.107 938.694L1083.32 845.02C1086.2 844.296 1088.84 842.826 1090.97 840.76L1366.47 573.529C1368.61 571.462 1370.15 568.871 1370.97 566.016L1475.95 196.834C1476.76 193.979 1476.81 190.96 1476.08 188.082L1382.41 -184.131C1381.68 -187.009 1380.21 -189.647 1378.15 -191.777L1110.92 -467.286Z" stroke="url(#paint16_linear)" stroke-width="1.4151"/>
<path opacity="0.62069" d="M1071.02 -476.663C1068.85 -478.683 1066.18 -480.094 1063.28 -480.755L694.981 -564.931C692.088 -565.592 689.071 -565.48 686.235 -564.606L325.187 -453.353C322.35 -452.479 319.794 -450.873 317.774 -448.698L60.7244 -171.826C58.7049 -169.651 57.2936 -166.982 56.6323 -164.089L-27.5432 204.215C-28.2047 207.108 -28.0926 210.125 -27.2185 212.961L84.0351 574.009C84.9091 576.846 86.5143 579.403 88.6897 581.422L365.562 838.472C367.737 840.491 370.406 841.903 373.299 842.564L741.602 926.739C744.496 927.401 747.513 927.289 750.349 926.415L1111.4 815.161C1114.23 814.287 1116.79 812.682 1118.81 810.507L1375.86 533.634C1377.88 531.459 1379.29 528.791 1379.95 525.897L1464.13 157.594C1464.79 154.7 1464.68 151.683 1463.8 148.847L1352.55 -212.201C1351.67 -215.037 1350.07 -217.594 1347.89 -219.613L1071.02 -476.663Z" stroke="url(#paint17_linear)" stroke-width="1.4151"/>
<path opacity="0.655172" d="M1031.23 -483.672C1028.95 -485.575 1026.22 -486.845 1023.29 -487.354L657.017 -551.106C654.093 -551.615 651.086 -551.346 648.299 -550.324L299.22 -422.399C296.433 -421.377 293.964 -419.64 292.062 -417.362L53.7135 -132.036C51.8106 -129.758 50.5408 -127.02 50.0318 -124.095L-13.7206 242.179C-14.2297 245.103 -13.96 248.109 -12.9386 250.896L114.987 599.975C116.008 602.762 117.745 605.231 120.023 607.134L405.349 845.482C407.627 847.385 410.366 848.655 413.29 849.164L779.564 912.916C782.488 913.425 785.495 913.155 788.282 912.134L1137.36 784.208C1140.15 783.187 1142.62 781.45 1144.52 779.172L1382.87 493.846C1384.77 491.568 1386.04 488.829 1386.55 485.905L1450.3 119.631C1450.81 116.707 1450.54 113.7 1449.52 110.913L1321.59 -238.165C1320.57 -240.952 1318.84 -243.421 1316.56 -245.324L1031.23 -483.672Z" stroke="url(#paint18_linear)" stroke-width="1.4151"/>
<path opacity="0.689655" d="M991.684 -488.395C989.31 -490.176 986.508 -491.301 983.561 -491.656L620.429 -535.431C617.482 -535.787 614.494 -535.36 611.764 -534.194L275.395 -390.538C272.665 -389.373 270.29 -387.509 268.509 -385.134L49.0324 -92.5403C47.2513 -90.1658 46.1267 -87.3645 45.7714 -84.4176L1.99608 278.715C1.64069 281.662 2.06744 284.65 3.2333 287.38L146.889 623.749C148.055 626.479 149.918 628.854 152.293 630.635L444.887 850.112C447.261 851.893 450.063 853.017 453.01 853.373L816.142 897.148C819.089 897.503 822.077 897.076 824.807 895.911L1161.18 752.255C1163.91 751.089 1166.28 749.226 1168.06 746.851L1387.54 454.257C1389.32 451.882 1390.44 449.081 1390.8 446.134L1434.58 83.0018C1434.93 80.055 1434.5 77.0665 1433.34 74.3369L1289.68 -262.033C1288.52 -264.762 1286.65 -267.137 1284.28 -268.918L991.684 -488.395Z" stroke="url(#paint19_linear)" stroke-width="1.4151"/>
<path opacity="0.724138" d="M952.521 -490.781C950.056 -492.435 947.2 -493.412 944.238 -493.612L585.318 -517.916C582.357 -518.117 579.395 -517.534 576.73 -516.227L253.744 -357.815C251.079 -356.508 248.805 -354.522 247.151 -352.058L46.6428 -53.3759C44.9884 -50.9115 44.0119 -48.055 43.8113 -45.0936L19.5076 313.827C19.3069 316.788 19.8895 319.75 21.1966 322.415L179.609 645.401C180.916 648.066 182.901 650.34 185.366 651.994L484.048 852.502C486.512 854.156 489.369 855.133 492.33 855.333L851.25 879.637C854.212 879.838 857.174 879.255 859.839 877.948L1182.82 719.536C1185.49 718.229 1187.76 716.243 1189.42 713.779L1389.93 415.097C1391.58 412.632 1392.56 409.776 1392.76 406.815L1417.06 47.8944C1417.26 44.933 1416.68 41.971 1415.37 39.306L1256.96 -283.68C1255.65 -286.345 1253.67 -288.619 1251.2 -290.273L952.521 -490.781Z" stroke="url(#paint20_linear)" stroke-width="1.4151"/>
<path opacity="0.758621" d="M913.872 -490.936C911.324 -492.459 908.42 -493.285 905.453 -493.33L551.771 -498.725C548.803 -498.77 545.876 -498.033 543.283 -496.588L234.288 -324.419C231.695 -322.974 229.528 -320.873 228.005 -318.325L46.4928 -14.7248C44.9697 -12.1772 44.144 -9.27358 44.0987 -6.30567L38.7045 347.376C38.659 350.344 39.3958 353.271 40.8406 355.864L213.01 664.859C214.455 667.452 216.556 669.618 219.104 671.141L522.704 852.654C525.252 854.177 528.155 855.003 531.123 855.048L884.805 860.442C887.773 860.488 890.7 859.751 893.293 858.306L1202.29 686.137C1204.88 684.692 1207.05 682.591 1208.57 680.043L1390.08 376.443C1391.61 373.895 1392.43 370.992 1392.48 368.024L1397.87 14.3419C1397.92 11.3741 1397.18 8.44662 1395.74 5.85378L1223.57 -303.141C1222.12 -305.734 1220.02 -307.9 1217.47 -309.424L913.872 -490.936Z" stroke="url(#paint21_linear)" stroke-width="1.4151"/>
<path opacity="0.793103" d="M875.854 -488.915C873.23 -490.303 870.288 -490.976 867.321 -490.865L519.857 -477.965C516.891 -477.855 514.006 -476.966 511.493 -475.388L217.03 -290.484C214.516 -288.906 212.462 -286.693 211.074 -284.069L48.514 23.2933C47.1263 25.9172 46.4537 28.86 46.5638 31.8262L59.4639 379.29C59.5739 382.257 60.4629 385.141 62.0414 387.655L246.945 682.118C248.524 684.632 250.736 686.686 253.36 688.073L560.723 850.634C563.346 852.021 566.289 852.694 569.255 852.584L916.72 839.684C919.686 839.574 922.571 838.685 925.084 837.106L1219.55 652.202C1222.06 650.624 1224.11 648.412 1225.5 645.788L1388.06 338.425C1389.45 335.801 1390.12 332.858 1390.01 329.892L1377.11 -17.572C1377 -20.5381 1376.11 -23.4231 1374.54 -25.9367L1189.63 -320.4C1188.05 -322.913 1185.84 -324.967 1183.22 -326.355L875.854 -488.915Z" stroke="url(#paint22_linear)" stroke-width="1.4151"/>
<path opacity="0.827586" d="M838.584 -484.787C835.891 -486.035 832.917 -486.553 829.961 -486.288L489.643 -455.758C486.687 -455.493 483.852 -454.455 481.425 -452.747L201.966 -256.149C199.538 -254.441 197.603 -252.124 196.354 -249.431L52.6346 60.5571C51.3862 63.2499 50.8685 66.224 51.1337 69.1803L81.6631 409.498C81.9282 412.454 82.9669 415.289 84.6748 417.716L281.273 697.175C282.981 699.603 285.297 701.538 287.99 702.787L597.979 846.506C600.672 847.755 603.646 848.272 606.602 848.007L946.92 817.478C949.876 817.213 952.71 816.174 955.138 814.466L1234.6 617.868C1237.02 616.16 1238.96 613.843 1240.21 611.151L1383.93 301.162C1385.18 298.469 1385.69 295.495 1385.43 292.539L1354.9 -47.7785C1354.63 -50.7348 1353.6 -53.5693 1351.89 -55.9969L1155.29 -335.456C1153.58 -337.884 1151.27 -339.819 1148.57 -341.067L838.584 -484.787Z" stroke="url(#paint23_linear)" stroke-width="1.4151"/>
<path opacity="0.862069" d="M802.198 -478.624C799.444 -479.73 796.447 -480.091 793.508 -479.672L461.214 -432.224C458.275 -431.805 455.499 -430.619 453.164 -428.787L189.112 -221.548C186.777 -219.716 184.966 -217.301 183.86 -214.547L58.8035 96.9528C57.6976 99.7073 57.3364 102.704 57.7559 105.643L105.204 437.937C105.623 440.876 106.809 443.652 108.641 445.987L315.879 710.039C317.712 712.374 320.127 714.185 322.881 715.291L634.381 840.348C637.135 841.453 640.132 841.815 643.071 841.395L975.365 793.948C978.304 793.528 981.08 792.342 983.415 790.51L1247.47 583.272C1249.8 581.439 1251.61 579.024 1252.72 576.27L1377.78 264.77C1378.88 262.016 1379.24 259.019 1378.82 256.08L1331.38 -76.2142C1330.96 -79.1526 1329.77 -81.9288 1327.94 -84.2638L1120.7 -348.316C1118.87 -350.651 1116.45 -352.462 1113.7 -353.568L802.198 -478.624Z" stroke="url(#paint24_linear)" stroke-width="1.4151"/>
<path opacity="0.896552" d="M766.775 -470.515C763.966 -471.475 760.955 -471.679 758.042 -471.107L434.592 -407.495C431.68 -406.922 428.97 -405.593 426.734 -403.64L178.424 -186.826C176.188 -184.874 174.505 -182.367 173.545 -179.559L66.91 132.363C65.9499 135.172 65.746 138.184 66.3187 141.096L129.931 464.546C130.503 467.458 131.833 470.169 133.785 472.404L350.599 720.714C352.552 722.95 355.058 724.633 357.867 725.593L669.788 832.228C672.597 833.188 675.609 833.392 678.521 832.82L1001.97 769.208C1004.88 768.635 1007.59 767.306 1009.83 765.353L1258.14 548.539C1260.38 546.587 1262.06 544.08 1263.02 541.272L1369.65 229.35C1370.61 226.541 1370.82 223.529 1370.24 220.617L1306.63 -102.833C1306.06 -105.745 1304.73 -108.456 1302.78 -110.691L1085.96 -359.001C1084.01 -361.237 1081.51 -362.92 1078.7 -363.88L766.775 -470.515Z" stroke="url(#paint25_linear)" stroke-width="1.4151"/>
<path opacity="0.931035" d="M732.444 -460.529C729.589 -461.34 726.571 -461.386 723.692 -460.662L409.852 -381.678C406.974 -380.954 404.337 -379.485 402.206 -377.418L169.905 -152.096C167.774 -150.029 166.225 -147.438 165.413 -144.583L76.895 166.702C76.0832 169.557 76.0371 172.575 76.7615 175.454L155.745 489.294C156.47 492.172 157.939 494.809 160.006 496.94L385.328 729.242C387.394 731.372 389.985 732.921 392.84 733.733L704.125 822.251C706.98 823.063 709.999 823.109 712.877 822.385L1026.72 743.401C1029.6 742.677 1032.23 741.207 1034.36 739.141L1266.67 513.819C1268.8 511.752 1270.34 509.161 1271.16 506.306L1359.67 195.021C1360.49 192.166 1360.53 189.147 1359.81 186.269L1280.82 -127.571C1280.1 -130.45 1278.63 -133.087 1276.56 -135.217L1051.24 -367.519C1049.18 -369.65 1046.58 -371.199 1043.73 -372.01L732.444 -460.529Z" stroke="url(#paint26_linear)" stroke-width="1.4151"/>
<path opacity="0.965517" d="M699.288 -448.791C696.394 -449.453 693.378 -449.341 690.541 -448.466L387.017 -354.938C384.181 -354.064 381.624 -352.459 379.605 -350.284L163.509 -117.524C161.49 -115.349 160.078 -112.68 159.417 -109.787L88.6526 199.837C87.9913 202.73 88.1033 205.747 88.9774 208.584L182.506 512.107C183.379 514.944 184.985 517.501 187.16 519.52L419.92 735.615C422.095 737.635 424.764 739.046 427.657 739.708L737.281 810.472C740.174 811.133 743.191 811.021 746.027 810.147L1049.55 716.619C1052.39 715.745 1054.94 714.14 1056.96 711.964L1273.06 479.205C1275.08 477.03 1276.49 474.361 1277.15 471.467L1347.92 161.844C1348.58 158.95 1348.47 155.934 1347.59 153.097L1254.06 -150.427C1253.19 -153.263 1251.58 -155.82 1249.41 -157.839L1016.65 -373.935C1014.47 -375.954 1011.8 -377.366 1008.91 -378.027L699.288 -448.791Z" stroke="url(#paint27_linear)" stroke-width="1.4151"/>
<path d="M667.335 -436.061C664.411 -436.57 661.404 -436.301 658.617 -435.279L365.663 -327.921C362.876 -326.9 360.407 -325.163 358.504 -322.885L158.477 -83.4331C156.574 -81.1551 155.304 -78.4164 154.795 -75.4922L101.293 231.893C100.784 234.817 101.054 237.824 102.075 240.611L209.433 533.565C210.454 536.352 212.191 538.821 214.469 540.724L453.921 740.751C456.199 742.654 458.938 743.924 461.862 744.432L769.247 797.935C772.171 798.444 775.178 798.174 777.965 797.153L1070.92 689.795C1073.71 688.774 1076.18 687.037 1078.08 684.759L1278.11 445.307C1280.01 443.029 1281.28 440.29 1281.79 437.366L1335.29 129.981C1335.8 127.057 1335.53 124.05 1334.51 121.263L1227.15 -171.691C1226.13 -174.478 1224.39 -176.947 1222.11 -178.85L982.661 -378.877C980.383 -380.78 977.644 -382.05 974.72 -382.559L667.335 -436.061Z" stroke="url(#paint28_linear)" stroke-width="1.4151"/>
<defs>
<linearGradient id="paint0_linear" x1="1646.29" y1="-1.50301" x2="-209.703" y2="363.51" gradientUnits="userSpaceOnUse">
<stop stop-color="#9FD49A"/>
<stop offset="1" stop-color="#9FD49A" stop-opacity="0"/>
</linearGradient>
<linearGradient id="paint1_linear" x1="1624.19" y1="-46.988" x2="-187.607" y2="408.984" gradientUnits="userSpaceOnUse">
<stop stop-color="#9FD49A"/>
<stop offset="1" stop-color="#9FD49A" stop-opacity="0"/>
</linearGradient>
<linearGradient id="paint2_linear" x1="1599.9" y1="-90.6608" x2="-163.323" y2="452.66" gradientUnits="userSpaceOnUse">
<stop stop-color="#9FD49A"/>
<stop offset="1" stop-color="#9FD49A" stop-opacity="0"/>
</linearGradient>
<linearGradient id="paint3_linear" x1="1573.56" y1="-132.427" x2="-136.975" y2="494.427" gradientUnits="userSpaceOnUse">
<stop stop-color="#9FD49A"/>
<stop offset="1" stop-color="#9FD49A" stop-opacity="0"/>
</linearGradient>
<linearGradient id="paint4_linear" x1="1545.29" y1="-172.193" x2="-108.701" y2="534.19" gradientUnits="userSpaceOnUse">
<stop stop-color="#9FD49A"/>
<stop offset="1" stop-color="#9FD49A" stop-opacity="0"/>
</linearGradient>
<linearGradient id="paint5_linear" x1="1515.24" y1="-209.868" x2="-78.6401" y2="571.87" gradientUnits="userSpaceOnUse">
<stop stop-color="#9FD49A"/>
<stop offset="1" stop-color="#9FD49A" stop-opacity="0"/>
</linearGradient>
<linearGradient id="paint6_linear" x1="1483.53" y1="-245.379" x2="-46.9371" y2="607.384" gradientUnits="userSpaceOnUse">
<stop stop-color="#9FD49A"/>
<stop offset="1" stop-color="#9FD49A" stop-opacity="0"/>
</linearGradient>
<linearGradient id="paint7_linear" x1="1450.31" y1="-278.659" x2="-13.7284" y2="640.666" gradientUnits="userSpaceOnUse">
<stop stop-color="#9FD49A"/>
<stop offset="1" stop-color="#9FD49A" stop-opacity="0"/>
</linearGradient>
<linearGradient id="paint8_linear" x1="1415.75" y1="-309.652" x2="20.8445" y2="671.654" gradientUnits="userSpaceOnUse">
<stop stop-color="#9FD49A"/>
<stop offset="1" stop-color="#9FD49A" stop-opacity="0"/>
</linearGradient>
<linearGradient id="paint9_linear" x1="1379.97" y1="-338.306" x2="56.6299" y2="700.3" gradientUnits="userSpaceOnUse">
<stop stop-color="#9FD49A"/>
<stop offset="1" stop-color="#9FD49A" stop-opacity="0"/>
</linearGradient>
<linearGradient id="paint10_linear" x1="1343.12" y1="-364.57" x2="93.4692" y2="726.574" gradientUnits="userSpaceOnUse">
<stop stop-color="#9FD49A"/>
<stop offset="1" stop-color="#9FD49A" stop-opacity="0"/>
</linearGradient>
<linearGradient id="paint11_linear" x1="1305.36" y1="-388.426" x2="131.228" y2="750.432" gradientUnits="userSpaceOnUse">
<stop stop-color="#9FD49A"/>
<stop offset="1" stop-color="#9FD49A" stop-opacity="0"/>
</linearGradient>
<linearGradient id="paint12_linear" x1="1266.84" y1="-409.902" x2="169.74" y2="771.801" gradientUnits="userSpaceOnUse">
<stop stop-color="#9FD49A"/>
<stop offset="1" stop-color="#9FD49A" stop-opacity="0"/>
</linearGradient>
<linearGradient id="paint13_linear" x1="1227.71" y1="-428.886" x2="208.87" y2="790.767" gradientUnits="userSpaceOnUse">
<stop stop-color="#9FD49A"/>
<stop offset="1" stop-color="#9FD49A" stop-opacity="0"/>
</linearGradient>
<linearGradient id="paint14_linear" x1="1188.12" y1="-445.406" x2="248.46" y2="807.293" gradientUnits="userSpaceOnUse">
<stop stop-color="#9FD49A"/>
<stop offset="1" stop-color="#9FD49A" stop-opacity="0"/>
</linearGradient>
<linearGradient id="paint15_linear" x1="1148.22" y1="-459.484" x2="288.373" y2="821.367" gradientUnits="userSpaceOnUse">
<stop stop-color="#9FD49A"/>
<stop offset="1" stop-color="#9FD49A" stop-opacity="0"/>
</linearGradient>
<linearGradient id="paint16_linear" x1="1108.14" y1="-471.167" x2="328.439" y2="832.968" gradientUnits="userSpaceOnUse">
<stop stop-color="#9FD49A"/>
<stop offset="1" stop-color="#9FD49A" stop-opacity="0"/>
</linearGradient>
<linearGradient id="paint17_linear" x1="1068.04" y1="-480.393" x2="368.54" y2="842.202" gradientUnits="userSpaceOnUse">
<stop stop-color="#9FD49A"/>
<stop offset="1" stop-color="#9FD49A" stop-opacity="0"/>
</linearGradient>
<linearGradient id="paint18_linear" x1="1028.06" y1="-487.241" x2="408.519" y2="849.051" gradientUnits="userSpaceOnUse">
<stop stop-color="#9FD49A"/>
<stop offset="1" stop-color="#9FD49A" stop-opacity="0"/>
</linearGradient>
<linearGradient id="paint19_linear" x1="988.333" y1="-491.793" x2="448.239" y2="853.51" gradientUnits="userSpaceOnUse">
<stop stop-color="#9FD49A"/>
<stop offset="1" stop-color="#9FD49A" stop-opacity="0"/>
</linearGradient>
<linearGradient id="paint20_linear" x1="948.996" y1="-493.999" x2="487.573" y2="855.72" gradientUnits="userSpaceOnUse">
<stop stop-color="#9FD49A"/>
<stop offset="1" stop-color="#9FD49A" stop-opacity="0"/>
</linearGradient>
<linearGradient id="paint21_linear" x1="910.183" y1="-493.966" x2="526.393" y2="855.684" gradientUnits="userSpaceOnUse">
<stop stop-color="#9FD49A"/>
<stop offset="1" stop-color="#9FD49A" stop-opacity="0"/>
</linearGradient>
<linearGradient id="paint22_linear" x1="872.012" y1="-491.748" x2="564.565" y2="853.466" gradientUnits="userSpaceOnUse">
<stop stop-color="#9FD49A"/>
<stop offset="1" stop-color="#9FD49A" stop-opacity="0"/>
</linearGradient>
<linearGradient id="paint23_linear" x1="834.599" y1="-487.414" x2="601.964" y2="849.134" gradientUnits="userSpaceOnUse">
<stop stop-color="#9FD49A"/>
<stop offset="1" stop-color="#9FD49A" stop-opacity="0"/>
</linearGradient>
<linearGradient id="paint24_linear" x1="798.081" y1="-481.04" x2="638.498" y2="842.763" gradientUnits="userSpaceOnUse">
<stop stop-color="#9FD49A"/>
<stop offset="1" stop-color="#9FD49A" stop-opacity="0"/>
</linearGradient>
<linearGradient id="paint25_linear" x1="762.537" y1="-472.712" x2="674.026" y2="834.425" gradientUnits="userSpaceOnUse">
<stop stop-color="#9FD49A"/>
<stop offset="1" stop-color="#9FD49A" stop-opacity="0"/>
</linearGradient>
<linearGradient id="paint26_linear" x1="728.097" y1="-462.5" x2="708.472" y2="824.223" gradientUnits="userSpaceOnUse">
<stop stop-color="#9FD49A"/>
<stop offset="1" stop-color="#9FD49A" stop-opacity="0"/>
</linearGradient>
<linearGradient id="paint27_linear" x1="694.844" y1="-450.533" x2="741.725" y2="812.213" gradientUnits="userSpaceOnUse">
<stop stop-color="#9FD49A"/>
<stop offset="1" stop-color="#9FD49A" stop-opacity="0"/>
</linearGradient>
<linearGradient id="paint28_linear" x1="662.806" y1="-437.568" x2="773.776" y2="799.442" gradientUnits="userSpaceOnUse">
<stop stop-color="#9FD49A"/>
<stop offset="1" stop-color="#9FD49A" stop-opacity="0"/>
</linearGradient>
</defs>
</svg>
