<svg width="360" height="1008" viewBox="0 0 360 1008" fill="none" xmlns="http://www.w3.org/2000/svg">
<path opacity="0.0344828" d="M565.558 61.5208C565.758 58.5594 565.176 55.5974 563.869 52.9324L426.365 -227.423C425.058 -230.088 423.072 -232.362 420.608 -234.017L161.348 -408.06C158.883 -409.714 156.027 -410.691 153.066 -410.891L-158.482 -431.988C-161.443 -432.188 -164.405 -431.606 -167.07 -430.299L-447.426 -292.794C-450.091 -291.488 -452.365 -289.502 -454.019 -287.038L-628.062 -27.7778C-629.717 -25.3135 -630.693 -22.457 -630.894 -19.4957L-651.99 292.052C-652.191 295.013 -651.608 297.975 -650.301 300.64L-512.797 580.996C-511.49 583.661 -509.504 585.935 -507.04 587.589L-247.78 761.633C-245.316 763.287 -242.459 764.263 -239.498 764.464L72.0493 785.56C75.0107 785.761 77.9727 785.178 80.6377 783.871L360.994 646.367C363.658 645.06 365.932 643.075 367.587 640.61L541.63 381.35C543.284 378.886 544.261 376.029 544.462 373.068L565.558 61.5208Z" stroke="url(#paint0_linear_927:5218)" stroke-width="1.4151"/>
<path opacity="0.0689655" d="M551.279 31.6792C551.324 28.7113 550.588 25.7839 549.143 23.191L399.08 -246.129C397.635 -248.722 395.534 -250.889 392.986 -252.412L128.368 -410.619C125.82 -412.142 122.916 -412.967 119.949 -413.013L-188.321 -417.714C-191.289 -417.76 -194.216 -417.023 -196.809 -415.578L-466.129 -265.515C-468.722 -264.071 -470.889 -261.969 -472.412 -259.421L-630.619 5.19729C-632.142 7.74488 -632.968 10.6485 -633.013 13.6163L-637.715 321.886C-637.76 324.854 -637.023 327.781 -635.578 330.374L-485.515 599.694C-484.071 602.287 -481.969 604.454 -479.421 605.977L-214.803 764.184C-212.255 765.707 -209.352 766.532 -206.384 766.578L101.886 771.279C104.854 771.325 107.781 770.588 110.374 769.143L379.694 619.08C382.287 617.636 384.454 615.534 385.977 612.986L544.183 348.368C545.707 345.82 546.532 342.917 546.577 339.949L551.279 31.6792Z" stroke="url(#paint1_linear_927:5218)" stroke-width="1.4151"/>
<path opacity="0.103448" d="M535.566 3.0156C535.456 0.0494362 534.567 -2.83545 532.989 -5.34922L371.14 -263.097C369.561 -265.61 367.349 -267.664 364.725 -269.052L95.6857 -411.344C93.0619 -412.731 90.119 -413.404 87.153 -413.294L-216.988 -402.002C-219.954 -401.892 -222.839 -401.003 -225.352 -399.425L-483.1 -237.576C-485.614 -235.997 -487.668 -233.785 -489.055 -231.161L-631.347 37.8781C-632.735 40.5019 -633.407 43.4448 -633.297 46.4109L-622.005 350.551C-621.895 353.518 -621.006 356.402 -619.428 358.916L-457.579 616.664C-456 619.178 -453.788 621.232 -451.164 622.619L-182.125 764.911C-179.501 766.298 -176.558 766.971 -173.592 766.861L130.548 755.569C133.514 755.459 136.399 754.57 138.913 752.992L396.661 591.143C399.174 589.564 401.228 587.352 402.616 584.728L544.907 315.689C546.295 313.065 546.968 310.122 546.858 307.156L535.566 3.0156Z" stroke="url(#paint2_linear_927:5218)" stroke-width="1.4151"/>
<path opacity="0.137931" d="M518.507 -24.408C518.241 -27.3644 517.203 -30.1987 515.495 -32.6264L342.654 -278.315C340.946 -280.743 338.629 -282.678 335.936 -283.927L63.4074 -410.279C60.7145 -411.528 57.7405 -412.045 54.7842 -411.78L-244.409 -384.94C-247.365 -384.675 -250.2 -383.636 -252.627 -381.928L-498.316 -209.087C-500.744 -207.379 -502.679 -205.063 -503.928 -202.37L-630.28 70.1593C-631.529 72.8522 -632.046 75.8262 -631.781 78.7825L-604.941 377.976C-604.676 380.932 -603.637 383.766 -601.929 386.194L-429.088 631.883C-427.38 634.311 -425.064 636.246 -422.371 637.494L-149.842 763.847C-147.149 765.095 -144.175 765.613 -141.219 765.348L157.975 738.508C160.931 738.242 163.765 737.204 166.193 735.496L411.882 562.655C414.31 560.947 416.245 558.63 417.493 555.937L543.846 283.408C545.094 280.716 545.612 277.742 545.347 274.785L518.507 -24.408Z" stroke="url(#paint3_linear_927:5218)" stroke-width="1.4151"/>
<path opacity="0.172414" d="M500.183 -50.5307C499.764 -53.4691 498.578 -56.2453 496.745 -58.5803L313.725 -291.775C311.892 -294.11 309.478 -295.922 306.723 -297.027L31.6254 -407.47C28.8709 -408.576 25.8738 -408.937 22.9355 -408.517L-270.527 -366.615C-273.466 -366.195 -276.242 -365.009 -278.577 -363.177L-511.772 -180.156C-514.107 -178.324 -515.918 -175.909 -517.024 -173.154L-627.467 101.943C-628.572 104.698 -628.934 107.695 -628.514 110.633L-586.611 404.096C-586.192 407.034 -585.006 409.811 -583.173 412.146L-400.153 645.34C-398.321 647.675 -395.906 649.487 -393.151 650.593L-118.053 761.035C-115.299 762.141 -112.302 762.502 -109.364 762.083L184.099 720.18C187.038 719.76 189.814 718.575 192.149 716.742L425.344 533.722C427.679 531.889 429.49 529.474 430.596 526.72L541.038 251.622C542.144 248.868 542.506 245.87 542.086 242.932L500.183 -50.5307Z" stroke="url(#paint4_linear_927:5218)" stroke-width="1.4151"/>
<path opacity="0.206897" d="M480.683 -75.2918C480.11 -78.2042 478.781 -80.9145 476.828 -83.1504L284.456 -303.468C282.504 -305.703 279.997 -307.386 277.189 -308.346L0.430558 -402.96C-2.37803 -403.92 -5.38995 -404.124 -8.30224 -403.552L-295.289 -347.111C-298.201 -346.538 -300.912 -345.209 -303.148 -343.257L-523.465 -150.884C-525.701 -148.932 -527.383 -146.425 -528.343 -143.617L-622.957 133.141C-623.918 135.95 -624.122 138.962 -623.549 141.874L-567.108 428.861C-566.535 431.773 -565.206 434.483 -563.254 436.719L-370.881 657.037C-368.929 659.272 -366.423 660.955 -363.614 661.915L-86.8558 756.529C-84.0473 757.489 -81.0354 757.693 -78.123 757.121L208.864 700.68C211.776 700.107 214.486 698.778 216.722 696.825L437.039 504.453C439.275 502.501 440.958 499.994 441.918 497.186L536.532 220.428C537.492 217.619 537.696 214.607 537.123 211.695L480.683 -75.2918Z" stroke="url(#paint5_linear_927:5218)" stroke-width="1.4151"/>
<path opacity="0.241379" d="M460.096 -98.645C459.371 -101.524 457.902 -104.16 455.836 -106.291L254.95 -313.399C252.883 -315.53 250.292 -317.079 247.438 -317.891L-30.0886 -396.809C-32.9436 -397.621 -35.962 -397.667 -38.8403 -396.942L-318.644 -326.525C-321.523 -325.8 -324.159 -324.331 -326.29 -322.264L-533.398 -121.379C-535.529 -119.312 -537.078 -116.721 -537.89 -113.866L-616.808 163.66C-617.62 166.515 -617.666 169.533 -616.941 172.412L-546.524 452.215C-545.799 455.094 -544.33 457.731 -542.263 459.861L-341.378 666.97C-339.311 669.1 -336.72 670.649 -333.865 671.461L-56.3392 750.379C-53.4842 751.191 -50.4658 751.237 -47.5874 750.513L232.216 680.095C235.095 679.37 237.732 677.901 239.862 675.835L446.971 474.949C449.101 472.883 450.65 470.292 451.462 467.437L530.38 189.91C531.192 187.056 531.238 184.037 530.514 181.159L460.096 -98.645Z" stroke="url(#paint6_linear_927:5218)" stroke-width="1.4151"/>
<path opacity="0.275862" d="M438.517 -120.545C437.643 -123.381 436.038 -125.938 433.863 -127.957L225.312 -321.577C223.137 -323.596 220.468 -325.008 217.575 -325.669L-59.8452 -389.073C-62.7388 -389.734 -65.7556 -389.623 -68.592 -388.748L-340.547 -304.948C-343.384 -304.074 -345.94 -302.469 -347.96 -300.293L-541.579 -91.7427C-543.599 -89.5676 -545.01 -86.899 -545.671 -84.0054L-609.076 193.415C-609.737 196.308 -609.625 199.325 -608.751 202.161L-524.95 474.116C-524.076 476.953 -522.471 479.509 -520.296 481.529L-311.745 675.149C-309.57 677.168 -306.901 678.58 -304.008 679.241L-26.5877 742.645C-23.6941 743.306 -20.6775 743.194 -17.8409 742.32L254.114 658.52C256.951 657.646 259.507 656.041 261.527 653.865L455.146 445.315C457.166 443.139 458.577 440.471 459.238 437.577L522.643 160.157C523.304 157.264 523.192 154.247 522.318 151.41L438.517 -120.545Z" stroke="url(#paint7_linear_927:5218)" stroke-width="1.4151"/>
<path opacity="0.310345" d="M416.048 -140.954C415.027 -143.741 413.29 -146.21 411.012 -148.113L195.649 -328.017C193.371 -329.92 190.632 -331.189 187.708 -331.698L-88.7532 -379.818C-91.6775 -380.327 -94.6842 -380.058 -97.4711 -379.036L-360.954 -282.479C-363.741 -281.457 -366.21 -279.721 -368.113 -277.443L-548.016 -62.0799C-549.919 -59.8021 -551.189 -57.0633 -551.698 -54.1391L-599.818 222.322C-600.327 225.247 -600.057 228.253 -599.036 231.04L-502.479 494.523C-501.457 497.31 -499.72 499.779 -497.442 501.682L-282.08 681.585C-279.802 683.488 -277.063 684.758 -274.139 685.267L2.32266 733.387C5.24687 733.896 8.25356 733.626 11.0405 732.605L274.523 636.048C277.31 635.026 279.779 633.289 281.682 631.011L461.586 415.649C463.489 413.371 464.758 410.632 465.267 407.708L513.387 131.246C513.896 128.322 513.627 125.315 512.605 122.529L416.048 -140.954Z" stroke="url(#paint8_linear_927:5218)" stroke-width="1.4151"/>
<path opacity="0.344828" d="M392.781 -159.84C391.616 -162.569 389.752 -164.944 387.377 -166.725L166.059 -332.738C163.684 -334.519 160.883 -335.643 157.936 -335.999L-116.738 -369.11C-119.685 -369.466 -122.673 -369.039 -125.403 -367.873L-379.834 -259.212C-382.563 -258.046 -384.938 -256.182 -386.719 -253.808L-552.732 -32.489C-554.513 -30.1148 -555.638 -27.3133 -555.993 -24.3664L-589.105 250.308C-589.46 253.254 -589.033 256.243 -587.867 258.972L-479.206 513.403C-478.04 516.133 -476.176 518.507 -473.802 520.289L-252.483 686.301C-250.109 688.082 -247.307 689.207 -244.36 689.562L30.3135 722.674C33.2603 723.029 36.2488 722.603 38.9785 721.437L293.409 612.775C296.139 611.61 298.513 609.746 300.295 607.371L466.307 386.053C468.088 383.678 469.213 380.877 469.568 377.93L502.68 103.256C503.035 100.309 502.608 97.3206 501.443 94.591L392.781 -159.84Z" stroke="url(#paint9_linear_927:5218)" stroke-width="1.4151"/>
<path opacity="0.37931" d="M368.807 -177.167C367.499 -179.832 365.514 -182.106 363.05 -183.761L136.63 -335.758C134.165 -337.413 131.309 -338.389 128.347 -338.59L-143.737 -357.013C-146.698 -357.214 -149.66 -356.631 -152.325 -355.324L-397.169 -235.238C-399.834 -233.931 -402.108 -231.945 -403.762 -229.481L-555.76 -3.06109C-557.414 -0.596675 -558.391 2.25979 -558.591 5.22118L-577.015 277.305C-577.215 280.267 -576.633 283.229 -575.326 285.894L-455.239 530.737C-453.932 533.402 -451.947 535.676 -449.482 537.331L-223.063 689.328C-220.598 690.983 -217.742 691.959 -214.78 692.16L57.3039 710.584C60.2653 710.784 63.2273 710.202 65.8922 708.895L310.736 588.808C313.401 587.501 315.675 585.515 317.329 583.051L469.327 356.631C470.981 354.167 471.958 351.31 472.158 348.349L490.582 76.2648C490.783 73.3034 490.2 70.3413 488.893 67.6764L368.807 -177.167Z" stroke="url(#paint10_linear_927:5218)" stroke-width="1.4151"/>
<path opacity="0.413793" d="M344.235 -192.925C342.79 -195.518 340.689 -197.685 338.141 -199.208L107.471 -337.118C104.924 -338.641 102.02 -339.467 99.0522 -339.512L-169.668 -343.61C-172.636 -343.656 -175.564 -342.919 -178.157 -341.474L-412.925 -210.663C-415.518 -209.219 -417.684 -207.117 -419.208 -204.569L-557.117 26.1005C-558.64 28.6481 -559.466 31.5518 -559.511 34.5196L-563.61 303.24C-563.655 306.208 -562.919 309.136 -561.474 311.728L-430.663 546.497C-429.218 549.089 -427.116 551.256 -424.569 552.78L-193.899 690.689C-191.352 692.212 -188.448 693.038 -185.48 693.083L83.2406 697.182C86.2084 697.227 89.1359 696.49 91.7288 695.046L326.497 564.235C329.09 562.79 331.257 560.688 332.78 558.141L470.69 327.471C472.213 324.923 473.038 322.02 473.084 319.052L477.182 50.3313C477.227 47.3634 476.491 44.4359 475.046 41.8431L344.235 -192.925Z" stroke="url(#paint11_linear_927:5218)" stroke-width="1.4151"/>
<path opacity="0.448276" d="M319.151 -207.132C317.573 -209.645 315.361 -211.699 312.737 -213.087L78.6619 -336.886C76.0382 -338.274 73.0952 -338.946 70.1291 -338.836L-194.485 -329.012C-197.451 -328.902 -200.336 -328.013 -202.85 -326.435L-427.101 -185.62C-429.614 -184.041 -431.668 -181.829 -433.056 -179.205L-556.855 54.8697C-558.243 57.4935 -558.915 60.4365 -558.805 63.4026L-548.981 328.017C-548.871 330.983 -547.982 333.868 -546.404 336.382L-405.589 560.632C-404.01 563.146 -401.798 565.2 -399.174 566.588L-165.099 690.387C-162.475 691.774 -159.532 692.447 -156.566 692.337L108.048 682.513C111.014 682.403 113.899 681.514 116.413 679.935L340.663 539.12C343.177 537.542 345.231 535.33 346.619 532.706L470.418 298.631C471.806 296.007 472.478 293.064 472.368 290.098L462.544 25.4838C462.434 22.5176 461.545 19.6327 459.966 17.119L319.151 -207.132Z" stroke="url(#paint12_linear_927:5218)" stroke-width="1.4151"/>
<path opacity="0.482759" d="M293.665 -219.712C291.957 -222.139 289.64 -224.075 286.947 -225.323L50.3028 -335.038C47.61 -336.287 44.6359 -336.805 41.6796 -336.539L-218.118 -313.233C-221.075 -312.968 -223.909 -311.929 -226.337 -310.222L-439.675 -160.139C-442.103 -158.431 -444.038 -156.114 -445.287 -153.421L-555.002 83.2231C-556.251 85.916 -556.768 88.8901 -556.503 91.8464L-533.197 351.644C-532.932 354.601 -531.893 357.435 -530.185 359.863L-380.103 573.201C-378.395 575.629 -376.078 577.564 -373.385 578.813L-136.741 688.528C-134.048 689.777 -131.074 690.294 -128.117 690.029L131.681 666.723C134.637 666.458 137.471 665.419 139.899 663.711L353.238 513.629C355.665 511.921 357.601 509.604 358.849 506.911L468.564 270.266C469.813 267.574 470.331 264.6 470.065 261.643L446.759 1.84526C446.494 -1.11104 445.455 -3.94548 443.748 -6.37311L293.665 -219.712Z" stroke="url(#paint13_linear_927:5218)" stroke-width="1.4151"/>
<path opacity="0.517241" d="M267.868 -230.685C266.035 -233.02 263.62 -234.832 260.866 -235.938L22.4739 -331.644C19.7194 -332.75 16.7224 -333.111 13.784 -332.691L-240.523 -296.38C-243.461 -295.96 -246.237 -294.774 -248.572 -292.942L-450.652 -134.342C-452.987 -132.509 -454.798 -130.094 -455.904 -127.34L-551.611 111.052C-552.716 113.807 -553.078 116.804 -552.658 119.742L-516.346 374.049C-515.927 376.987 -514.741 379.763 -512.909 382.098L-354.308 584.178C-352.476 586.513 -350.061 588.324 -347.306 589.43L-108.915 685.137C-106.16 686.242 -103.163 686.604 -100.225 686.184L154.082 649.872C157.02 649.453 159.796 648.267 162.131 646.435L364.211 487.834C366.546 486.002 368.358 483.587 369.464 480.832L465.17 242.441C466.276 239.686 466.637 236.689 466.217 233.751L429.906 -20.5558C429.486 -23.4942 428.3 -26.2704 426.468 -28.6053L267.868 -230.685Z" stroke="url(#paint14_linear_927:5218)" stroke-width="1.4151"/>
<path opacity="0.551724" d="M241.865 -240.065C239.913 -242.301 237.407 -243.983 234.598 -244.944L-4.73306 -326.763C-7.54168 -327.723 -10.5535 -327.927 -13.4659 -327.354L-261.642 -278.546C-264.555 -277.973 -267.265 -276.644 -269.501 -274.692L-460.024 -108.334C-462.26 -106.382 -463.943 -103.876 -464.903 -101.067L-546.722 138.264C-547.682 141.073 -547.886 144.085 -547.313 146.997L-498.505 395.174C-497.932 398.086 -496.603 400.796 -494.651 403.032L-328.293 593.555C-326.341 595.791 -323.835 597.474 -321.026 598.434L-81.6949 680.253C-78.8863 681.213 -75.8744 681.417 -72.962 680.844L175.215 632.036C178.127 631.464 180.837 630.134 183.073 628.182L373.596 461.825C375.832 459.872 377.515 457.366 378.475 454.557L460.294 215.226C461.254 212.418 461.458 209.406 460.885 206.493L412.077 -41.6833C411.504 -44.5957 410.175 -47.306 408.223 -49.5418L241.865 -240.065Z" stroke="url(#paint15_linear_927:5218)" stroke-width="1.4151"/>
<path opacity="0.586207" d="M215.735 -247.884C213.668 -250.014 211.077 -251.563 208.222 -252.375L-31.2589 -320.475C-34.1139 -321.287 -37.1323 -321.333 -40.0107 -320.608L-281.457 -259.844C-284.335 -259.119 -286.973 -257.65 -289.103 -255.584L-467.82 -82.2367C-469.95 -80.1701 -471.499 -77.5792 -472.311 -74.7242L-540.411 164.757C-541.222 167.612 -541.268 170.63 -540.544 173.509L-479.78 414.955C-479.055 417.833 -477.586 420.47 -475.519 422.601L-302.172 601.317C-300.106 603.448 -297.515 604.997 -294.66 605.809L-55.179 673.908C-52.324 674.72 -49.3056 674.766 -46.4272 674.042L195.019 613.277C197.898 612.553 200.535 611.084 202.665 609.017L381.382 435.67C383.512 433.604 385.061 431.013 385.873 428.158L453.973 188.677C454.785 185.822 454.831 182.803 454.106 179.925L393.342 -61.5213C392.617 -64.3997 391.148 -67.0368 389.081 -69.1673L215.735 -247.884Z" stroke="url(#paint16_linear_927:5218)" stroke-width="1.4151"/>
<path opacity="0.62069" d="M189.587 -254.098C187.412 -256.117 184.744 -257.528 181.85 -258.19L-57.0108 -312.781C-59.9044 -313.443 -62.9211 -313.331 -65.7576 -312.457L-299.913 -240.304C-302.749 -239.43 -305.306 -237.824 -307.326 -235.649L-474.034 -56.0854C-476.053 -53.9101 -477.464 -51.2416 -478.126 -48.3481L-532.717 190.513C-533.379 193.406 -533.267 196.423 -532.393 199.26L-460.24 433.415C-459.366 436.251 -457.76 438.808 -455.585 440.827L-276.021 607.536C-273.846 609.555 -271.178 610.966 -268.284 611.628L-29.4232 666.219C-26.5296 666.881 -23.5129 666.769 -20.6764 665.895L213.479 593.742C216.316 592.868 218.872 591.262 220.892 589.087L387.6 409.523C389.619 407.348 391.03 404.68 391.692 401.786L446.283 162.925C446.945 160.032 446.833 157.015 445.959 154.178L373.806 -79.977C372.932 -82.8136 371.326 -85.3701 369.151 -87.3896L189.587 -254.098Z" stroke="url(#paint17_linear_927:5218)" stroke-width="1.4151"/>
<path opacity="0.655172" d="M163.507 -258.758C161.229 -260.661 158.49 -261.931 155.566 -262.44L-81.9281 -303.778C-84.8523 -304.286 -87.8589 -304.017 -90.6459 -302.995L-316.99 -220.048C-319.777 -219.026 -322.246 -217.29 -324.149 -215.012L-478.695 -30.0046C-480.598 -27.7267 -481.868 -24.9879 -482.377 -22.0637L-523.714 215.43C-524.223 218.354 -523.954 221.361 -522.932 224.148L-439.985 450.492C-438.963 453.279 -437.226 455.748 -434.948 457.651L-249.941 612.197C-247.663 614.1 -244.925 615.37 -242.001 615.879L-4.50669 657.216C-1.58248 657.725 1.4242 657.456 4.21112 656.434L230.556 573.487C233.342 572.465 235.811 570.728 237.714 568.451L392.261 383.444C394.163 381.166 395.433 378.427 395.942 375.503L437.28 138.009C437.789 135.085 437.519 132.078 436.498 129.291L353.55 -97.0534C352.529 -99.8404 350.792 -102.309 348.514 -104.212L163.507 -258.758Z" stroke="url(#paint18_linear_927:5218)" stroke-width="1.4151"/>
<path opacity="0.689655" d="M137.582 -261.92C135.208 -263.701 132.406 -264.826 129.459 -265.181L-105.945 -293.559C-108.892 -293.915 -111.881 -293.488 -114.61 -292.322L-332.666 -199.196C-335.396 -198.03 -337.77 -196.166 -339.551 -193.792L-481.83 -4.114C-483.611 -1.73957 -484.735 1.06184 -485.091 4.00866L-513.469 239.414C-513.824 242.36 -513.397 245.349 -512.231 248.079L-419.105 466.134C-417.939 468.864 -416.075 471.238 -413.701 473.019L-224.023 615.298C-221.649 617.079 -218.848 618.204 -215.901 618.559L19.5042 646.937C22.451 647.292 25.4395 646.865 28.1691 645.7L246.225 552.573C248.954 551.407 251.329 549.544 253.11 547.169L395.389 357.492C397.17 355.117 398.294 352.316 398.65 349.369L427.027 113.964C427.383 111.017 426.956 108.029 425.79 105.299L332.664 -112.757C331.498 -115.486 329.634 -117.861 327.26 -119.642L137.582 -261.92Z" stroke="url(#paint19_linear_927:5218)" stroke-width="1.4151"/>
<path opacity="0.724138" d="M111.906 -263.55C109.442 -265.204 106.585 -266.181 103.624 -266.381L-128.997 -282.133C-131.959 -282.334 -134.921 -281.751 -137.586 -280.444L-346.917 -177.775C-349.582 -176.468 -351.856 -174.482 -353.51 -172.018L-483.462 21.5621C-485.117 24.0265 -486.093 26.8829 -486.294 29.8443L-502.045 262.465C-502.246 265.427 -501.663 268.389 -500.356 271.054L-397.687 480.385C-396.38 483.05 -394.395 485.324 -391.93 486.978L-198.35 616.93C-195.886 618.585 -193.029 619.561 -190.068 619.762L42.553 635.514C45.5144 635.714 48.4765 635.131 51.1414 633.824L260.473 531.155C263.138 529.848 265.412 527.863 267.066 525.398L397.018 331.818C398.672 329.354 399.649 326.498 399.849 323.536L415.601 90.9151C415.802 87.9537 415.219 84.9917 413.912 82.3268L311.243 -127.005C309.936 -129.67 307.95 -131.944 305.486 -133.598L111.906 -263.55Z" stroke="url(#paint20_linear_927:5218)" stroke-width="1.4151"/>
<path opacity="0.758621" d="M86.5654 -263.717C84.0178 -265.24 81.1142 -266.066 78.1464 -266.111L-151.026 -269.606C-153.993 -269.652 -156.921 -268.915 -159.514 -267.47L-359.73 -155.911C-362.323 -154.466 -364.49 -152.365 -366.013 -149.817L-483.626 46.9039C-485.149 49.4515 -485.975 52.3551 -486.02 55.323L-489.515 284.495C-489.56 287.463 -488.824 290.39 -487.379 292.983L-375.82 493.199C-374.375 495.792 -372.274 497.959 -369.726 499.482L-173.005 617.095C-170.457 618.618 -167.554 619.444 -164.586 619.489L64.5859 622.985C67.5538 623.03 70.4812 622.293 73.0741 620.848L273.29 509.289C275.883 507.845 278.05 505.743 279.573 503.195L397.186 306.474C398.709 303.927 399.535 301.023 399.58 298.055L403.076 68.8834C403.121 65.9155 402.384 62.9881 400.939 60.3952L289.38 -139.821C287.936 -142.414 285.834 -144.581 283.286 -146.104L86.5654 -263.717Z" stroke="url(#paint21_linear_927:5218)" stroke-width="1.4151"/>
<path opacity="0.793103" d="M61.6353 -262.456C59.0115 -263.844 56.0686 -264.517 53.1025 -264.407L-171.986 -256.05C-174.952 -255.94 -177.837 -255.051 -180.35 -253.472L-371.104 -133.691C-373.618 -132.113 -375.672 -129.901 -377.059 -127.277L-482.366 71.8336C-483.754 74.4574 -484.427 77.4003 -484.316 80.3664L-475.96 305.455C-475.85 308.421 -474.961 311.306 -473.382 313.819L-353.601 504.573C-352.023 507.087 -349.81 509.141 -347.187 510.528L-148.076 615.835C-145.452 617.223 -142.51 617.895 -139.543 617.785L85.5446 609.429C88.5107 609.319 91.3956 608.43 93.9093 606.851L284.663 487.07C287.177 485.492 289.231 483.279 290.618 480.656L395.925 281.545C397.313 278.921 397.986 275.978 397.875 273.012L389.519 47.9243C389.409 44.9581 388.52 42.0732 386.941 39.5595L267.16 -151.194C265.582 -153.708 263.369 -155.762 260.746 -157.149L61.6353 -262.456Z" stroke="url(#paint22_linear_927:5218)" stroke-width="1.4151"/>
<path opacity="0.827586" d="M37.1937 -259.814C34.5008 -261.062 31.5268 -261.58 28.5705 -261.315L-191.832 -241.543C-194.789 -241.278 -197.623 -240.239 -200.051 -238.531L-381.039 -111.207C-383.467 -109.499 -385.402 -107.182 -386.65 -104.489L-479.729 96.2711C-480.977 98.9639 -481.495 101.938 -481.23 104.894L-461.458 325.297C-461.192 328.253 -460.154 331.088 -458.446 333.515L-331.121 514.504C-329.414 516.931 -327.097 518.867 -324.404 520.115L-123.644 613.193C-120.951 614.442 -117.977 614.959 -115.02 614.694L105.382 594.922C108.339 594.657 111.173 593.618 113.601 591.911L294.589 464.586C297.017 462.878 298.952 460.562 300.2 457.869L393.279 257.108C394.527 254.416 395.045 251.442 394.78 248.485L375.008 28.0825C374.742 25.1262 373.704 22.2918 371.996 19.8642L244.671 -161.124C242.964 -163.552 240.647 -165.487 237.954 -166.736L37.1937 -259.814Z" stroke="url(#paint23_linear_927:5218)" stroke-width="1.4151"/>
<path opacity="0.862069" d="M13.3298 -255.837C10.5753 -256.943 7.57828 -257.304 4.63991 -256.885L-210.51 -226.164C-213.449 -225.744 -216.225 -224.559 -218.56 -222.726L-389.525 -88.5461C-391.86 -86.7136 -393.671 -84.2987 -394.777 -81.5442L-475.747 120.142C-476.853 122.896 -477.215 125.893 -476.795 128.832L-446.074 343.982C-445.655 346.92 -444.469 349.697 -442.636 352.032L-308.456 522.997C-306.624 525.332 -304.209 527.143 -301.454 528.249L-99.7684 609.219C-97.0139 610.325 -94.0169 610.686 -91.0785 610.267L124.072 579.546C127.01 579.126 129.786 577.941 132.121 576.108L303.087 441.928C305.421 440.095 307.233 437.681 308.339 434.926L389.309 233.24C390.415 230.486 390.776 227.488 390.356 224.55L359.636 9.39979C359.216 6.46142 358.03 3.68526 356.198 1.35034L222.018 -169.615C220.185 -171.95 217.77 -173.761 215.016 -174.867L13.3298 -255.837Z" stroke="url(#paint24_linear_927:5218)" stroke-width="1.4151"/>
<path opacity="0.896552" d="M-9.90569 -250.584C-12.7143 -251.544 -15.7261 -251.748 -18.6385 -251.175L-228.005 -209.999C-230.918 -209.427 -233.628 -208.097 -235.864 -206.145L-396.593 -65.8028C-398.828 -63.8506 -400.511 -61.3442 -401.471 -58.5357L-470.495 143.369C-471.456 146.177 -471.659 149.189 -471.087 152.102L-429.911 361.468C-429.338 364.381 -428.009 367.091 -426.057 369.327L-285.715 530.056C-283.762 532.292 -281.256 533.974 -278.447 534.934L-76.5429 603.959C-73.7343 604.919 -70.7224 605.123 -67.8101 604.55L141.557 563.374C144.469 562.802 147.179 561.472 149.415 559.52L310.144 419.178C312.38 417.226 314.062 414.719 315.023 411.911L384.047 210.006C385.007 207.197 385.211 204.186 384.638 201.273L343.463 -8.09333C342.89 -11.0057 341.561 -13.716 339.608 -15.9518L199.266 -176.681C197.314 -178.917 194.807 -180.599 191.999 -181.559L-9.90569 -250.584Z" stroke="url(#paint25_linear_927:5218)" stroke-width="1.4151"/>
<path opacity="0.931035" d="M-32.4276 -244.098C-35.2826 -244.91 -38.301 -244.956 -41.1794 -244.232L-244.268 -193.121C-247.147 -192.396 -249.784 -190.927 -251.914 -188.86L-402.239 -43.0523C-404.37 -40.9857 -405.919 -38.3947 -406.731 -35.5398L-464.011 165.896C-464.823 168.751 -464.869 171.769 -464.145 174.648L-413.034 377.737C-412.309 380.615 -410.84 383.252 -408.774 385.383L-262.965 535.707C-260.899 537.838 -258.308 539.387 -255.453 540.199L-54.0171 597.48C-51.1621 598.292 -48.1438 598.338 -45.2653 597.613L157.824 546.502C160.702 545.778 163.339 544.308 165.47 542.242L315.794 396.434C317.925 394.367 319.474 391.776 320.286 388.921L377.567 187.486C378.379 184.631 378.425 181.612 377.7 178.734L326.589 -24.3552C325.865 -27.2336 324.395 -29.8707 322.329 -32.0012L176.521 -182.326C174.454 -184.456 171.863 -186.006 169.008 -186.817L-32.4276 -244.098Z" stroke="url(#paint26_linear_927:5218)" stroke-width="1.4151"/>
<path opacity="0.965517" d="M-54.1811 -236.465C-57.0746 -237.126 -60.0913 -237.014 -62.9278 -236.14L-259.284 -175.635C-262.12 -174.761 -264.677 -173.155 -266.696 -170.98L-406.493 -20.4032C-408.512 -18.2279 -409.923 -15.5594 -410.585 -12.6659L-456.364 187.636C-457.025 190.529 -456.913 193.546 -456.039 196.383L-395.534 392.738C-394.66 395.575 -393.054 398.131 -390.879 400.151L-240.302 539.947C-238.127 541.967 -235.458 543.378 -232.565 544.039L-32.2632 589.818C-29.3696 590.48 -26.353 590.368 -23.5164 589.494L172.839 528.988C175.676 528.114 178.232 526.509 180.252 524.334L320.048 373.757C322.068 371.582 323.479 368.913 324.141 366.02L369.919 165.718C370.581 162.824 370.469 159.808 369.595 156.971L309.089 -39.3846C308.215 -42.2212 306.61 -44.7777 304.435 -46.7972L153.858 -186.594C151.683 -188.613 149.014 -190.024 146.121 -190.686L-54.1811 -236.465Z" stroke="url(#paint27_linear_927:5218)" stroke-width="1.4151"/>
<path d="M-75.1498 -228.18C-78.074 -228.689 -81.0807 -228.419 -83.8676 -227.398L-273.332 -157.966C-276.119 -156.944 -278.588 -155.207 -280.491 -152.929L-409.856 1.93313C-411.759 4.21108 -413.028 6.94979 -413.537 9.874L-448.139 208.671C-448.648 211.595 -448.379 214.602 -447.357 217.389L-377.925 406.854C-376.904 409.641 -375.167 412.11 -372.889 414.012L-218.026 543.377C-215.748 545.28 -213.01 546.55 -210.085 547.059L-11.2882 581.661C-8.36396 582.17 -5.3573 581.9 -2.57037 580.879L186.894 511.447C189.681 510.425 192.15 508.688 194.053 506.41L323.418 351.548C325.321 349.27 326.59 346.531 327.099 343.607L361.701 144.81C362.21 141.885 361.941 138.879 360.919 136.092L291.487 -53.3727C290.466 -56.1596 288.729 -58.6286 286.451 -60.5315L131.588 -189.896C129.31 -191.799 126.572 -193.069 123.647 -193.578L-75.1498 -228.18Z" stroke="url(#paint28_linear_927:5218)" stroke-width="1.4151"/>
<defs>
<linearGradient id="paint0_linear_927:5218" x1="566.582" y1="56.8589" x2="-653.015" y2="296.714" gradientUnits="userSpaceOnUse">
<stop stop-color="#9FD49A"/>
<stop offset="1" stop-color="#9FD49A" stop-opacity="0"/>
</linearGradient>
<linearGradient id="paint1_linear_927:5218" x1="552.059" y1="26.9701" x2="-638.494" y2="326.595" gradientUnits="userSpaceOnUse">
<stop stop-color="#9FD49A"/>
<stop offset="1" stop-color="#9FD49A" stop-opacity="0"/>
</linearGradient>
<linearGradient id="paint2_linear_927:5218" x1="536.098" y1="-1.72784" x2="-622.537" y2="355.295" gradientUnits="userSpaceOnUse">
<stop stop-color="#9FD49A"/>
<stop offset="1" stop-color="#9FD49A" stop-opacity="0"/>
</linearGradient>
<linearGradient id="paint3_linear_927:5218" x1="518.789" y1="-29.1728" x2="-605.224" y2="382.741" gradientUnits="userSpaceOnUse">
<stop stop-color="#9FD49A"/>
<stop offset="1" stop-color="#9FD49A" stop-opacity="0"/>
</linearGradient>
<linearGradient id="paint4_linear_927:5218" x1="500.216" y1="-55.3038" x2="-586.644" y2="408.869" gradientUnits="userSpaceOnUse">
<stop stop-color="#9FD49A"/>
<stop offset="1" stop-color="#9FD49A" stop-opacity="0"/>
</linearGradient>
<linearGradient id="paint5_linear_927:5218" x1="480.466" y1="-80.06" x2="-566.891" y2="433.629" gradientUnits="userSpaceOnUse">
<stop stop-color="#9FD49A"/>
<stop offset="1" stop-color="#9FD49A" stop-opacity="0"/>
</linearGradient>
<linearGradient id="paint6_linear_927:5218" x1="459.63" y1="-103.395" x2="-546.058" y2="456.966" gradientUnits="userSpaceOnUse">
<stop stop-color="#9FD49A"/>
<stop offset="1" stop-color="#9FD49A" stop-opacity="0"/>
</linearGradient>
<linearGradient id="paint7_linear_927:5218" x1="437.804" y1="-125.264" x2="-524.237" y2="478.836" gradientUnits="userSpaceOnUse">
<stop stop-color="#9FD49A"/>
<stop offset="1" stop-color="#9FD49A" stop-opacity="0"/>
</linearGradient>
<linearGradient id="paint8_linear_927:5218" x1="415.088" y1="-145.63" x2="-501.519" y2="499.198" gradientUnits="userSpaceOnUse">
<stop stop-color="#9FD49A"/>
<stop offset="1" stop-color="#9FD49A" stop-opacity="0"/>
</linearGradient>
<linearGradient id="paint9_linear_927:5218" x1="391.578" y1="-164.459" x2="-478.003" y2="518.022" gradientUnits="userSpaceOnUse">
<stop stop-color="#9FD49A"/>
<stop offset="1" stop-color="#9FD49A" stop-opacity="0"/>
</linearGradient>
<linearGradient id="paint10_linear_927:5218" x1="367.363" y1="-181.717" x2="-453.796" y2="535.287" gradientUnits="userSpaceOnUse">
<stop stop-color="#9FD49A"/>
<stop offset="1" stop-color="#9FD49A" stop-opacity="0"/>
</linearGradient>
<linearGradient id="paint11_linear_927:5218" x1="342.556" y1="-197.393" x2="-428.983" y2="550.965" gradientUnits="userSpaceOnUse">
<stop stop-color="#9FD49A"/>
<stop offset="1" stop-color="#9FD49A" stop-opacity="0"/>
</linearGradient>
<linearGradient id="paint12_linear_927:5218" x1="317.24" y1="-211.506" x2="-403.678" y2="565.006" gradientUnits="userSpaceOnUse">
<stop stop-color="#9FD49A"/>
<stop offset="1" stop-color="#9FD49A" stop-opacity="0"/>
</linearGradient>
<linearGradient id="paint13_linear_927:5218" x1="291.528" y1="-223.98" x2="-377.965" y2="577.469" gradientUnits="userSpaceOnUse">
<stop stop-color="#9FD49A"/>
<stop offset="1" stop-color="#9FD49A" stop-opacity="0"/>
</linearGradient>
<linearGradient id="paint14_linear_927:5218" x1="265.51" y1="-234.835" x2="-351.951" y2="588.328" gradientUnits="userSpaceOnUse">
<stop stop-color="#9FD49A"/>
<stop offset="1" stop-color="#9FD49A" stop-opacity="0"/>
</linearGradient>
<linearGradient id="paint15_linear_927:5218" x1="239.294" y1="-244.086" x2="-325.722" y2="597.577" gradientUnits="userSpaceOnUse">
<stop stop-color="#9FD49A"/>
<stop offset="1" stop-color="#9FD49A" stop-opacity="0"/>
</linearGradient>
<linearGradient id="paint16_linear_927:5218" x1="212.956" y1="-251.765" x2="-299.394" y2="605.198" gradientUnits="userSpaceOnUse">
<stop stop-color="#9FD49A"/>
<stop offset="1" stop-color="#9FD49A" stop-opacity="0"/>
</linearGradient>
<linearGradient id="paint17_linear_927:5218" x1="186.609" y1="-257.828" x2="-273.043" y2="611.266" gradientUnits="userSpaceOnUse">
<stop stop-color="#9FD49A"/>
<stop offset="1" stop-color="#9FD49A" stop-opacity="0"/>
</linearGradient>
<linearGradient id="paint18_linear_927:5218" x1="160.338" y1="-262.328" x2="-246.772" y2="615.767" gradientUnits="userSpaceOnUse">
<stop stop-color="#9FD49A"/>
<stop offset="1" stop-color="#9FD49A" stop-opacity="0"/>
</linearGradient>
<linearGradient id="paint19_linear_927:5218" x1="134.231" y1="-265.319" x2="-220.672" y2="618.696" gradientUnits="userSpaceOnUse">
<stop stop-color="#9FD49A"/>
<stop offset="1" stop-color="#9FD49A" stop-opacity="0"/>
</linearGradient>
<linearGradient id="paint20_linear_927:5218" x1="108.381" y1="-266.768" x2="-194.825" y2="620.149" gradientUnits="userSpaceOnUse">
<stop stop-color="#9FD49A"/>
<stop offset="1" stop-color="#9FD49A" stop-opacity="0"/>
</linearGradient>
<linearGradient id="paint21_linear_927:5218" x1="82.877" y1="-266.746" x2="-169.317" y2="620.125" gradientUnits="userSpaceOnUse">
<stop stop-color="#9FD49A"/>
<stop offset="1" stop-color="#9FD49A" stop-opacity="0"/>
</linearGradient>
<linearGradient id="paint22_linear_927:5218" x1="57.7933" y1="-265.289" x2="-144.234" y2="618.668" gradientUnits="userSpaceOnUse">
<stop stop-color="#9FD49A"/>
<stop offset="1" stop-color="#9FD49A" stop-opacity="0"/>
</linearGradient>
<linearGradient id="paint23_linear_927:5218" x1="33.2088" y1="-262.441" x2="-119.659" y2="615.821" gradientUnits="userSpaceOnUse">
<stop stop-color="#9FD49A"/>
<stop offset="1" stop-color="#9FD49A" stop-opacity="0"/>
</linearGradient>
<linearGradient id="paint24_linear_927:5218" x1="9.21287" y1="-258.252" x2="-95.6515" y2="611.634" gradientUnits="userSpaceOnUse">
<stop stop-color="#9FD49A"/>
<stop offset="1" stop-color="#9FD49A" stop-opacity="0"/>
</linearGradient>
<linearGradient id="paint25_linear_927:5218" x1="-14.1434" y1="-252.78" x2="-72.3052" y2="606.155" gradientUnits="userSpaceOnUse">
<stop stop-color="#9FD49A"/>
<stop offset="1" stop-color="#9FD49A" stop-opacity="0"/>
</linearGradient>
<linearGradient id="paint26_linear_927:5218" x1="-36.7744" y1="-246.07" x2="-49.6703" y2="599.452" gradientUnits="userSpaceOnUse">
<stop stop-color="#9FD49A"/>
<stop offset="1" stop-color="#9FD49A" stop-opacity="0"/>
</linearGradient>
<linearGradient id="paint27_linear_927:5218" x1="-58.6251" y1="-238.206" x2="-27.8191" y2="591.56" gradientUnits="userSpaceOnUse">
<stop stop-color="#9FD49A"/>
<stop offset="1" stop-color="#9FD49A" stop-opacity="0"/>
</linearGradient>
<linearGradient id="paint28_linear_927:5218" x1="-79.6789" y1="-229.687" x2="-6.75905" y2="583.167" gradientUnits="userSpaceOnUse">
<stop stop-color="#9FD49A"/>
<stop offset="1" stop-color="#9FD49A" stop-opacity="0"/>
</linearGradient>
</defs>
</svg>
