<svg width="15" height="16" viewBox="0 0 15 16" fill="none" xmlns="http://www.w3.org/2000/svg">
<path d="M14.5625 7.0625C14.6875 6.34375 14.5938 5.65625 14.2812 5.09375C14.375 4.34375 14.1562 3.5625 13.7188 3C13.6875 1.25 12.625 0 10.2188 0C10 0 9.75 0.03125 9.5 0.03125C6.28125 0.03125 5.25 1.25 4 1.25H3.65625C3.46875 1.125 3.25 1 3 1H1C0.4375 1 0 1.46875 0 2V9.5C0 10.0625 0.4375 10.5 1 10.5H3C3.34375 10.5 3.6875 10.3125 3.84375 10H4.0625C4.65625 10.5312 5.5 11.9062 6.21875 12.625C6.65625 13.0625 6.53125 16 8.46875 16C10.25 16 11.4375 15.0312 11.4375 12.75C11.4375 12.1562 11.3125 11.6875 11.1562 11.2812H12.3125C13.8125 11.2812 15 10 15 8.625C15 8 14.8438 7.53125 14.5625 7.0625ZM2 9.25C1.5625 9.25 1.25 8.9375 1.25 8.5C1.25 8.09375 1.5625 7.75 2 7.75C2.40625 7.75 2.75 8.09375 2.75 8.5C2.75 8.9375 2.40625 9.25 2 9.25ZM12.3125 9.78125H9.0625C9.0625 10.9688 9.9375 11.5312 9.9375 12.75C9.9375 13.5 9.9375 14.5 8.46875 14.5C7.875 13.9375 8.15625 12.4375 7.28125 11.5625C6.4375 10.7188 5.21875 8.5 4.3125 8.5H4V2.6875C5.65625 2.6875 7.125 1.53125 9.34375 1.53125H10.5312C11.625 1.53125 12.4375 2.0625 12.1875 3.5625C12.6562 3.84375 13.0312 4.71875 12.625 5.375C13.3125 6 13.2188 6.96875 12.7812 7.4375C13.0938 7.4375 13.5 8.03125 13.5 8.59375C13.4688 9.1875 12.9688 9.78125 12.3125 9.78125Z" fill="black"/>
</svg>
