<svg width="62" height="62" viewBox="0 0 62 62" fill="none" xmlns="http://www.w3.org/2000/svg">
<circle cx="31" cy="31" r="31" fill="#F1F1F1"/>
<path d="M30.875 31.25C33.3359 31.25 35.375 29.2461 35.375 26.75C35.375 24.2891 33.3359 22.25 30.875 22.25C28.3789 22.25 26.375 24.2891 26.375 26.75C26.375 29.2461 28.3789 31.25 30.875 31.25ZM34.0039 32.375H33.4062C32.6328 32.7617 31.7891 32.9375 30.875 32.9375C29.9609 32.9375 29.082 32.7617 28.3086 32.375H27.7109C25.1094 32.375 23 34.5195 23 37.1211V38.5625C23 39.5117 23.7383 40.25 24.6875 40.25H34.3203C34.25 40.0391 34.2148 39.7578 34.25 39.5117L34.4961 37.3672L34.5312 36.9805L34.8125 36.6992L37.5195 33.9922C36.6758 33.0078 35.4102 32.375 34.0039 32.375ZM35.5859 37.5078L35.375 39.6523C35.3398 40.0039 35.6211 40.3203 35.9727 40.25L38.1172 40.0391L42.9688 35.1875L40.4375 32.6562L35.5859 37.5078ZM45.2539 31.707L43.918 30.3711C43.5664 30.0547 43.0391 30.0547 42.7227 30.3711L41.3867 31.707L41.2461 31.8477L43.7773 34.3789L45.2539 32.9023C45.5703 32.5859 45.5703 32.0586 45.2539 31.707Z" fill="#A4A4A4"/>
</svg>
