<svg width="21" height="21" viewBox="0 0 21 21" fill="none" xmlns="http://www.w3.org/2000/svg">
<path d="M4.82799 16.8535L4.75611 16.9637L4.85601 17.0494C6.36463 18.3425 8.34671 19.1177 10.5 19.1177C12.6113 19.1177 14.5933 18.3422 16.1017 17.0494L16.2015 16.9637L16.1297 16.8535C15.4677 15.8386 14.3219 15.1784 13.0455 15.1344L13.0219 15.1335L12.9991 15.14C12.1214 15.3908 11.2886 15.5153 10.5 15.5153C9.66872 15.5153 8.83584 15.3907 7.95855 15.14L7.93835 15.1343H7.91734C6.63353 15.1343 5.48773 15.8419 4.82799 16.8535ZM17.2403 15.5031L17.3608 15.6588L17.4789 15.5013C18.5145 14.1205 19.1177 12.3954 19.1177 10.5C19.1177 5.7599 15.2401 1.88226 10.5 1.88226C5.71707 1.88226 1.88226 5.76039 1.88226 10.5C1.88226 12.3929 2.44175 14.1186 3.47879 15.5013L3.5969 15.6588L3.7174 15.5031C4.70734 14.2244 6.27371 13.3597 8.04436 13.3597C8.12838 13.3597 8.23324 13.3811 8.37634 13.4205C8.4375 13.4373 8.50286 13.4566 8.57462 13.4777C8.58552 13.481 8.59656 13.4842 8.60776 13.4875C8.69213 13.5124 8.78411 13.5392 8.88375 13.5662C9.28414 13.6744 9.80578 13.7831 10.5 13.7831C11.1735 13.7831 11.6848 13.6742 12.0797 13.566C12.178 13.5391 12.2689 13.5123 12.3525 13.4874L12.3778 13.4799C12.4519 13.4578 12.5192 13.4378 12.5822 13.4204C12.7244 13.3811 12.8293 13.3597 12.9133 13.3597C14.684 13.3597 16.2503 14.2244 17.2403 15.5031ZM6.58548 8.12903C6.58548 5.96792 8.33889 4.21452 10.5 4.21452C12.6611 4.21452 14.4145 5.96792 14.4145 8.12903C14.4145 10.2901 12.6611 12.0435 10.5 12.0435C8.33889 12.0435 6.58548 10.2901 6.58548 8.12903ZM8.31774 8.12903C8.31774 9.35502 9.27401 10.3113 10.5 10.3113C11.6816 10.3113 12.6823 9.35705 12.6823 8.12903C12.6823 6.94538 11.6837 5.94677 10.5 5.94677C9.27199 5.94677 8.31774 6.94743 8.31774 8.12903ZM0.15 10.5C0.15 4.78244 4.78244 0.15 10.5 0.15C16.2176 0.15 20.85 4.78244 20.85 10.5C20.85 16.2176 16.2176 20.85 10.5 20.85C4.78244 20.85 0.15 16.2176 0.15 10.5Z" fill="#99ACF1" stroke="#FCFCFC" stroke-width="0.3"/>
</svg>
