<svg width="53" height="691" viewBox="0 0 53 691" fill="none" xmlns="http://www.w3.org/2000/svg">
<g clip-path="url(#clip0)">
<path fill-rule="evenodd" clip-rule="evenodd" d="M41 487.538C36.3268 487.538 32.5385 491.327 32.5385 496C32.5385 500.673 36.3268 504.462 41 504.462C45.6732 504.462 49.4615 500.673 49.4615 496C49.4615 491.327 45.6732 487.538 41 487.538ZM31 496C31 490.477 35.4772 486 41 486C46.5228 486 51 490.477 51 496C51 501.523 46.5228 506 41 506C35.4772 506 31 501.523 31 496Z" fill="#365CE6"/>
<path fill-rule="evenodd" clip-rule="evenodd" d="M41 490.103C41.4249 490.103 41.7693 490.447 41.7693 490.872V496C41.7693 496.204 41.6882 496.4 41.544 496.544L38.467 499.621C38.1666 499.921 37.6796 499.921 37.3792 499.621C37.0788 499.32 37.0788 498.833 37.3792 498.533L40.2308 495.681V490.872C40.2308 490.447 40.5752 490.103 41 490.103Z" fill="#365CE6"/>
<path d="M41.3142 532.49L40.6158 532.217L41.3142 532.49ZM32.7791 527.138L32.0482 527.306L32.7791 527.138ZM32.7757 522.226L32.0448 522.058L32.0448 522.058L32.7757 522.226ZM49.2476 522.447L49.9786 522.279L49.9786 522.279L49.2476 522.447ZM49.2476 526.902L48.5167 526.734L49.2476 526.902ZM38.3159 533.823L38.6108 533.134L38.6108 533.134L38.3159 533.823ZM38.6895 516.271L38.8641 517.001L38.8641 517.001L38.6895 516.271ZM43.283 516.271L43.1084 517.001L43.283 516.271ZM38.1978 533.773L37.9029 534.462L37.9029 534.462L38.1978 533.773ZM43.6641 516.363L43.8387 515.633L43.6641 516.363ZM49.1588 522.061L48.4279 522.229L48.4279 522.229L49.1588 522.061ZM38.4665 516.325L38.2919 515.595L38.2919 515.595L38.4665 516.325ZM37.6963 521.308C37.2821 521.308 36.9463 521.644 36.9463 522.058C36.9463 522.472 37.2821 522.808 37.6963 522.808V521.308ZM43.7279 522.808C44.1422 522.808 44.4779 522.472 44.4779 522.058C44.4779 521.644 44.1422 521.308 43.7279 521.308V522.808ZM37.6963 524.764C37.2821 524.764 36.9463 525.1 36.9463 525.514C36.9463 525.928 37.2821 526.264 37.6963 526.264V524.764ZM41.5346 526.264C41.9488 526.264 42.2846 525.928 42.2846 525.514C42.2846 525.1 41.9488 524.764 41.5346 524.764V526.264ZM38.6411 517.054L38.8641 517.001L38.5149 515.542L38.2919 515.595L38.6411 517.054ZM43.1084 517.001L43.4895 517.092L43.8387 515.633L43.4576 515.542L43.1084 517.001ZM38.6108 533.134L38.4926 533.083L37.9029 534.462L38.0211 534.513L38.6108 533.134ZM48.4279 522.229L48.5167 522.615L49.9786 522.279L49.8897 521.893L48.4279 522.229ZM43.1721 531.177H42.1107V532.677H43.1721V531.177ZM42.1107 531.177C41.4324 531.177 40.8529 531.611 40.6158 532.217L42.0127 532.763C42.0406 532.692 42.092 532.677 42.1107 532.677V531.177ZM33.51 526.97C33.1653 525.47 33.1624 523.892 33.5067 522.394L32.0448 522.058C31.6493 523.779 31.6531 525.587 32.0482 527.306L33.51 526.97ZM48.5167 522.615C48.8278 523.969 48.8278 525.381 48.5167 526.734L49.9786 527.07C50.3405 525.496 50.3405 523.854 49.9786 522.279L48.5167 522.615ZM38.0211 534.513C39.6131 535.194 41.3891 534.358 42.0127 532.763L40.6158 532.217C40.2766 533.084 39.365 533.456 38.6108 533.134L38.0211 534.513ZM38.8641 517.001C40.2611 516.666 41.7114 516.666 43.1084 517.001L43.4576 515.542C41.8311 515.153 40.1415 515.153 38.5149 515.542L38.8641 517.001ZM38.4926 533.083C36.0145 532.024 34.1464 529.738 33.51 526.97L32.0482 527.306C32.7857 530.515 34.9592 533.204 37.9029 534.462L38.4926 533.083ZM48.5167 526.734C47.912 529.365 45.6859 531.177 43.1721 531.177V532.677C46.4318 532.677 49.2281 530.335 49.9786 527.07L48.5167 526.734ZM43.4895 517.092C45.91 517.671 47.8349 519.649 48.4279 522.229L49.8897 521.893C49.1765 518.79 46.8441 516.353 43.8387 515.633L43.4895 517.092ZM38.2919 515.595C35.1897 516.338 32.7813 518.854 32.0448 522.058L33.5067 522.394C34.1229 519.713 36.1238 517.657 38.6411 517.054L38.2919 515.595ZM37.6963 522.808H43.7279V521.308H37.6963V522.808ZM37.6963 526.264H41.5346V524.764H37.6963V526.264Z" fill="#365CE6"/>
<path fill-rule="evenodd" clip-rule="evenodd" d="M42.4222 463.129H47.4L43.6667 468.158L39.5778 473.421V466.871H34.6L38.7143 461.725L42.4222 456.579V463.129ZM37.4335 460.778L41.1183 455.664C41.5217 455.104 42.2457 454.866 42.9089 455.075C43.5721 455.284 44.0222 455.892 44.0222 456.579V461.55H47.4C48.0028 461.55 48.5544 461.884 48.827 462.415C49.0996 462.945 49.0469 463.582 48.6907 464.062L44.9574 469.091C44.9505 469.1 44.9435 469.109 44.9364 469.119L40.8476 474.382C40.4304 474.919 39.713 475.134 39.0638 474.916C38.4146 474.699 37.9778 474.098 37.9778 473.421V468.45H34.6C33.9869 468.45 33.4277 468.105 33.1603 467.56C32.8928 467.016 32.9641 466.368 33.3439 465.893L37.4335 460.778Z" fill="#365CE6"/>
<path fill-rule="evenodd" clip-rule="evenodd" d="M34.8333 644.615C34.1221 644.615 33.5455 645.189 33.5455 645.897V657.179C33.5455 657.888 34.1221 658.462 34.8333 658.462H43.0758C43.787 658.462 44.3636 657.888 44.3636 657.179V649.311C44.3636 648.971 44.2279 648.645 43.9864 648.405L40.5571 644.991C40.3156 644.75 39.988 644.615 39.6465 644.615H34.8333ZM32 645.897C32 644.34 33.2685 643.077 34.8333 643.077H39.6465C40.3979 643.077 41.1186 643.374 41.6499 643.903L45.0792 647.317C45.6106 647.846 45.9091 648.563 45.9091 649.311V657.179C45.9091 658.737 44.6406 660 43.0758 660H34.8333C33.2685 660 32 658.737 32 657.179V645.897Z" fill="#365CE6"/>
<path fill-rule="evenodd" clip-rule="evenodd" d="M36.1212 640.769C36.1212 640.344 36.4672 640 36.8939 640H41.1919C41.9434 640 42.664 640.297 43.1954 640.826L48.1701 645.778C48.7015 646.307 49 647.025 49 647.773V655.128C49 655.553 48.654 655.897 48.2273 655.897C47.8005 655.897 47.4545 655.553 47.4545 655.128V647.773C47.4545 647.433 47.3189 647.107 47.0773 646.866L42.1026 641.914C41.8611 641.674 41.5335 641.538 41.1919 641.538H36.8939C36.4672 641.538 36.1212 641.194 36.1212 640.769Z" fill="#365CE6"/>
<path d="M32.8333 591.248L33.5643 591.081L32.8333 591.248ZM32.8333 585.353L33.5643 585.521L32.8333 585.353ZM49.1667 585.353L48.4357 585.521L49.1667 585.353ZM49.1667 591.248L48.4357 591.081L49.1667 591.248ZM43.8801 596.659L44.0552 597.388L43.8801 596.659ZM38.1199 596.659L38.2949 595.93L38.1199 596.659ZM38.1199 579.943L38.2949 580.672L38.1199 579.943ZM43.8801 579.943L44.0552 579.214L43.8801 579.943ZM37.8201 579C37.8201 578.586 37.4843 578.25 37.0701 578.25C36.6559 578.25 36.3201 578.586 36.3201 579H37.8201ZM36.3201 581.514C36.3201 581.928 36.6559 582.264 37.0701 582.264C37.4843 582.264 37.8201 581.928 37.8201 581.514H36.3201ZM45.6799 579C45.6799 578.586 45.3441 578.25 44.9299 578.25C44.5157 578.25 44.1799 578.586 44.1799 579H45.6799ZM44.1799 581.514C44.1799 581.928 44.5157 582.264 44.9299 582.264C45.3441 582.264 45.6799 581.928 45.6799 581.514H44.1799ZM33.5643 591.081C33.1452 589.252 33.1452 587.349 33.5643 585.521L32.1022 585.186C31.6326 587.235 31.6326 589.367 32.1022 591.416L33.5643 591.081ZM48.4357 585.521C48.8548 587.349 48.8548 589.252 48.4357 591.081L49.8978 591.416C50.3674 589.367 50.3674 587.235 49.8978 585.186L48.4357 585.521ZM43.7051 595.93C41.9258 596.357 40.0742 596.357 38.2949 595.93L37.9448 597.388C39.9543 597.871 42.0458 597.871 44.0552 597.388L43.7051 595.93ZM38.2949 580.672C40.0742 580.245 41.9258 580.245 43.7051 580.672L44.0552 579.214C42.0458 578.731 39.9542 578.731 37.9448 579.214L38.2949 580.672ZM38.2949 595.93C35.9561 595.368 34.1177 593.495 33.5643 591.081L32.1022 591.416C32.7795 594.371 35.0374 596.69 37.9448 597.388L38.2949 595.93ZM44.0552 597.388C46.9626 596.69 49.2205 594.371 49.8978 591.416L48.4357 591.081C47.8823 593.495 46.0439 595.368 43.7051 595.93L44.0552 597.388ZM43.7051 580.672C46.0439 581.234 47.8823 583.106 48.4357 585.521L49.8978 585.186C49.2205 582.231 46.9626 579.911 44.0552 579.214L43.7051 580.672ZM37.9448 579.214C35.0374 579.911 32.7795 582.231 32.1022 585.186L33.5643 585.521C34.1177 583.106 35.9561 581.234 38.2949 580.672L37.9448 579.214ZM36.3201 579V581.514H37.8201V579H36.3201ZM44.1799 579V581.514H45.6799V579H44.1799Z" fill="#365CE6"/>
<path d="M36.9881 586.288C36.6736 586.018 36.2001 586.055 35.9306 586.369C35.661 586.684 35.6974 587.157 36.0119 587.427L36.9881 586.288ZM37.5 587.714L37.0119 588.284C37.2928 588.524 37.7072 588.524 37.9881 588.284L37.5 587.714ZM39.9881 586.569C40.3026 586.3 40.339 585.826 40.0694 585.512C39.7999 585.197 39.3264 585.161 39.0119 585.431L39.9881 586.569ZM36.9881 590.573C36.6736 590.304 36.2001 590.34 35.9306 590.655C35.661 590.969 35.6974 591.443 36.0119 591.712L36.9881 590.573ZM37.5 592L37.0119 592.569C37.2928 592.81 37.7072 592.81 37.9881 592.569L37.5 592ZM39.9881 590.855C40.3026 590.586 40.339 590.112 40.0694 589.798C39.7999 589.483 39.3264 589.447 39.0119 589.716L39.9881 590.855ZM42 586.536C41.5858 586.536 41.25 586.872 41.25 587.286C41.25 587.7 41.5858 588.036 42 588.036V586.536ZM45.5 588.036C45.9142 588.036 46.25 587.7 46.25 587.286C46.25 586.872 45.9142 586.536 45.5 586.536V588.036ZM42 590.821C41.5858 590.821 41.25 591.157 41.25 591.571C41.25 591.986 41.5858 592.321 42 592.321V590.821ZM45.5 592.321C45.9142 592.321 46.25 591.986 46.25 591.571C46.25 591.157 45.9142 590.821 45.5 590.821V592.321ZM36.0119 587.427L37.0119 588.284L37.9881 587.145L36.9881 586.288L36.0119 587.427ZM37.9881 588.284L39.9881 586.569L39.0119 585.431L37.0119 587.145L37.9881 588.284ZM36.0119 591.712L37.0119 592.569L37.9881 591.431L36.9881 590.573L36.0119 591.712ZM37.9881 592.569L39.9881 590.855L39.0119 589.716L37.0119 591.431L37.9881 592.569ZM42 588.036H45.5V586.536H42V588.036ZM42 592.321H45.5V590.821H42V592.321Z" fill="#365CE6"/>
<path fill-rule="evenodd" clip-rule="evenodd" d="M37.129 623.103C37.129 623.527 37.4757 623.872 37.9032 623.872H44.0968C44.5243 623.872 44.871 623.527 44.871 623.103C44.871 622.678 44.5243 622.333 44.0968 622.333H37.9032C37.4757 622.333 37.129 622.678 37.129 623.103Z" fill="#365CE6"/>
<path fill-rule="evenodd" clip-rule="evenodd" d="M37.129 619C37.129 619.425 37.4757 619.769 37.9032 619.769H41C41.4276 619.769 41.7742 619.425 41.7742 619C41.7742 618.575 41.4276 618.231 41 618.231H37.9032C37.4757 618.231 37.129 618.575 37.129 619Z" fill="#365CE6"/>
<path fill-rule="evenodd" clip-rule="evenodd" d="M37.9683 609.867C38.2894 609.344 38.8527 609 39.4879 609H42.5121C43.1473 609 43.7106 609.344 44.0317 609.867L44.598 610.788C45.1575 610.832 45.6881 610.879 46.1512 610.922C47.4998 611.049 48.5504 612.118 48.6563 613.455C48.7985 615.253 49 618.177 49 620.344C49 622.39 48.8208 624.712 48.6808 626.216C48.5583 627.533 47.5145 628.567 46.1922 628.692C44.7554 628.828 42.6198 629 41 629C39.3802 629 37.2446 628.828 35.8078 628.692C34.4855 628.567 33.4417 627.533 33.3192 626.216C33.1792 624.712 33 622.39 33 620.344C33 618.177 33.2015 615.253 33.3437 613.455C33.4496 612.118 34.5002 611.049 35.8488 610.922C36.3119 610.879 36.8425 610.832 37.402 610.788L37.9683 609.867ZM37.0244 612.362C36.6583 612.393 36.3109 612.424 35.9948 612.454C35.3994 612.51 34.9345 612.979 34.8873 613.576C34.7452 615.373 34.5484 618.244 34.5484 620.344C34.5484 622.318 34.7223 624.583 34.861 626.074C34.9147 626.652 35.3697 627.105 35.9544 627.161C37.3877 627.296 39.4598 627.462 41 627.462C42.5402 627.462 44.6123 627.296 46.0456 627.161C46.6303 627.105 47.0853 626.652 47.139 626.074C47.2777 624.583 47.4516 622.318 47.4516 620.344C47.4516 618.244 47.2548 615.373 47.1126 613.576C47.0655 612.979 46.6006 612.51 46.0052 612.454C45.6891 612.424 45.3417 612.393 44.9756 612.362C44.9352 612.58 44.8588 612.788 44.7521 612.976C44.4604 613.489 43.9092 613.897 43.2002 613.897H38.7998C38.0908 613.897 37.5396 613.489 37.2479 612.976C37.1412 612.788 37.0648 612.58 37.0244 612.362ZM39.4879 610.538C39.4329 610.538 39.3515 610.568 39.2898 610.669L38.6016 611.788C38.5915 611.805 38.5829 611.821 38.5756 611.837C38.5201 611.961 38.5316 612.106 38.596 612.219C38.6574 612.327 38.734 612.359 38.7998 612.359H43.2002C43.266 612.359 43.3426 612.327 43.404 612.219C43.4684 612.106 43.4799 611.961 43.4244 611.837C43.4171 611.821 43.4085 611.805 43.3984 611.788L42.7102 610.669C42.6485 610.568 42.5671 610.538 42.5121 610.538H39.4879Z" fill="#365CE6"/>
<path fill-rule="evenodd" clip-rule="evenodd" d="M30 669.759C30 669.34 30.3467 669 30.7744 669H31.5327C32.9646 669 34.1725 670.046 34.3501 671.439L34.5554 673.051H49.1928C50.2974 673.051 51.1435 674.014 50.9796 675.086L49.8726 682.324C49.6641 683.688 48.4701 684.696 47.0646 684.696H37.1989C35.7934 684.696 34.5995 683.688 34.391 682.324L33.106 673.923L33.1035 673.904L32.8133 671.628C32.7326 670.994 32.1836 670.519 31.5327 670.519H30.7744C30.3467 670.519 30 670.179 30 669.759ZM34.771 674.57L35.9226 682.099C36.0173 682.719 36.5601 683.177 37.1989 683.177H47.0646C47.7035 683.177 48.2462 682.719 48.341 682.099L49.448 674.86C49.4714 674.707 49.3506 674.57 49.1928 674.57H34.771Z" fill="#365CE6"/>
<path d="M48.3267 687.987C48.3267 688.547 47.8644 689 47.2942 689C46.724 689 46.2617 688.547 46.2617 687.987C46.2617 687.428 46.724 686.975 47.2942 686.975C47.8644 686.975 48.3267 687.428 48.3267 687.987Z" fill="#365CE6"/>
<path d="M38.0018 687.987C38.0018 688.547 37.5395 689 36.9693 689C36.3991 689 35.9368 688.547 35.9368 687.987C35.9368 687.428 36.3991 686.975 36.9693 686.975C37.5395 686.975 38.0018 687.428 38.0018 687.987Z" fill="#365CE6"/>
<path d="M20.1633 349.897C20.1633 350 20.1633 350.103 20.1633 350.308C20.1633 350.205 20.1633 350.205 20.1633 350.103C20.1633 350 20.1633 349.897 20.1633 349.897ZM3.63265 349.897V350C3.63265 350.103 3.63265 350.205 3.63265 350.205C3.63265 350.103 3.63265 350 3.63265 349.897Z" fill="#365CE6"/>
<path d="M21.4898 340.769C21.3878 339.436 20.2653 338.41 18.9388 338.308C16.898 338.103 14.0408 338 11.7959 338C9.55102 338 6.79592 338.103 4.7551 338.308C4.04082 338.308 3.53061 338.615 3.02041 339.128C2.61224 339.538 2.30612 340.154 2.30612 340.769C2.20408 342.41 2 344.667 2 346.41C2 348.154 2.20408 350.41 2.30612 352.051C2.40816 353.385 3.53061 354.41 4.85714 354.513C6.89796 354.718 9.7551 354.821 12 354.821C14.2449 354.821 17.102 354.615 19.1429 354.513C20.4694 354.41 21.4898 353.385 21.6939 352.051C21.898 350.41 22 348.154 22 346.41C22 344.667 21.6939 342.41 21.4898 340.769ZM20.1633 350.205C20.0612 350.513 19.7551 350.718 19.449 350.718H4.34694C4.04082 350.718 3.73469 350.513 3.63265 350.205C3.63265 350.103 3.63265 350.103 3.63265 350V349.897C3.73469 349.59 4.04082 349.282 4.34694 349.282H19.3469C19.7551 349.282 20.0612 349.59 20.0612 349.897V350C20.1633 350.103 20.1633 350.205 20.1633 350.205Z" fill="#365CE6"/>
<path d="M15.9796 358H7.81633C7.40816 358 7 357.692 7 357.179C7 356.667 7.30612 356.359 7.81633 356.359H15.9796C16.3878 356.359 16.7959 356.667 16.7959 357.179C16.7959 357.692 16.3878 358 15.9796 358Z" fill="#365CE6"/>
<path d="M3.63265 349.897C3.63265 350 3.63265 350.103 3.63265 350.308C3.63265 350.205 3.63265 350.205 3.63265 350.103C3.63265 350 3.63265 349.897 3.63265 349.897Z" fill="#365CE6"/>
<path d="M20.1633 350C20.1633 350.103 20.1633 350.205 20.1633 350.205C20.1633 350.103 20.1633 350 20.1633 349.795C20.1633 349.897 20.1633 350 20.1633 350Z" fill="#365CE6"/>
<path d="M22 675.162L20.8676 682.333C20.6618 683.747 19.5294 684.657 18.0882 684.657H8.20588C6.86765 684.657 5.63235 683.646 5.42647 682.333L4.19118 673.949L3.88235 671.626C3.77941 671.02 3.26471 670.616 2.54412 670.616H1.82353C1.41176 670.616 1 670.212 1 669.808C1 669.404 1.41176 669 1.82353 669H2.54412C3.98529 669 5.22059 670.01 5.32353 671.424L5.52941 673.04H20.1471C20.6618 673.04 21.1765 673.242 21.4853 673.646C21.8971 674.051 22 674.657 22 675.162Z" fill="#365CE6"/>
<path d="M18.2941 689C18.8626 689 19.3235 688.548 19.3235 687.99C19.3235 687.432 18.8626 686.98 18.2941 686.98C17.7256 686.98 17.2647 687.432 17.2647 687.99C17.2647 688.548 17.7256 689 18.2941 689Z" fill="#365CE6"/>
<path d="M8 689C8.56853 689 9.02941 688.548 9.02941 687.99C9.02941 687.432 8.56853 686.98 8 686.98C7.43147 686.98 6.97059 687.432 6.97059 687.99C6.97059 688.548 7.43147 689 8 689Z" fill="#365CE6"/>
<path fill-rule="evenodd" clip-rule="evenodd" d="M7.38358 579C7.75808 579 8.06166 579.312 8.06166 579.696V579.922C8.10586 579.91 8.15023 579.899 8.19476 579.888C10.0399 579.444 11.9601 579.444 13.8052 579.888C13.8498 579.899 13.8941 579.91 13.9383 579.922V579.696C13.9383 579.312 14.2419 579 14.6164 579C14.9909 579 15.2945 579.312 15.2945 579.696V580.429C17.2277 581.387 18.6726 583.199 19.1754 585.399C19.6082 587.292 19.6082 589.263 19.1754 591.156C18.5504 593.891 16.4698 596.026 13.8052 596.667C11.9601 597.111 10.0399 597.111 8.19476 596.667C5.53017 596.026 3.44963 593.891 2.82461 591.156C2.3918 589.263 2.3918 587.292 2.82461 585.399C3.32745 583.199 4.77233 581.387 6.70551 580.429V579.696C6.70551 579.312 7.00909 579 7.38358 579ZM10.0274 585.888C10.2393 585.671 10.2393 585.318 10.0274 585.101C9.81558 584.883 9.47211 584.883 9.26027 585.101L7.83564 586.563L7.31512 586.028C7.10327 585.811 6.7598 585.811 6.54796 586.028C6.33611 586.246 6.33611 586.598 6.54796 586.816L7.45206 587.743C7.66391 587.961 8.00737 587.961 8.21922 587.743L10.0274 585.888ZM11.9041 586.329C11.6045 586.329 11.3616 586.579 11.3616 586.886C11.3616 587.193 11.6045 587.443 11.9041 587.443H15.0685C15.3681 587.443 15.6109 587.193 15.6109 586.886C15.6109 586.579 15.3681 586.329 15.0685 586.329H11.9041ZM10.0274 590.527C10.2393 590.309 10.2393 589.957 10.0274 589.74C9.81558 589.522 9.47211 589.522 9.26027 589.74L7.83564 591.201L7.31512 590.667C7.10327 590.45 6.7598 590.45 6.54796 590.667C6.33611 590.885 6.33611 591.237 6.54796 591.454L7.45206 592.382C7.66391 592.6 8.00737 592.6 8.21922 592.382L10.0274 590.527ZM11.9041 590.968C11.6045 590.968 11.3616 591.217 11.3616 591.525C11.3616 591.832 11.6045 592.081 11.9041 592.081H15.0685C15.3681 592.081 15.6109 591.832 15.6109 591.525C15.6109 591.217 15.3681 590.968 15.0685 590.968H11.9041Z" fill="#365CE6"/>
<path fill-rule="evenodd" clip-rule="evenodd" d="M9.31745 516.325C6.34246 516.997 4.00813 519.284 3.29193 522.226C2.90031 523.836 2.90389 525.529 3.29551 527.138C4.0229 530.126 6.16258 532.614 9.03293 533.773L9.15805 533.823C10.4002 534.325 11.8231 533.721 12.3327 532.49C12.473 532.151 12.807 531.927 13.1761 531.927H14.2999C17.3564 531.927 20.0154 529.85 20.7328 526.902C21.0891 525.438 21.0891 523.911 20.7328 522.447L20.6387 522.061C19.9472 519.22 17.6933 517.012 14.8209 516.363L14.4173 516.271C12.8166 515.91 11.1543 515.91 9.55362 516.271L9.31745 516.325ZM8.50194 521.367C8.11716 521.367 7.80524 521.676 7.80524 522.058C7.80524 522.44 8.11716 522.749 8.50194 522.749H14.8884C15.2732 522.749 15.5851 522.44 15.5851 522.058C15.5851 521.676 15.2732 521.367 14.8884 521.367H8.50194ZM9.66312 524.823C9.27834 524.823 8.96642 525.132 8.96642 525.514C8.96642 525.896 9.27834 526.205 9.66312 526.205H13.7272C14.112 526.205 14.4239 525.896 14.4239 525.514C14.4239 525.132 14.112 524.823 13.7272 524.823H9.66312Z" fill="#365CE6"/>
<path d="M18.6613 613.433C18.5575 612.093 17.5204 611.062 16.1721 610.856C15.6535 610.856 15.1349 610.753 14.6163 610.753L14.0977 609.825C13.7866 609.309 13.1643 609 12.542 609H9.53417C8.91187 609 8.39328 609.309 7.97841 609.825L7.35611 610.753C6.83753 610.753 6.31894 610.856 5.80036 610.856C4.45204 610.959 3.41487 612.093 3.31115 613.433C3.10372 615.392 3 618.278 3 620.34C3 622.402 3.20743 624.67 3.31115 626.216C3.41487 627.557 4.45204 628.588 5.80036 628.691C7.2524 628.794 9.43045 629 10.9862 629C12.542 629 14.72 628.794 16.1721 628.691C17.5204 628.588 18.5575 627.557 18.6613 626.216C18.765 624.67 18.9724 622.299 18.9724 620.34C19.0761 618.278 18.8687 615.392 18.6613 613.433ZM8.497 611.784C8.60072 611.784 8.60072 611.784 8.497 611.784L9.22302 610.546C9.22302 610.443 9.32673 610.443 9.43045 610.443H12.4382C12.542 610.443 12.542 610.443 12.6457 610.546L13.3717 611.784V611.887C13.4754 611.99 13.3717 612.196 13.3717 612.299C13.3717 612.402 13.268 612.402 13.1643 612.402H8.80815C8.70443 612.402 8.70443 612.402 8.60072 612.299C8.497 612.093 8.497 611.99 8.497 611.784ZM7.8747 618.175H10.9862C11.4011 618.175 11.8159 618.485 11.8159 619C11.8159 619.515 11.5048 619.825 10.9862 619.825H7.8747C7.45983 619.825 7.04496 619.515 7.04496 619C7.04496 618.485 7.45983 618.175 7.8747 618.175ZM14.0977 623.948H7.8747C7.45983 623.948 7.04496 623.639 7.04496 623.124C7.04496 622.608 7.35611 622.299 7.8747 622.299H14.0977C14.5126 622.299 14.9275 622.608 14.9275 623.124C14.9275 623.639 14.5126 623.948 14.0977 623.948Z" fill="#365CE6"/>
<path d="M16.9989 649.286V657.143C16.9989 658.673 15.7637 660 14.1168 660H5.88213C4.33813 660 3 658.776 3 657.143V645.918C3 644.388 4.2352 643.061 5.88213 643.061H10.72C11.4405 643.061 12.1611 643.367 12.7787 643.878L16.1755 647.245C16.6901 647.857 16.9989 648.571 16.9989 649.286Z" fill="#365CE6"/>
<path d="M19.2635 655.918C18.8517 655.918 18.44 655.612 18.44 655.102V647.755C18.44 647.449 18.3371 647.143 18.0283 646.837L13.0875 641.939C12.8816 641.735 12.4699 641.531 12.1611 641.531H7.9408C7.52907 641.633 7.11733 641.224 7.11733 640.816C7.11733 640.408 7.52907 640 7.9408 640H12.264C12.9845 640 13.7051 640.306 14.2197 640.816L19.1605 645.714C19.6752 646.224 19.984 646.939 19.984 647.653V655.102C20.0869 655.51 19.6752 655.918 19.2635 655.918Z" fill="#365CE6"/>
<path d="M30.3529 69.0496L29.6227 69.2209L30.3529 69.0496ZM30.3529 62.9504L29.6227 62.7792L30.3529 62.9504ZM47.6471 62.9504L46.9169 63.1217L47.6471 62.9504ZM47.6471 69.0496L46.9169 68.8783L47.6471 69.0496ZM42.0496 74.6471L41.8783 73.9169L42.0496 74.6471ZM35.9504 74.6471L35.7792 75.3773L35.9504 74.6471ZM35.9504 57.3529L35.7792 56.6227L35.9504 57.3529ZM42.0496 57.3529L41.8783 58.0831L42.0496 57.3529ZM38.25 63.3847C38.25 63.7989 38.5858 64.1347 39 64.1347C39.4142 64.1347 39.75 63.7989 39.75 63.3847H38.25ZM39.75 61.8389C39.75 61.4247 39.4142 61.0889 39 61.0889C38.5858 61.0889 38.25 61.4247 38.25 61.8389H39.75ZM38.25 70.1611C38.25 70.5753 38.5858 70.9111 39 70.9111C39.4142 70.9111 39.75 70.5753 39.75 70.1611H38.25ZM39.75 68.6154C39.75 68.2012 39.4142 67.8654 39 67.8654C38.5858 67.8654 38.25 68.2012 38.25 68.6154H39.75ZM37.1101 67.9572C37.4688 67.7501 37.5917 67.2914 37.3846 66.9326C37.1775 66.5739 36.7188 66.451 36.3601 66.6581L37.1101 67.9572ZM35.0214 67.431C34.6627 67.6381 34.5398 68.0968 34.7469 68.4555C34.954 68.8143 35.4127 68.9372 35.7714 68.7301L35.0214 67.431ZM42.9786 64.569C43.3373 64.3619 43.4602 63.9032 43.2531 63.5445C43.046 63.1857 42.5873 63.0628 42.2286 63.2699L42.9786 64.569ZM40.89 64.0428C40.5313 64.2499 40.4084 64.7086 40.6155 65.0673C40.8226 65.426 41.2813 65.5489 41.64 65.3418L40.89 64.0428ZM36.3601 65.3419C36.7188 65.549 37.1775 65.4261 37.3846 65.0674C37.5917 64.7086 37.4688 64.2499 37.1101 64.0428L36.3601 65.3419ZM35.7714 63.2699C35.4127 63.0628 34.954 63.1857 34.7469 63.5445C34.5398 63.9032 34.6627 64.3619 35.0214 64.569L35.7714 63.2699ZM42.2286 68.7301C42.5873 68.9372 43.046 68.8143 43.2531 68.4555C43.4602 68.0968 43.3373 67.6381 42.9786 67.431L42.2286 68.7301ZM41.64 66.6582C41.2813 66.4511 40.8226 66.574 40.6155 66.9327C40.4084 67.2914 40.5313 67.7501 40.89 67.9572L41.64 66.6582ZM31.0831 68.8783C30.639 66.9851 30.639 65.0149 31.0831 63.1217L29.6227 62.7792C29.1258 64.8976 29.1258 67.1024 29.6227 69.2209L31.0831 68.8783ZM46.9169 63.1217C47.361 65.0149 47.361 66.9851 46.9169 68.8783L48.3773 69.2208C48.8742 67.1024 48.8742 64.8976 48.3773 62.7792L46.9169 63.1217ZM41.8783 73.9169C39.9851 74.361 38.0149 74.361 36.1217 73.9169L35.7792 75.3773C37.8976 75.8742 40.1024 75.8742 42.2208 75.3773L41.8783 73.9169ZM36.1217 58.0831C38.0149 57.639 39.9851 57.639 41.8783 58.0831L42.2208 56.6227C40.1024 56.1258 37.8976 56.1258 35.7792 56.6227L36.1217 58.0831ZM36.1217 73.9169C33.6216 73.3305 31.6695 71.3784 31.0831 68.8783L29.6227 69.2209C30.3392 72.2756 32.7244 74.6608 35.7792 75.3773L36.1217 73.9169ZM42.2208 75.3773C45.2756 74.6608 47.6608 72.2756 48.3773 69.2208L46.9169 68.8783C46.3305 71.3784 44.3784 73.3305 41.8783 73.9169L42.2208 75.3773ZM41.8783 58.0831C44.3784 58.6695 46.3305 60.6216 46.9169 63.1217L48.3773 62.7792C47.6608 59.7244 45.2756 57.3392 42.2208 56.6227L41.8783 58.0831ZM35.7792 56.6227C32.7244 57.3392 30.3392 59.7244 29.6227 62.7792L31.0831 63.1217C31.6695 60.6216 33.6216 58.6695 36.1217 58.0831L35.7792 56.6227ZM39.75 63.3847V61.8389H38.25V63.3847H39.75ZM39.75 70.1611V68.6154H38.25V70.1611H39.75ZM36.3601 66.6581L35.0214 67.431L35.7714 68.7301L37.1101 67.9572L36.3601 66.6581ZM42.2286 63.2699L40.89 64.0428L41.64 65.3418L42.9786 64.569L42.2286 63.2699ZM37.1101 64.0428L35.7714 63.2699L35.0214 64.569L36.3601 65.3419L37.1101 64.0428ZM42.9786 67.431L41.64 66.6582L40.89 67.9572L42.2286 68.7301L42.9786 67.431Z" fill="#365CE6"/>
<path d="M30 100.433C30 98.4308 31.4549 96.7254 33.432 96.4098L33.6101 96.3814C35.1934 96.1287 36.8066 96.1287 38.3899 96.3814L38.568 96.4098C40.5451 96.7254 42 98.4308 42 100.433C42 101.298 41.2984 102 40.433 102H31.567C30.7016 102 30 101.298 30 100.433Z" stroke="#365CE6" stroke-width="1.5"/>
<path d="M39.5 89.5C39.5 91.433 37.933 93 36 93C34.067 93 32.5 91.433 32.5 89.5C32.5 87.567 34.067 86 36 86C37.933 86 39.5 87.567 39.5 89.5Z" stroke="#365CE6" stroke-width="1.5"/>
<path d="M42 93C43.933 93 45.5 91.433 45.5 89.5C45.5 87.567 43.933 86 42 86M44.3899 102H46.433C47.2984 102 48 101.298 48 100.433C48 98.4308 46.5451 96.7254 44.568 96.4098V96.4098C44.4494 96.3909 44.3293 96.3814 44.2093 96.3814C43.8895 96.3814 43.7902 96.3814 43.2412 96.3814" stroke="#365CE6" stroke-width="1.5" stroke-linecap="round"/>
<path d="M27.4718 148.554L28.1922 148.346L28.1922 148.346L27.4718 148.554ZM27.4718 141.907L26.7513 141.698L26.7513 141.698L27.4718 141.907ZM44.5282 141.907L45.2487 141.698L45.2487 141.698L44.5282 141.907ZM44.5282 148.554L43.8078 148.346L43.8078 148.346L44.5282 148.554ZM40.8148 152.008L40.6747 151.271L40.8148 152.008ZM31.1852 152.008L31.3253 151.271L31.1852 152.008ZM31.1852 138.453L31.0451 137.717L31.1852 138.453ZM40.8148 138.453L40.9549 137.717L40.8148 138.453ZM27.5201 148.721L26.7996 148.93L26.7996 148.93L27.5201 148.721ZM44.48 148.721L45.2004 148.93L45.2004 148.93L44.48 148.721ZM44.48 141.74L43.7595 141.948L43.7595 141.948L44.48 141.74ZM27.5201 141.74L28.2405 141.948L28.2405 141.948L27.5201 141.74ZM36.75 152.923C36.75 152.509 36.4142 152.173 36 152.173C35.5858 152.173 35.25 152.509 35.25 152.923H36.75ZM35.25 156C35.25 156.414 35.5858 156.75 36 156.75C36.4142 156.75 36.75 156.414 36.75 156H35.25ZM33.3639 155.25C32.9496 155.25 32.6139 155.586 32.6139 156C32.6139 156.414 32.9496 156.75 33.3639 156.75V155.25ZM38.6361 156.75C39.0504 156.75 39.3861 156.414 39.3861 156C39.3861 155.586 39.0504 155.25 38.6361 155.25V156.75ZM43.7595 141.948L43.8078 142.115L45.2487 141.698L45.2004 141.531L43.7595 141.948ZM43.8078 148.346L43.7595 148.513L45.2004 148.93L45.2487 148.763L43.8078 148.346ZM28.2405 148.513L28.1922 148.346L26.7513 148.763L26.7996 148.93L28.2405 148.513ZM28.1922 142.115L28.2405 141.948L26.7996 141.531L26.7513 141.698L28.1922 142.115ZM28.1922 148.346C27.6026 146.308 27.6026 144.153 28.1922 142.115L26.7513 141.698C26.0829 144.008 26.0829 146.453 26.7513 148.763L28.1922 148.346ZM43.8078 142.115C44.3974 144.153 44.3974 146.308 43.8078 148.346L45.2487 148.763C45.9171 146.453 45.9171 144.008 45.2487 141.698L43.8078 142.115ZM40.6747 151.271C37.5875 151.858 34.4125 151.858 31.3253 151.271L31.0451 152.744C34.3175 153.367 37.6825 153.367 40.9549 152.744L40.6747 151.271ZM31.3253 139.19C34.4125 138.603 37.5875 138.603 40.6747 139.19L40.9549 137.717C37.6825 137.094 34.3175 137.094 31.0451 137.717L31.3253 139.19ZM31.3253 151.271C29.8327 150.987 28.6458 149.913 28.2405 148.513L26.7996 148.93C27.3669 150.89 29.015 152.358 31.0451 152.744L31.3253 151.271ZM40.9549 152.744C42.985 152.358 44.6331 150.89 45.2004 148.93L43.7595 148.513C43.3542 149.913 42.1673 150.987 40.6747 151.271L40.9549 152.744ZM40.6747 139.19C42.1673 139.474 43.3542 140.548 43.7595 141.948L45.2004 141.531C44.6331 139.571 42.985 138.103 40.9549 137.717L40.6747 139.19ZM31.0451 137.717C29.015 138.103 27.3669 139.571 26.7996 141.531L28.2405 141.948C28.6458 140.548 29.8327 139.474 31.3253 139.19L31.0451 137.717ZM35.25 152.923V156H36.75V152.923H35.25ZM33.3639 156.75H38.6361V155.25H33.3639V156.75Z" fill="#365CE6"/>
<path fill-rule="evenodd" clip-rule="evenodd" d="M38.3476 171.659C38.3769 171.631 38.4031 171.624 38.435 171.628C39.4811 171.769 40.4858 172.146 41.3701 172.737C42.5122 173.5 43.4024 174.585 43.928 175.854C44.4537 177.123 44.5912 178.519 44.3232 179.867C44.0553 181.214 43.3938 182.451 42.4225 183.423C41.4513 184.394 40.2138 185.055 38.8666 185.323C37.5194 185.591 36.123 185.454 34.854 184.928C33.5849 184.402 32.5003 183.512 31.7372 182.37C31.1463 181.486 30.7687 180.481 30.6284 179.435C30.6241 179.403 30.6311 179.377 30.6592 179.348C30.6917 179.314 30.7493 179.283 30.8239 179.283H36.4828C37.4772 179.283 38.2834 178.477 38.2834 177.483L38.2833 171.824C38.2833 171.749 38.3138 171.692 38.3476 171.659ZM38.6401 170.099C37.5444 169.952 36.74 170.862 36.74 171.824L36.74 177.483C36.74 177.625 36.6249 177.74 36.4828 177.74H30.8239C29.862 177.74 28.9518 178.544 29.0987 179.64C29.2702 180.919 29.7317 182.147 30.4539 183.228C31.3866 184.623 32.7123 185.711 34.2634 186.354C35.8144 186.996 37.5211 187.164 39.1677 186.837C40.8143 186.509 42.3267 185.701 43.5138 184.514C44.7009 183.327 45.5094 181.814 45.8369 180.168C46.1644 178.521 45.9963 176.814 45.3539 175.263C44.7114 173.712 43.6234 172.387 42.2275 171.454C41.1466 170.732 39.9187 170.27 38.6401 170.099Z" fill="#365CE6"/>
<path fill-rule="evenodd" clip-rule="evenodd" d="M27.5481 174.036C27.5451 174.027 27.5427 174.015 27.5455 173.995C27.7422 172.628 28.3755 171.352 29.3635 170.364C30.3515 169.376 31.628 168.742 32.995 168.546C33.0147 168.543 33.0268 168.545 33.0356 168.548C33.0457 168.551 33.0598 168.559 33.0754 168.574C33.1083 168.605 33.1389 168.662 33.1389 168.737L33.1389 173.882C33.1389 174.024 33.0238 174.139 32.8817 174.139H27.7373C27.6625 174.139 27.6052 174.108 27.5737 174.075C27.5588 174.06 27.5515 174.046 27.5481 174.036ZM26.0179 173.775C25.8594 174.878 26.7781 175.682 27.7373 175.682H32.8817C33.8761 175.682 34.6823 174.876 34.6823 173.882V168.737C34.6823 167.778 33.8777 166.859 32.7753 167.018C31.0802 167.262 29.4974 168.047 28.2722 169.272C27.047 170.497 26.2617 172.08 26.0179 173.775Z" fill="#365CE6"/>
<path d="M30.4718 38.5544L31.1922 38.346L31.1922 38.346L30.4718 38.5544ZM30.4718 31.9065L29.7513 31.6981L29.7513 31.6981L30.4718 31.9065ZM47.5282 31.9065L48.2487 31.6981L48.2487 31.6981L47.5282 31.9065ZM47.5282 38.5544L46.8078 38.346L46.8078 38.346L47.5282 38.5544ZM43.8148 42.0075L43.6747 41.2707L43.8148 42.0075ZM34.1852 42.0075L34.3253 41.2707L34.1852 42.0075ZM34.1852 28.4534L34.0451 27.7166L34.1852 28.4534ZM43.8148 28.4534L43.9549 27.7166L43.8148 28.4534ZM30.5201 38.7212L29.7996 38.9297L29.7996 38.9297L30.5201 38.7212ZM47.48 38.7212L48.2004 38.9297L48.2004 38.9297L47.48 38.7212ZM47.48 31.7397L46.7595 31.9482L46.7595 31.9482L47.48 31.7397ZM30.5201 31.7397L31.2405 31.9482L31.2405 31.9482L30.5201 31.7397ZM39.75 42.923C39.75 42.5088 39.4142 42.173 39 42.173C38.5858 42.173 38.25 42.5088 38.25 42.923H39.75ZM38.25 46C38.25 46.4142 38.5858 46.75 39 46.75C39.4142 46.75 39.75 46.4142 39.75 46H38.25ZM36.3639 45.25C35.9496 45.25 35.6139 45.5858 35.6139 46C35.6139 46.4142 35.9496 46.75 36.3639 46.75V45.25ZM41.6361 46.75C42.0504 46.75 42.3861 46.4142 42.3861 46C42.3861 45.5858 42.0504 45.25 41.6361 45.25V46.75ZM46.7595 31.9482L46.8078 32.115L48.2487 31.6981L48.2004 31.5313L46.7595 31.9482ZM46.8078 38.346L46.7595 38.5128L48.2004 38.9297L48.2487 38.7629L46.8078 38.346ZM31.2405 38.5128L31.1922 38.346L29.7513 38.7629L29.7996 38.9297L31.2405 38.5128ZM31.1922 32.115L31.2405 31.9482L29.7996 31.5312L29.7513 31.6981L31.1922 32.115ZM31.1922 38.346C30.6026 36.3084 30.6026 34.1526 31.1922 32.115L29.7513 31.6981C29.0829 34.008 29.0829 36.453 29.7513 38.7629L31.1922 38.346ZM46.8078 32.115C47.3974 34.1526 47.3974 36.3084 46.8078 38.346L48.2487 38.7629C48.9171 36.453 48.9171 34.008 48.2487 31.6981L46.8078 32.115ZM43.6747 41.2707C40.5875 41.8577 37.4125 41.8577 34.3253 41.2707L34.0451 42.7443C37.3175 43.3665 40.6825 43.3665 43.9549 42.7443L43.6747 41.2707ZM34.3253 29.1902C37.4125 28.6033 40.5875 28.6033 43.6747 29.1902L43.9549 27.7166C40.6825 27.0945 37.3175 27.0945 34.0451 27.7166L34.3253 29.1902ZM34.3253 41.2707C32.8327 40.9869 31.6458 39.9134 31.2405 38.5128L29.7996 38.9297C30.3669 40.8899 32.015 42.3583 34.0451 42.7443L34.3253 41.2707ZM43.9549 42.7443C45.985 42.3583 47.6331 40.8899 48.2004 38.9297L46.7595 38.5128C46.3542 39.9134 45.1673 40.9869 43.6747 41.2707L43.9549 42.7443ZM43.6747 29.1902C45.1673 29.474 46.3542 30.5476 46.7595 31.9482L48.2004 31.5313C47.6331 29.571 45.985 28.1026 43.9549 27.7166L43.6747 29.1902ZM34.0451 27.7166C32.015 28.1026 30.3669 29.571 29.7996 31.5312L31.2405 31.9482C31.6458 30.5476 32.8327 29.474 34.3253 29.1902L34.0451 27.7166ZM38.25 42.923V46H39.75V42.923H38.25ZM36.3639 46.75H41.6361V45.25H36.3639V46.75Z" fill="#365CE6"/>
<path d="M35 36.25L37.0588 34.6287C37.4346 34.3327 37.6225 34.1847 37.8303 34.2111C38.0381 34.2375 38.1831 34.4278 38.473 34.8083L39.527 36.1917C39.8169 36.5722 39.9619 36.7625 40.1697 36.7889C40.3775 36.8153 40.5654 36.6673 40.9412 36.3713L43 34.75" stroke="#365CE6" stroke-width="1.5" stroke-linecap="round"/>
<path d="M37.87 196.147L37.6784 195.422L37.6784 195.422L37.87 196.147ZM40.13 196.147L39.9384 196.872L39.9384 196.872L40.13 196.147ZM30.3835 209.403L31.1047 209.197L30.3835 209.403ZM30.38 203.936L31.1012 204.142L31.1012 204.142L30.38 203.936ZM47.62 203.936L48.3412 203.73L48.3412 203.73L47.62 203.936ZM47.6165 209.403L48.3377 209.609L47.6165 209.403ZM42.9929 213.619L42.8509 212.882L42.9929 213.619ZM35.0071 213.619L35.1491 212.882L35.1491 212.882L35.0071 213.619ZM35.773 199.56L35.915 200.297L35.915 200.297L35.773 199.56ZM42.227 199.56L42.369 198.824L42.369 198.824L42.227 199.56ZM43.3006 199.767L43.1586 200.504L43.1586 200.504L43.3006 199.767ZM47.527 203.61L46.8058 203.816L46.8058 203.816L47.527 203.61ZM34.6994 199.767L34.5574 199.031L34.5574 199.031L34.6994 199.767ZM30.473 203.61L29.7518 203.404L29.7518 203.404L30.473 203.61ZM38.0616 196.872C38.6763 196.709 39.3237 196.709 39.9384 196.872L40.3216 195.422C39.4557 195.193 38.5443 195.193 37.6784 195.422L38.0616 196.872ZM43.927 200.063C43.927 197.881 42.4419 195.982 40.3216 195.422L39.9384 196.872C41.4126 197.261 42.427 198.575 42.427 200.063L43.927 200.063ZM35.573 200.063C35.573 198.575 36.5874 197.261 38.0616 196.872L37.6784 195.422C35.5581 195.982 34.073 197.881 34.073 200.063L35.573 200.063ZM34.8414 200.504L35.915 200.297L35.631 198.824L34.5574 199.031L34.8414 200.504ZM42.085 200.297L43.1586 200.504L43.4426 199.031L42.369 198.824L42.085 200.297ZM46.8058 203.816L46.8988 204.142L48.3412 203.73L48.2482 203.404L46.8058 203.816ZM31.1012 204.142L31.1942 203.816L29.7518 203.404L29.6588 203.73L31.1012 204.142ZM31.1047 209.197C30.6338 207.547 30.6309 205.79 31.1012 204.142L29.6588 203.73C29.1111 205.649 29.1152 207.692 29.6623 209.609L31.1047 209.197ZM46.8988 204.142C47.3691 205.79 47.3662 207.547 46.8953 209.197L48.3377 209.609C48.8848 207.692 48.8889 205.649 48.3412 203.73L46.8988 204.142ZM42.8509 212.882C40.3077 213.373 37.6923 213.373 35.1491 212.882L34.8651 214.355C37.5959 214.882 40.4041 214.882 43.1349 214.355L42.8509 212.882ZM35.915 200.297C37.9524 199.904 40.0477 199.904 42.085 200.297L42.369 198.824C40.144 198.395 37.856 198.395 35.631 198.824L35.915 200.297ZM35.1491 212.882C33.2049 212.507 31.6394 211.071 31.1047 209.197L29.6623 209.609C30.3533 212.03 32.3697 213.874 34.8651 214.355L35.1491 212.882ZM43.1349 214.355C45.6303 213.874 47.6467 212.03 48.3377 209.609L46.8953 209.197C46.3606 211.071 44.7951 212.507 42.8509 212.882L43.1349 214.355ZM43.1586 200.504C44.9164 200.843 46.3239 202.127 46.8058 203.816L48.2482 203.404C47.6087 201.163 45.747 199.475 43.4426 199.031L43.1586 200.504ZM34.5574 199.031C32.253 199.475 30.3913 201.163 29.7518 203.404L31.1942 203.816C31.6761 202.127 33.0836 200.843 34.8414 200.504L34.5574 199.031ZM30.3857 204.792C35.9399 206.846 42.0601 206.846 47.6143 204.792L47.0939 203.385C41.8755 205.315 36.1245 205.315 30.9061 203.385L30.3857 204.792Z" fill="#365CE6"/>
<path d="M35 203.5V207" stroke="#365CE6" stroke-width="1.5" stroke-linecap="round"/>
<path d="M43 203.5V207" stroke="#365CE6" stroke-width="1.5" stroke-linecap="round"/>
<path fill-rule="evenodd" clip-rule="evenodd" d="M43.3476 281.659C43.3769 281.631 43.4031 281.624 43.435 281.628C44.4811 281.769 45.4858 282.146 46.3701 282.737C47.5122 283.5 48.4024 284.585 48.928 285.854C49.4537 287.123 49.5912 288.519 49.3232 289.867C49.0553 291.214 48.3938 292.451 47.4225 293.423C46.4513 294.394 45.2138 295.055 43.8666 295.323C42.5194 295.591 41.123 295.454 39.854 294.928C38.5849 294.402 37.5003 293.512 36.7372 292.37C36.1463 291.486 35.7687 290.481 35.6284 289.435C35.6241 289.403 35.6311 289.377 35.6592 289.348C35.6917 289.314 35.7493 289.283 35.8239 289.283H41.4828C42.4772 289.283 43.2834 288.477 43.2834 287.483L43.2833 281.824C43.2833 281.749 43.3138 281.692 43.3476 281.659ZM43.6401 280.099C42.5444 279.952 41.74 280.862 41.74 281.824L41.74 287.483C41.74 287.625 41.6249 287.74 41.4828 287.74H35.8239C34.862 287.74 33.9518 288.544 34.0987 289.64C34.2702 290.919 34.7317 292.147 35.4539 293.228C36.3866 294.623 37.7123 295.711 39.2634 296.354C40.8144 296.996 42.5211 297.164 44.1677 296.837C45.8143 296.509 47.3267 295.701 48.5138 294.514C49.7009 293.327 50.5094 291.814 50.8369 290.168C51.1644 288.521 50.9963 286.814 50.3539 285.263C49.7114 283.712 48.6234 282.387 47.2275 281.454C46.1466 280.732 44.9187 280.27 43.6401 280.099Z" fill="#365CE6"/>
<path fill-rule="evenodd" clip-rule="evenodd" d="M32.5481 284.036C32.5451 284.027 32.5427 284.015 32.5455 283.995C32.7422 282.628 33.3755 281.352 34.3635 280.364C35.3515 279.376 36.628 278.742 37.995 278.546C38.0147 278.543 38.0268 278.545 38.0356 278.548C38.0457 278.551 38.0598 278.559 38.0754 278.574C38.1083 278.605 38.1389 278.662 38.1389 278.737L38.1389 283.882C38.1389 284.024 38.0238 284.139 37.8817 284.139H32.7373C32.6625 284.139 32.6052 284.108 32.5737 284.075C32.5588 284.06 32.5515 284.046 32.5481 284.036ZM31.0179 283.775C30.8594 284.878 31.7781 285.682 32.7373 285.682H37.8817C38.8761 285.682 39.6823 284.876 39.6823 283.882V278.737C39.6823 277.778 38.8777 276.859 37.7753 277.018C36.0802 277.262 34.4974 278.047 33.2722 279.272C32.047 280.497 31.2617 282.08 31.0179 283.775Z" fill="#365CE6"/>
<path d="M30.3529 234.812L31.0823 234.637L30.3529 234.812ZM30.3529 228.833L31.0823 229.008L30.3529 228.833ZM47.6471 228.833L46.9177 229.008L47.6471 228.833ZM47.6471 234.812L46.9177 234.637L47.6471 234.812ZM42.0496 240.299L41.8815 239.568L42.0496 240.299ZM35.9504 240.299L35.7824 241.03L35.9504 240.299ZM35.9504 223.346L36.1185 224.077L36.1185 224.077L35.9504 223.346ZM42.0496 223.346L41.8815 224.077L42.0496 223.346ZM31.0823 234.637C30.6392 232.786 30.6392 230.859 31.0823 229.008L29.6235 228.658C29.1255 230.739 29.1255 232.905 29.6235 234.986L31.0823 234.637ZM46.9177 229.008C47.3608 230.859 47.3608 232.786 46.9177 234.637L48.3765 234.986C48.8745 232.905 48.8745 230.739 48.3765 228.658L46.9177 229.008ZM41.8815 239.568C39.9863 240.004 38.0137 240.004 36.1185 239.568L35.7824 241.03C37.8988 241.516 40.1012 241.516 42.2176 241.03L41.8815 239.568ZM36.1185 224.077C38.0137 223.641 39.9863 223.641 41.8815 224.077L42.2176 222.615C40.1012 222.128 37.8988 222.128 35.7824 222.615L36.1185 224.077ZM36.1185 239.568C33.6123 238.992 31.666 237.076 31.0823 234.637L29.6235 234.986C30.3428 237.992 32.7337 240.329 35.7824 241.03L36.1185 239.568ZM42.2176 241.03C45.2663 240.329 47.6572 237.992 48.3765 234.986L46.9177 234.637C46.334 237.076 44.3877 238.992 41.8815 239.568L42.2176 241.03ZM41.8815 224.077C44.3877 224.653 46.334 226.568 46.9177 229.008L48.3765 228.658C47.6572 225.653 45.2663 223.316 42.2176 222.615L41.8815 224.077ZM35.7824 222.615C32.7337 223.316 30.3428 225.653 29.6235 228.658L31.0823 229.008C31.666 226.568 33.6123 224.653 36.1185 224.077L35.7824 222.615ZM41.8305 241C41.8305 239.536 41.8322 238.515 41.9378 237.745C42.0403 236.998 42.2278 236.599 42.5196 236.313L41.4696 235.242C40.8474 235.852 40.5778 236.622 40.4518 237.541C40.3289 238.437 40.3305 239.579 40.3305 241H41.8305ZM47.3222 234.132C45.8718 234.132 44.7101 234.13 43.7998 234.25C42.8695 234.373 42.0897 234.634 41.4696 235.242L42.5196 236.313C42.8135 236.025 43.2264 235.839 43.9958 235.737C44.7852 235.633 45.8302 235.632 47.3222 235.632V234.132Z" fill="#365CE6"/>
<path d="M36 229H39M36 232H41" stroke="#365CE6" stroke-width="1.5" stroke-linecap="round"/>
<path d="M30.3529 255.95C31.0044 253.173 33.173 251.004 35.9504 250.353C37.9563 249.882 40.0437 249.882 42.0496 250.353C44.827 251.004 46.9956 253.173 47.6471 255.95C48.1176 257.956 48.1176 260.044 47.6471 262.05C46.9956 264.827 44.827 266.996 42.0496 267.647C40.0437 268.118 37.9563 268.118 35.9504 267.647C33.173 266.996 31.0044 264.827 30.3529 262.05C29.8824 260.044 29.8824 257.956 30.3529 255.95Z" stroke="#365CE6" stroke-width="1.5"/>
<path d="M42 258.424C40.788 258.828 39.1719 257.212 39.5759 256M40.0739 255.502L37.4627 258.113C36.3275 259.248 35.5221 260.671 35.1328 262.228L35.0066 262.733C34.9673 262.89 35.1097 263.033 35.267 262.993L35.7717 262.867C37.3292 262.478 38.7515 261.673 39.8867 260.537L42.498 257.926C42.8194 257.605 43 257.169 43 256.714C43 255.767 42.2326 255 41.2859 255C40.8313 255 40.3954 255.181 40.0739 255.502Z" stroke="#365CE6" stroke-width="1.5"/>
<path d="M32.297 307.234C32.5224 306.273 33.2728 305.522 34.2338 305.297V305.297C35.0666 305.102 35.9334 305.102 36.7662 305.297V305.297C37.7272 305.522 38.4776 306.273 38.703 307.234V307.234C38.8983 308.067 38.8983 308.933 38.703 309.766V309.766C38.4776 310.727 37.7272 311.478 36.7662 311.703V311.703C35.9334 311.898 35.0666 311.898 34.2338 311.703V311.703C33.2728 311.478 32.5224 310.727 32.297 309.766V309.766C32.1017 308.933 32.1017 308.067 32.297 307.234V307.234Z" stroke="#365CE6" stroke-width="1.5"/>
<path d="M32.297 318.234C32.5224 317.273 33.2728 316.522 34.2338 316.297V316.297C35.0666 316.102 35.9334 316.102 36.7662 316.297V316.297C37.7272 316.522 38.4776 317.273 38.703 318.234V318.234C38.8983 319.067 38.8983 319.933 38.703 320.766V320.766C38.4776 321.727 37.7272 322.478 36.7662 322.703V322.703C35.9334 322.898 35.0666 322.898 34.2338 322.703V322.703C33.2728 322.478 32.5224 321.727 32.297 320.766V320.766C32.1017 319.933 32.1017 319.067 32.297 318.234V318.234Z" stroke="#365CE6" stroke-width="1.5"/>
<path d="M43.297 307.234C43.5224 306.273 44.2728 305.522 45.2338 305.297V305.297C46.0666 305.102 46.9334 305.102 47.7662 305.297V305.297C48.7272 305.522 49.4776 306.273 49.703 307.234V307.234C49.8983 308.067 49.8983 308.933 49.703 309.766V309.766C49.4776 310.727 48.7272 311.478 47.7662 311.703V311.703C46.9334 311.898 46.0666 311.898 45.2338 311.703V311.703C44.2728 311.478 43.5224 310.727 43.297 309.766V309.766C43.1017 308.933 43.1017 308.067 43.297 307.234V307.234Z" stroke="#365CE6" stroke-width="1.5"/>
<path d="M43.297 318.234C43.5224 317.273 44.2728 316.522 45.2338 316.297V316.297C46.0666 316.102 46.9334 316.102 47.7662 316.297V316.297C48.7272 316.522 49.4776 317.273 49.703 318.234V318.234C49.8983 319.067 49.8983 319.933 49.703 320.766V320.766C49.4776 321.727 48.7272 322.478 47.7662 322.703V322.703C46.9334 322.898 46.0666 322.898 45.2338 322.703V322.703C44.2728 322.478 43.5224 321.727 43.297 320.766V320.766C43.1017 319.933 43.1017 319.067 43.297 318.234V318.234Z" stroke="#365CE6" stroke-width="1.5"/>
<path d="M11.1524 8.67339H11.3932V10.1369L10.988 9.99021C10.7724 9.91215 10.5835 9.66929 10.5835 9.34638C10.5835 8.9241 10.8868 8.67339 11.1524 8.67339Z" fill="#365CE6"/>
<path d="M12.6074 13.3265V11.8631L13.0121 12.0097C13.2277 12.0877 13.4166 12.3306 13.4166 12.6535C13.4166 13.0758 13.1133 13.3265 12.8477 13.3265H12.6074Z" fill="#365CE6"/>
<path fill-rule="evenodd" clip-rule="evenodd" d="M8.96917 2.3303C10.9655 1.8899 13.0345 1.8899 15.0308 2.3303L15.4484 2.42243C18.2366 3.03749 20.4347 5.17136 21.123 7.9312C21.6257 9.94645 21.6257 12.0536 21.123 14.0688C20.4347 16.8286 18.2366 18.9625 15.4484 19.5776L15.0308 19.6697C13.0345 20.1101 10.9655 20.1101 8.96917 19.6697L8.55155 19.5776C5.76343 18.9625 3.56534 16.8286 2.87698 14.0688C2.37434 12.0536 2.37434 9.94645 2.87698 7.93119C3.56534 5.17136 5.76343 3.03749 8.55155 2.42243L8.96917 2.3303ZM12.6074 6.96972C12.6074 6.63584 12.3356 6.36518 12.0003 6.36518C11.665 6.36518 11.3932 6.63584 11.3932 6.96972V7.46431H11.1524C10.119 7.46431 9.36928 8.35753 9.36928 9.34638C9.36928 10.1232 9.82817 10.8568 10.573 11.1265L11.3932 11.4235V13.3265H11.3255C10.9643 13.3265 10.5835 12.9916 10.5835 12.4655C10.5835 12.1316 10.3117 11.861 9.97638 11.861C9.64109 11.861 9.36928 12.1316 9.36928 12.4655C9.36928 13.5582 10.1965 14.5356 11.3255 14.5356H11.3932V15.0302C11.3932 15.3641 11.665 15.6348 12.0003 15.6348C12.3356 15.6348 12.6074 15.3641 12.6074 15.0302V14.5356H12.8477C13.8811 14.5356 14.6308 13.6424 14.6308 12.6535C14.6308 11.8767 14.1719 11.1431 13.427 10.8734L12.6074 10.5766V8.67339H12.6746C13.0358 8.67339 13.4166 9.00828 13.4166 9.5344C13.4166 9.86827 13.6884 10.1389 14.0237 10.1389C14.359 10.1389 14.6308 9.86827 14.6308 9.5344C14.6308 8.44171 13.8036 7.46431 12.6746 7.46431H12.6074V6.96972Z" fill="#365CE6"/>
<path d="M21.8361 180.137C21.5278 181.776 20.7056 183.313 19.4722 184.439C18.2389 185.669 16.8 186.386 15.1556 186.795C14.6417 186.898 14.025 187 13.5111 187C12.3806 187 11.3528 186.795 10.325 186.386C8.78333 185.771 7.44722 184.644 6.52222 183.313C5.80278 182.288 5.28889 181.059 5.18611 179.728C5.08333 179.216 5.28889 178.806 5.59722 178.396C5.80278 177.987 6.31667 177.782 6.83056 177.782H11.7639C12.2778 177.782 12.6889 177.372 12.6889 176.86V171.841C12.6889 171.329 12.8944 170.817 13.3056 170.509C13.6139 170.202 14.1278 169.997 14.6417 170.1C15.875 170.304 17.1083 170.817 18.2389 171.431C19.6778 172.353 20.7056 173.685 21.3222 175.221C22.0417 176.757 22.1444 178.499 21.8361 180.137Z" fill="#365CE6"/>
<path d="M10.7361 168.768V174.504C10.7361 175.119 10.2222 175.631 9.60556 175.631H3.74722C3.23333 175.631 2.71944 175.426 2.41111 175.016C2.10278 174.709 2 174.197 2 173.787C2.20556 172.046 3.02778 170.509 4.26111 169.28C5.49445 168.051 7.03611 167.232 8.78333 167.027C9.19445 166.924 9.70833 167.129 10.1194 167.436C10.4278 167.744 10.7361 168.256 10.7361 168.768Z" fill="#365CE6"/>
<path fill-rule="evenodd" clip-rule="evenodd" d="M31 558.128C31 556.57 32.2628 555.308 33.8205 555.308C35.3782 555.308 36.641 556.57 36.641 558.128V560.179C36.641 561.737 35.3782 563 33.8205 563C32.2628 563 31 561.737 31 560.179V558.128ZM33.8205 556.846C33.1125 556.846 32.5385 557.42 32.5385 558.128V560.179C32.5385 560.888 33.1125 561.462 33.8205 561.462C34.5286 561.462 35.1026 560.888 35.1026 560.179V558.128C35.1026 557.42 34.5286 556.846 33.8205 556.846Z" fill="#365CE6"/>
<path fill-rule="evenodd" clip-rule="evenodd" d="M38.1795 551.974C38.1795 550.417 39.4423 549.154 41 549.154C42.5577 549.154 43.8205 550.417 43.8205 551.974V560.179C43.8205 561.737 42.5577 563 41 563C39.4423 563 38.1795 561.737 38.1795 560.179V551.974ZM41 550.692C40.2919 550.692 39.7179 551.266 39.7179 551.974V560.179C39.7179 560.888 40.2919 561.462 41 561.462C41.7081 561.462 42.2821 560.888 42.2821 560.179V551.974C42.2821 551.266 41.7081 550.692 41 550.692Z" fill="#365CE6"/>
<path fill-rule="evenodd" clip-rule="evenodd" d="M45.359 545.821C45.359 544.263 46.6218 543 48.1795 543C49.7372 543 51 544.263 51 545.821V560.179C51 561.737 49.7372 563 48.1795 563C46.6218 563 45.359 561.737 45.359 560.179V545.821ZM48.1795 544.538C47.4714 544.538 46.8974 545.112 46.8974 545.821V560.179C46.8974 560.888 47.4714 561.462 48.1795 561.462C48.8875 561.462 49.4615 560.888 49.4615 560.179V545.821C49.4615 545.112 48.8875 544.538 48.1795 544.538Z" fill="#365CE6"/>
<path d="M7.71429 558.102V560.143C7.71429 561.673 6.4898 563 4.85714 563C3.22449 563 2 561.673 2 560.143V558.102C2 556.571 3.22449 555.245 4.85714 555.245C6.4898 555.245 7.71429 556.571 7.71429 558.102Z" fill="#365CE6"/>
<path d="M14.8571 551.98V560.143C14.8571 561.673 13.6327 563 12 563C10.3673 563 9.14286 561.673 9.14286 560.143V551.98C9.14286 550.449 10.3673 549.122 12 549.122C13.6327 549.122 14.8571 550.449 14.8571 551.98Z" fill="#365CE6"/>
<path d="M22 545.857V560.143C22 561.673 20.7755 563 19.1429 563C17.5102 563 16.2857 561.776 16.2857 560.143V545.857C16.2857 544.327 17.5102 543 19.1429 543C20.7755 543 22 544.327 22 545.857Z" fill="#365CE6"/>
<path d="M12 486C6.4898 486 2 490.49 2 496C2 501.51 6.4898 506 12 506C17.5102 506 22 501.51 22 496C22 490.49 17.5102 486 12 486ZM13.0204 496L9.55102 499.571C9.34694 499.673 9.2449 499.776 9.04082 499.776C8.83674 499.776 8.63265 499.673 8.53061 499.571C8.22449 499.265 8.22449 498.755 8.53061 498.449L11.3878 495.592V490.898C11.3878 490.49 11.6939 490.082 12.2041 490.082C12.7143 490.082 13.0204 490.388 13.0204 490.898V496Z" fill="#365CE6"/>
<path d="M19.6984 464.031L15.9431 469.094L11.7587 474.367C11.4368 474.789 11.0077 475 10.4712 475C10.2566 475 10.1493 475 9.93474 474.895C9.29099 474.684 8.86182 474.051 8.86182 473.418V468.461H5.53575C4.892 468.461 4.35554 468.144 4.14095 467.512C3.92637 466.984 3.92637 466.351 4.35554 465.824L8.43265 460.761L12.0806 455.699C12.5098 455.172 13.1535 454.855 13.9046 455.066C14.5483 455.277 14.9775 455.91 14.9775 456.543V461.5H18.4108C19.0546 461.5 19.5911 461.816 19.8057 462.344C20.1275 462.871 20.0202 463.609 19.6984 464.031Z" fill="#3C7AF1"/>
<path fill-rule="evenodd" clip-rule="evenodd" d="M41 429.455C38.7356 429.455 35.6513 429.649 33.6927 429.791C33.0422 429.839 32.5385 430.354 32.5385 430.983V431.693L40.3774 435.811C40.7646 436.014 41.2354 436.014 41.6226 435.811L49.4615 431.693V430.983C49.4615 430.354 48.9578 429.839 48.3073 429.791C46.3487 429.649 43.2644 429.455 41 429.455ZM49.4615 433.357L42.3698 437.082C41.5179 437.53 40.4821 437.53 39.6302 437.082L32.5385 433.357V441.017C32.5385 441.646 33.0422 442.161 33.6927 442.209C35.6513 442.351 38.7356 442.545 41 442.545C43.2644 442.545 46.3487 442.351 48.3073 442.209C48.9578 442.161 49.4615 441.646 49.4615 441.017V433.357ZM33.5744 428.341C35.5342 428.198 38.6707 428 41 428C43.3293 428 46.4658 428.198 48.4256 428.341C49.8902 428.448 51 429.606 51 430.983V441.017C51 442.394 49.8902 443.552 48.4256 443.659C46.4658 443.802 43.3293 444 41 444C38.6707 444 35.5342 443.802 33.5744 443.659C32.1098 443.552 31 442.394 31 441.017V430.983C31 429.606 32.1098 428.448 33.5744 428.341Z" fill="#365CE6"/>
<path d="M22 432.585V441.073C22 442.439 20.8733 443.61 19.4394 443.707C17.2884 443.902 14.3181 444 12.0648 444C9.81147 444 6.84116 443.805 4.69025 443.707C3.25631 443.61 2.12964 442.439 2.12964 441.073V432.585L3.666 433.366L10.7333 437.073C11.143 437.268 11.6551 437.366 12.0648 437.366C12.4745 437.366 12.9866 437.268 13.3963 437.073L20.4636 433.366L22 432.585Z" fill="#365CE6"/>
<path d="M21.8976 430.439C21.8976 430.634 21.7952 430.927 21.5903 431.024L20.3612 431.61L12.577 435.707C12.1673 435.902 11.7576 435.902 11.3479 435.707L2.33452 431.024C2.12967 430.927 1.92482 430.732 2.02724 430.537C2.23209 429.366 3.25634 428.39 4.58785 428.293C6.73877 428.098 9.70907 428 11.9624 428C14.2157 428 17.2885 428.195 19.337 428.293C20.6685 428.39 21.6927 429.268 21.8976 430.439Z" fill="#365CE6"/>
<path fill-rule="evenodd" clip-rule="evenodd" d="M41.0028 404.632C39.6438 404.632 38.5421 405.692 38.5421 407C38.5421 408.308 39.6438 409.368 41.0028 409.368C42.3618 409.368 43.4635 408.308 43.4635 407C43.4635 405.692 42.3618 404.632 41.0028 404.632ZM36.9016 407C36.9016 404.82 38.7378 403.053 41.0028 403.053C43.2678 403.053 45.104 404.82 45.104 407C45.104 409.18 43.2678 410.947 41.0028 410.947C38.7378 410.947 36.9016 409.18 36.9016 407Z" fill="#365CE6"/>
<path fill-rule="evenodd" clip-rule="evenodd" d="M49.4013 407L49.6372 407.132C50.9353 407.856 51.384 409.453 50.6424 410.708L49.1373 413.257C48.3866 414.528 46.7029 414.967 45.3886 414.233L45.1861 414.12V414.368C45.1861 415.822 43.962 417 42.452 417H39.4674C37.9574 417 36.7333 415.822 36.7333 414.368V414.154L36.636 414.209C35.3201 414.962 33.6188 414.528 32.8625 413.247L31.3576 410.699C30.6215 409.453 31.0574 407.868 32.338 407.136L32.5761 407L32.338 406.864C31.0574 406.132 30.6215 404.547 31.3576 403.301L32.8625 400.753C33.6188 399.472 35.3201 399.038 36.636 399.791L36.7333 399.846V399.632C36.7333 398.178 37.9574 397 39.4674 397H42.452C43.962 397 45.1861 398.178 45.1861 399.632V399.88L45.3886 399.767C46.7029 399.033 48.3866 399.472 49.1373 400.743L50.6424 403.292C51.384 404.547 50.9353 406.144 49.6372 406.868L49.4013 407ZM47.7627 407.911C47.0361 407.505 47.0361 406.495 47.7627 406.089L48.8141 405.502C49.3334 405.213 49.5129 404.574 49.2162 404.072L47.7112 401.523C47.4108 401.015 46.7374 400.839 46.2117 401.133L45.188 401.704C44.4589 402.111 43.5457 401.605 43.5457 400.794V399.632C43.5457 399.05 43.056 398.579 42.452 398.579H39.4674C38.8634 398.579 38.3737 399.05 38.3737 399.632V400.771C38.3737 401.587 37.4505 402.093 36.7215 401.676L35.7981 401.148C35.2717 400.847 34.5912 401.021 34.2887 401.533L32.7837 404.081C32.4893 404.58 32.6637 405.213 33.1759 405.506L34.2053 406.095C34.9187 406.503 34.9187 407.497 34.2053 407.905L33.1759 408.494C32.6637 408.787 32.4893 409.42 32.7837 409.919L34.2887 412.467C34.5912 412.979 35.2717 413.153 35.7981 412.852L36.7215 412.324C37.4505 411.907 38.3737 412.413 38.3737 413.229V414.368C38.3737 414.95 38.8634 415.421 39.4674 415.421H42.452C43.056 415.421 43.5457 414.95 43.5457 414.368V413.206C43.5457 412.395 44.4589 411.889 45.188 412.296L46.2117 412.867C46.7374 413.161 47.4108 412.985 47.7112 412.477L49.2162 409.928C49.5129 409.426 49.3334 408.787 48.8141 408.498L47.7627 407.911Z" fill="#365CE6"/>
<path d="M20.6391 407.105L20.4204 407L20.6391 406.895C21.9514 406.158 22.3888 404.579 21.6233 403.316L20.0923 400.789C19.7643 400.158 19.1081 399.737 18.452 399.526C17.7959 399.316 17.0304 399.421 16.3742 399.737L16.1555 399.842V399.632C16.1555 398.158 14.9526 397 13.4216 397H10.469C8.93803 397 7.73512 398.158 7.73512 399.632V399.842H7.62576C6.96962 399.421 6.31349 399.316 5.54799 399.526C4.7825 399.737 4.23572 400.158 3.90765 400.789L2.37667 403.316C1.61118 404.579 2.0486 406.158 3.36087 406.895L3.57959 407L3.36087 407.105C2.0486 407.842 1.61118 409.421 2.37667 410.684L3.90765 413.211C4.23572 413.842 4.89186 414.263 5.54799 414.474C6.31349 414.684 6.96962 414.579 7.62576 414.158H7.73512V414.368C7.73512 415.842 8.93803 417 10.469 417H13.4216C14.9526 417 16.1555 415.842 16.1555 414.368V414.158L16.3742 414.263C17.0304 414.579 17.7959 414.684 18.452 414.474C19.2175 414.263 19.7643 413.842 20.0923 413.211L21.6233 410.684C22.3888 409.421 21.9514 407.842 20.6391 407.105ZM12 411C9.70352 411 7.84447 409.211 7.84447 407C7.84447 404.789 9.70352 403 12 403C14.2965 403 16.1555 404.789 16.1555 407C16.1555 409.211 14.2965 411 12 411Z" fill="#365CE6"/>
<path fill-rule="evenodd" clip-rule="evenodd" d="M41 369.538C38.8308 369.538 35.8662 369.738 34.015 369.881C33.4062 369.928 32.9281 370.406 32.8809 371.015C32.7375 372.866 32.5385 375.831 32.5385 378C32.5385 380.169 32.7375 383.134 32.8809 384.985C32.9281 385.594 33.4062 386.072 34.015 386.119C35.8662 386.262 38.8308 386.462 41 386.462C43.1692 386.462 46.1338 386.262 47.985 386.119C48.5938 386.072 49.0719 385.594 49.1191 384.985C49.2625 383.134 49.4615 380.169 49.4615 378C49.4615 375.831 49.2625 372.866 49.1191 371.015C49.0719 370.406 48.5938 369.928 47.985 369.881C46.1338 369.738 43.1692 369.538 41 369.538ZM33.8961 368.347C35.7482 368.204 38.7655 368 41 368C43.2345 368 46.2518 368.204 48.1039 368.347C49.4686 368.453 50.5472 369.531 50.6529 370.896C50.7964 372.748 51 375.765 51 378C51 380.235 50.7964 383.252 50.6529 385.104C50.5472 386.469 49.4686 387.547 48.1039 387.653C46.2518 387.796 43.2345 388 41 388C38.7655 388 35.7482 387.796 33.8961 387.653C32.5314 387.547 31.4528 386.469 31.3471 385.104C31.2036 383.252 31 380.235 31 378C31 375.765 31.2036 372.748 31.3471 370.896C31.4528 369.531 32.5314 368.453 33.8961 368.347Z" fill="#365CE6"/>
<path fill-rule="evenodd" clip-rule="evenodd" d="M36.8974 373.128C37.3223 373.128 37.6667 373.473 37.6667 373.897L37.6667 382.103C37.6667 382.527 37.3223 382.872 36.8974 382.872C36.4726 382.872 36.1282 382.527 36.1282 382.103L36.1282 373.897C36.1282 373.473 36.4726 373.128 36.8974 373.128Z" fill="#365CE6"/>
<path fill-rule="evenodd" clip-rule="evenodd" d="M41 377.231C41.4248 377.231 41.7692 377.575 41.7692 378V382.103C41.7692 382.527 41.4248 382.872 41 382.872C40.5752 382.872 40.2308 382.527 40.2308 382.103V378C40.2308 377.575 40.5752 377.231 41 377.231Z" fill="#365CE6"/>
<path fill-rule="evenodd" clip-rule="evenodd" d="M45.1026 373.128C45.5274 373.128 45.8718 373.473 45.8718 373.897V382.103C45.8718 382.527 45.5274 382.872 45.1026 382.872C44.6777 382.872 44.3333 382.527 44.3333 382.103V373.897C44.3333 373.473 44.6777 373.128 45.1026 373.128Z" fill="#365CE6"/>
<path d="M21.6907 370.887C21.5876 369.546 20.5567 368.412 19.1134 368.309C17.0515 368.103 14.1649 368 12 368C9.83505 368 6.94845 368.103 4.8866 368.309C4.16495 368.309 3.54639 368.619 3.13402 369.134C2.72165 369.649 2.41237 370.165 2.30928 370.887C2.10309 372.948 2 375.835 2 378C2 380.165 2.20619 383.052 2.30928 385.113C2.41237 386.454 3.4433 387.588 4.8866 387.691C6.94845 387.897 9.83505 388 12 388C14.1649 388 17.0515 387.794 19.1134 387.691C20.4536 387.588 21.5876 386.557 21.6907 385.113C21.8969 383.052 22 380.165 22 378C22 375.835 21.8969 372.948 21.6907 370.887ZM8.70103 382.124C8.70103 382.536 8.39175 382.948 7.87629 382.948C7.36082 382.948 7.05155 382.536 7.05155 382.124V373.876C7.05155 373.464 7.36082 373.052 7.87629 373.052C8.39175 373.052 8.70103 373.464 8.70103 373.876V382.124ZM12.8247 382.124C12.8247 382.536 12.5155 382.948 12 382.948C11.4845 382.948 11.1753 382.639 11.1753 382.124V378C11.1753 377.588 11.4845 377.175 12 377.175C12.5155 377.175 12.8247 377.485 12.8247 378V382.124ZM16.9485 382.124C16.9485 382.536 16.6392 382.948 16.1237 382.948C15.6082 382.948 15.299 382.639 15.299 382.124V373.876C15.299 373.464 15.6082 373.052 16.1237 373.052C16.6392 373.052 16.9485 373.361 16.9485 373.876V382.124Z" fill="#365CE6"/>
<path fill-rule="evenodd" clip-rule="evenodd" d="M41 339.538C38.8182 339.538 35.8322 339.738 33.9834 339.88C33.3826 339.926 32.91 340.391 32.8554 340.987C32.7148 342.521 32.5385 344.785 32.5385 346.462C32.5385 348.138 32.7148 350.402 32.8554 351.936C32.91 352.532 33.3826 352.997 33.9834 353.043C35.8322 353.185 38.8182 353.385 41 353.385C43.1818 353.385 46.1678 353.185 48.0166 353.043C48.6174 352.997 49.09 352.532 49.1446 351.936C49.2852 350.402 49.4615 348.138 49.4615 346.462C49.4615 344.785 49.2852 342.521 49.1446 340.987C49.09 340.391 48.6174 339.926 48.0166 339.88C46.1678 339.738 43.1818 339.538 41 339.538ZM33.8655 338.346C35.715 338.204 38.7533 338 41 338C43.2467 338 46.285 338.204 48.1345 338.346C49.4791 338.449 50.5531 339.5 50.6766 340.847C50.8175 342.384 51 344.708 51 346.462C51 348.215 50.8175 350.539 50.6766 352.076C50.5531 353.424 49.4791 354.474 48.1345 354.577C46.285 354.719 43.2467 354.923 41 354.923C38.7533 354.923 35.715 354.719 33.8655 354.577C32.5209 354.474 31.4469 353.424 31.3234 352.076C31.1825 350.539 31 348.215 31 346.462C31 344.708 31.1825 342.384 31.3234 340.847C31.4469 339.5 32.5209 338.449 33.8655 338.346Z" fill="#365CE6"/>
<path fill-rule="evenodd" clip-rule="evenodd" d="M36.1282 357.231C36.1282 356.806 36.4726 356.462 36.8974 356.462H45.1026C45.5274 356.462 45.8718 356.806 45.8718 357.231C45.8718 357.656 45.5274 358 45.1026 358H36.8974C36.4726 358 36.1282 357.656 36.1282 357.231Z" fill="#365CE6"/>
<path fill-rule="evenodd" clip-rule="evenodd" d="M32.0256 350.051C32.0256 349.626 32.37 349.282 32.7949 349.282H49.2051C49.63 349.282 49.9744 349.626 49.9744 350.051C49.9744 350.476 49.63 350.821 49.2051 350.821H32.7949C32.37 350.821 32.0256 350.476 32.0256 350.051Z" fill="#365CE6"/>
<path d="M8.19119 305.156C7.30475 304.948 6.38222 304.948 5.49578 305.156C4.33479 305.428 3.42828 306.335 3.15595 307.496C2.94802 308.382 2.94802 309.305 3.15595 310.191C3.42828 311.352 4.33479 312.259 5.49578 312.531C6.38222 312.739 7.30475 312.739 8.19119 312.531C9.35218 312.259 10.2587 311.352 10.531 310.191C10.739 309.305 10.739 308.382 10.531 307.496C10.2587 306.335 9.35218 305.428 8.19119 305.156Z" fill="#365CE6"/>
<path d="M8.19119 315.469C7.30475 315.261 6.38222 315.261 5.49578 315.469C4.33479 315.741 3.42828 316.648 3.15595 317.809C2.94802 318.695 2.94802 319.618 3.15595 320.504C3.42828 321.665 4.33479 322.572 5.49578 322.844C6.38222 323.052 7.30475 323.052 8.19119 322.844C9.35218 322.572 10.2587 321.665 10.531 320.504C10.739 319.618 10.739 318.695 10.531 317.809C10.2587 316.648 9.35218 315.741 8.19119 315.469Z" fill="#365CE6"/>
<path d="M18.5042 305.156C17.6178 304.948 16.6952 304.948 15.8088 305.156C14.6478 305.428 13.7413 306.335 13.469 307.496C13.261 308.382 13.261 309.305 13.469 310.191C13.7413 311.352 14.6478 312.259 15.8088 312.531C16.6952 312.739 17.6178 312.739 18.5042 312.531C19.6652 312.259 20.5717 311.352 20.8441 310.191C21.052 309.305 21.052 308.382 20.8441 307.496C20.5717 306.335 19.6652 305.428 18.5042 305.156Z" fill="#365CE6"/>
<path d="M18.5042 315.469C17.6178 315.261 16.6952 315.261 15.8088 315.469C14.6478 315.741 13.7413 316.648 13.469 317.809C13.261 318.695 13.261 319.618 13.469 320.504C13.7413 321.665 14.6478 322.572 15.8088 322.844C16.6952 323.052 17.6178 323.052 18.5042 322.844C19.6652 322.572 20.5717 321.665 20.8441 320.504C21.052 319.618 21.052 318.695 20.8441 317.809C20.5717 316.648 19.6652 315.741 18.5042 315.469Z" fill="#365CE6"/>
<path d="M21.8361 290.137C21.5278 291.776 20.7056 293.313 19.4722 294.439C18.2389 295.668 16.8 296.385 15.1556 296.795C14.6417 296.898 14.025 297 13.5111 297C12.3806 297 11.3528 296.795 10.325 296.385C8.78333 295.771 7.44722 294.644 6.52222 293.313C5.80278 292.288 5.28889 291.059 5.18611 289.728C5.08333 289.216 5.28889 288.806 5.59722 288.396C5.80278 287.986 6.31667 287.782 6.83056 287.782H11.7639C12.2778 287.782 12.6889 287.372 12.6889 286.86V281.841C12.6889 281.329 12.8944 280.816 13.3056 280.509C13.6139 280.202 14.1278 279.997 14.6417 280.099C15.875 280.304 17.1083 280.816 18.2389 281.431C19.6778 282.353 20.7056 283.684 21.3222 285.221C22.0417 286.757 22.1444 288.499 21.8361 290.137Z" fill="#365CE6"/>
<path d="M10.7361 278.768V284.504C10.7361 285.118 10.2222 285.631 9.60556 285.631H3.74722C3.23333 285.631 2.71944 285.426 2.41111 285.016C2.10278 284.709 2 284.197 2 283.787C2.20556 282.046 3.02778 280.509 4.26111 279.28C5.49445 278.051 7.03611 277.231 8.78333 277.027C9.19445 276.924 9.70833 277.129 10.1194 277.436C10.4278 277.744 10.7361 278.256 10.7361 278.768Z" fill="#365CE6"/>
<path fill-rule="evenodd" clip-rule="evenodd" d="M14.9703 250.344C13.0166 249.885 10.9834 249.885 9.02975 250.344C6.20841 251.005 4.0055 253.208 3.3437 256.03C2.88543 257.983 2.88543 260.017 3.3437 261.97C4.0055 264.792 6.20842 266.995 9.02975 267.656C10.9834 268.115 13.0166 268.115 14.9703 267.656C17.7916 266.995 19.9945 264.792 20.6563 261.97C21.1146 260.017 21.1146 257.983 20.6563 256.03C19.9945 253.208 17.7916 251.005 14.9703 250.344ZM12.6219 255.245C13.0373 254.83 13.6008 254.596 14.1883 254.596C15.4117 254.596 16.4035 255.588 16.4035 256.812C16.4035 257.399 16.1701 257.963 15.7547 258.378L13.255 260.878C12.0947 262.038 10.6408 262.861 9.04889 263.259L8.56575 263.38C7.99456 263.523 7.47716 263.005 7.61996 262.434L7.74074 261.951C8.13873 260.359 8.96189 258.905 10.1222 257.745L12.6219 255.245ZM14.1883 255.745C13.9054 255.745 13.6342 255.858 13.4342 256.058L13.0717 256.42C13.0359 256.705 13.1783 257.103 13.5376 257.462C13.8969 257.822 14.2948 257.964 14.5799 257.928L14.9424 257.566C15.1424 257.366 15.2548 257.095 15.2548 256.812C15.2548 256.223 14.7773 255.745 14.1883 255.745ZM13.6171 258.891C13.2757 258.741 12.9685 258.518 12.7253 258.275C12.4821 258.031 12.2591 257.724 12.1089 257.383L10.9345 258.557C9.94927 259.543 9.24245 260.77 8.88471 262.115C10.2299 261.758 11.4575 261.051 12.4427 260.066L13.6171 258.891Z" fill="#365CE6"/>
<path fill-rule="evenodd" clip-rule="evenodd" d="M16.5231 235.7C17.1223 235.611 17.8942 235.594 18.9539 235.59C18.2002 237.418 16.6057 238.798 14.6423 239.258L14.6378 239.259C14.6476 238.497 14.6749 237.909 14.7496 237.434C14.8472 236.813 15.0141 236.47 15.2634 236.221C15.5185 235.966 15.8724 235.796 16.5231 235.7ZM14.9703 223.344C13.0166 222.885 10.9834 222.885 9.02975 223.344C6.20842 224.005 4.0055 226.208 3.3437 229.03C2.88543 230.983 2.88543 233.017 3.3437 234.97C4.0055 237.792 6.20842 239.995 9.02975 240.656C10.6707 241.041 12.3677 241.103 14.0266 240.841C14.3428 240.791 14.6575 240.73 14.9703 240.656C17.7916 239.995 19.9945 237.792 20.6563 234.97C21.1146 233.017 21.1146 230.983 20.6563 229.03C19.9945 226.208 17.7916 224.005 14.9703 223.344ZM8.55374 229.128C8.55374 228.811 8.8109 228.554 9.12812 228.554H12C12.3172 228.554 12.5743 228.811 12.5743 229.128C12.5743 229.445 12.3172 229.702 12 229.702H9.12812C8.8109 229.702 8.55374 229.445 8.55374 229.128ZM8.55374 232C8.55374 231.683 8.8109 231.426 9.12812 231.426H13.9145C14.2318 231.426 14.4889 231.683 14.4889 232C14.4889 232.317 14.2318 232.574 13.9145 232.574H9.12812C8.8109 232.574 8.55374 232.317 8.55374 232Z" fill="#365CE6"/>
<path fill-rule="evenodd" clip-rule="evenodd" d="M16.4735 199.569C16.1393 197.941 14.8994 196.602 13.226 196.159C12.4228 195.947 11.5772 195.947 10.774 196.159C9.10056 196.602 7.86065 197.941 7.52652 199.569C5.7394 200.039 4.29056 201.329 3.62976 203.028C4.78247 203.453 6.07377 203.776 7.43687 203.996V203.686C7.43687 203.293 7.75944 202.975 8.15736 202.975C8.55528 202.975 8.87786 203.293 8.87786 203.686V204.188C10.9249 204.405 13.0751 204.405 15.1221 204.188V203.686C15.1221 203.293 15.4447 202.975 15.8426 202.975C16.2406 202.975 16.5631 203.293 16.5631 203.686V203.996C17.9262 203.776 19.2175 203.453 20.3702 203.028C19.7094 201.329 18.2606 200.039 16.4735 199.569ZM12.8531 197.534C12.2942 197.386 11.7058 197.386 11.1469 197.534C10.2243 197.778 9.49536 198.423 9.13156 199.248C11.0286 198.911 12.9714 198.911 14.8684 199.248C14.5046 198.423 13.7757 197.778 12.8531 197.534Z" fill="#365CE6"/>
<path d="M15.1221 205.618V207.006C15.1221 207.399 15.4447 207.718 15.8426 207.718C16.2406 207.718 16.5631 207.399 16.5631 207.006V205.436C18.0628 205.207 19.4893 204.862 20.7682 204.4C21.1214 205.999 21.0702 207.669 20.6203 209.248C19.9834 211.482 18.1227 213.19 15.8115 213.636C13.2943 214.121 10.7057 214.121 8.18854 213.636C5.87734 213.19 4.0166 211.482 3.37975 209.248C2.92985 207.669 2.87864 205.999 3.23182 204.4C4.51072 204.862 5.93721 205.207 7.43687 205.436V207.006C7.43687 207.399 7.75944 207.718 8.15736 207.718C8.55528 207.718 8.87786 207.399 8.87786 207.006V205.618C10.9298 205.825 13.0702 205.825 15.1221 205.618Z" fill="#365CE6"/>
<path d="M14.8117 138.431C11.9642 137.856 9.03582 137.856 6.18829 138.431C4.40482 138.791 2.96955 140.156 2.47717 141.962L2.43526 142.116C1.85491 144.244 1.85491 146.496 2.43526 148.624L2.47717 148.778C2.96955 150.583 4.40482 151.949 6.1883 152.309C7.38638 152.55 8.59876 152.69 9.81342 152.729V154.583H8.21141C7.83222 154.583 7.52483 154.9 7.52483 155.291C7.52483 155.683 7.83222 156 8.21141 156H12.7886C13.1678 156 13.4752 155.683 13.4752 155.291C13.4752 154.9 13.1678 154.583 12.7886 154.583H11.1866V152.729C12.4012 152.691 13.6136 152.55 14.8117 152.309C16.5952 151.949 18.0305 150.583 18.5228 148.778L18.5647 148.624C19.1451 146.496 19.1451 144.244 18.5647 142.116L18.5228 141.962C18.0305 140.156 16.5952 138.791 14.8117 138.431Z" fill="#365CE6"/>
<path fill-rule="evenodd" clip-rule="evenodd" d="M37.3783 115.886C35.669 114.105 32.7905 114.079 30.9231 115.904C30.9172 115.91 30.9112 115.915 30.9051 115.921C29.0933 117.58 29.0665 120.358 30.9231 122.172L30.928 122.176L37.9374 129.147L45.0769 122.172C45.0828 122.166 45.0888 122.16 45.0949 122.155C46.9067 120.495 46.9335 117.718 45.0769 115.904C43.2195 114.089 40.3268 114.089 38.4694 115.904C38.3227 116.047 38.125 116.126 37.9202 116.123C37.7154 116.119 37.5204 116.034 37.3783 115.886ZM37.9465 114.318C35.5947 112.404 32.1229 112.586 29.8584 114.79C27.368 117.08 27.3969 120.878 29.847 123.274C29.8479 123.275 29.8487 123.276 29.8495 123.277L37.391 130.776C37.689 131.073 38.1688 131.075 38.4694 130.781L46.1419 123.285C48.6328 120.994 48.603 117.195 46.1505 114.799C43.8724 112.573 40.397 112.413 37.9465 114.318Z" fill="#365CE6"/>
<path d="M22 119.075C22 120.72 21.2857 122.159 20.1633 123.29L12.5102 130.794C12.3061 130.897 12.2041 131 12 131C11.7959 131 11.5918 130.897 11.4898 130.794L3.83673 123.187C2.71429 122.056 2 120.514 2 118.869C2 117.327 2.71429 115.888 3.83673 114.757C5.06122 113.627 6.59184 112.907 8.22449 113.01C9.55102 113.01 10.7755 113.524 11.7959 114.346C14.2449 112.393 17.7143 112.599 19.9592 114.86C21.2857 115.888 22 117.43 22 119.075Z" fill="#365CE6"/>
<path d="M5.30769 89.8857C5.30769 87.7397 7.06411 86 9.23077 86C11.3974 86 13.1538 87.7397 13.1538 89.8857C13.1538 92.0317 11.3974 93.7714 9.23077 93.7714C7.06411 93.7714 5.30769 92.0317 5.30769 89.8857Z" fill="#365CE6"/>
<path d="M6.75123 95.5261L6.91563 95.5001C8.44935 95.2577 10.0122 95.2577 11.5459 95.5001L11.7103 95.5261C13.8714 95.8677 15.4615 97.714 15.4615 99.8816C15.4615 101.052 14.504 102 13.3228 102H5.13874C3.95755 102 3 101.052 3 99.8816C3 97.714 4.59016 95.8677 6.75123 95.5261Z" fill="#365CE6"/>
<path d="M14.7692 86C14.3869 86 14.0769 86.307 14.0769 86.6857C14.0769 87.0644 14.3869 87.3714 14.7692 87.3714C16.1712 87.3714 17.3077 88.4971 17.3077 89.8857C17.3077 91.2743 16.1712 92.4 14.7692 92.4C14.3869 92.4 14.0769 92.707 14.0769 93.0857C14.0769 93.4644 14.3869 93.7714 14.7692 93.7714C16.9359 93.7714 18.6923 92.0317 18.6923 89.8857C18.6923 87.7397 16.9359 86 14.7692 86Z" fill="#365CE6"/>
<path d="M15.9149 95.4916C15.5326 95.4916 15.2226 95.7986 15.2226 96.1773C15.2226 96.556 15.5326 96.863 15.9149 96.863H16.8086C16.8829 96.863 16.9573 96.8688 17.0306 96.8804C18.5197 97.1158 19.6154 98.388 19.6154 99.8816C19.6154 100.294 19.2778 100.629 18.8613 100.629H16.9753C16.5929 100.629 16.283 100.936 16.283 101.314C16.283 101.693 16.5929 102 16.9753 102H18.8613C20.0425 102 21 101.052 21 99.8816C21 97.714 19.4098 95.8677 17.2488 95.5261C17.1032 95.5031 16.9559 95.4916 16.8086 95.4916H15.9149Z" fill="#365CE6"/>
<path fill-rule="evenodd" clip-rule="evenodd" d="M13.9703 57.3437C12.0166 56.8854 9.98341 56.8854 8.02975 57.3437C5.20842 58.0055 3.0055 60.2084 2.3437 63.0297C1.88543 64.9834 1.88543 67.0166 2.3437 68.9703C3.0055 71.7916 5.20842 73.9945 8.02975 74.6563C9.98341 75.1146 12.0166 75.1146 13.9703 74.6563C16.7916 73.9945 18.9945 71.7916 19.6563 68.9703C20.1146 67.0166 20.1146 64.9834 19.6563 63.0298C18.9945 60.2084 16.7916 58.0055 13.9703 57.3437ZM11 61.5709C11.3314 61.5709 11.6 61.8395 11.6 62.1709L11.6 63.5933C11.6 63.9247 11.3314 64.1933 11 64.1933C10.6686 64.1933 10.4 63.9247 10.4 63.5933L10.4 62.1709C10.4 61.8395 10.6686 61.5709 11 61.5709ZM14.8357 63.7854C15.0014 64.0724 14.9031 64.4394 14.6161 64.605L13.3843 65.3162C13.0973 65.4819 12.7304 65.3836 12.5647 65.0966C12.399 64.8096 12.4973 64.4427 12.7843 64.277L14.0161 63.5658C14.3031 63.4001 14.6701 63.4985 14.8357 63.7854ZM7.16424 63.7854C7.32992 63.4985 7.69688 63.4001 7.98385 63.5658L9.21577 64.2771C9.50274 64.4427 9.60107 64.8097 9.43538 65.0967C9.2697 65.3836 8.90274 65.482 8.61577 65.3163L7.38385 64.605C7.09688 64.4394 6.99855 64.0724 7.16424 63.7854ZM9.43538 66.9033C9.60107 67.1903 9.50274 67.5573 9.21577 67.7229L7.98385 68.4342C7.69688 68.5999 7.32992 68.5015 7.16424 68.2146C6.99855 67.9276 7.09688 67.5606 7.38385 67.395L8.61577 66.6837C8.90274 66.518 9.2697 66.6164 9.43538 66.9033ZM12.5647 66.9034C12.7304 66.6164 13.0973 66.5181 13.3843 66.6838L14.6161 67.395C14.9031 67.5606 15.0014 67.9276 14.8357 68.2146C14.6701 68.5015 14.3031 68.5999 14.0161 68.4342L12.7843 67.723C12.4973 67.5573 12.399 67.1904 12.5647 66.9034ZM11 67.8068C11.3314 67.8068 11.6 68.0754 11.6 68.4068L11.6 69.8291C11.6 70.1605 11.3314 70.4291 11 70.4291C10.6686 70.4291 10.4 70.1605 10.4 69.8291L10.4 68.4068C10.4 68.0754 10.6686 67.8068 11 67.8068Z" fill="#365CE6"/>
<path fill-rule="evenodd" clip-rule="evenodd" d="M15.8117 28.4309C12.9642 27.8564 10.0358 27.8564 7.18829 28.4309C5.40482 28.7907 3.96955 30.1564 3.47717 31.9619L3.43526 32.1156C2.85491 34.2437 2.85491 36.4959 3.43526 38.6241L3.47717 38.7777C3.96955 40.5833 5.40482 41.9489 7.1883 42.3087C8.38638 42.5505 9.59876 42.6905 10.8134 42.7288V44.5826H9.21141C8.83222 44.5826 8.52483 44.8999 8.52483 45.2913C8.52483 45.6827 8.83222 46 9.21141 46H13.7886C14.1678 46 14.4752 45.6827 14.4752 45.2913C14.4752 44.8999 14.1678 44.5826 13.7886 44.5826H12.1866V42.7288C13.4012 42.6905 14.6136 42.5505 15.8117 42.3087C17.5952 41.9489 19.0305 40.5833 19.5228 38.7777L19.5647 38.6241C20.1451 36.4959 20.1451 34.2437 19.5647 32.1156L19.5228 31.9619C19.0305 30.1564 17.5952 28.7907 15.8117 28.4309ZM13.5469 36.4988C13.5545 36.4917 13.5622 36.4847 13.5698 36.4776L15.0715 35.0825C15.297 34.8731 15.3152 34.5146 15.1123 34.2819C14.9094 34.0491 14.5621 34.0303 14.3366 34.2397L12.8349 35.6348C12.6879 35.7713 12.5927 35.8588 12.5214 35.9167C12.4662 35.8424 12.3949 35.7333 12.2852 35.5635L11.6288 34.5472C11.6231 34.5384 11.6175 34.5296 11.6118 34.5208C11.4902 34.3324 11.369 34.1446 11.2485 34.0052C11.1121 33.8473 10.9141 33.6756 10.6229 33.6378C10.3317 33.6001 10.0987 33.7159 9.92866 33.834C9.77852 33.9384 9.61609 34.0893 9.45309 34.2408C9.44548 34.2479 9.43788 34.255 9.43028 34.262L7.92856 35.6571C7.70308 35.8665 7.6848 36.225 7.88773 36.4578C8.09066 36.6905 8.43795 36.7094 8.66343 36.4999L10.1652 35.1048C10.3121 34.9683 10.4074 34.8809 10.4786 34.8229C10.5338 34.8973 10.6051 35.0063 10.7148 35.1761L11.3712 36.1925C11.3714 36.1928 11.3716 36.1931 11.3718 36.1934C11.3773 36.2018 11.3828 36.2103 11.3882 36.2188C11.5099 36.4073 11.6311 36.595 11.7515 36.7344C11.8879 36.8923 12.086 37.064 12.3772 37.1018C12.6683 37.1396 12.9014 37.0238 13.0714 36.9056C13.2215 36.8013 13.3839 36.6503 13.5469 36.4988Z" fill="#365CE6"/>
<path d="M30.8854 7.84875C31.558 5.13983 33.706 3.04534 36.4306 2.44162L36.8844 2.34105C38.9366 1.88632 41.0634 1.88632 43.1156 2.34105L43.5694 2.44162C46.294 3.04534 48.442 5.13984 49.1146 7.84875C49.6285 9.91815 49.6285 12.0819 49.1146 14.1512C48.442 16.8602 46.294 18.9547 43.5694 19.5584L43.1156 19.659C41.0634 20.1137 38.9366 20.1137 36.8844 19.659L36.4306 19.5584C33.706 18.9547 31.558 16.8602 30.8854 14.1513C30.3715 12.0819 30.3715 9.91815 30.8854 7.84875Z" stroke="#365CE6" stroke-width="1.5"/>
<path fill-rule="evenodd" clip-rule="evenodd" d="M40.0002 6C40.3826 6 40.6926 6.29199 40.6926 6.65217V7.18573H40.7692C42.0567 7.18573 43 8.24015 43 9.41893C43 9.77912 42.69 10.0711 42.3077 10.0711C41.9253 10.0711 41.6154 9.77912 41.6154 9.41893C41.6154 8.85137 41.1811 8.49008 40.7692 8.49008H40.6926V10.5432L41.6273 10.8634C42.4767 11.1544 43 11.9457 43 12.7838C43 13.8506 42.1451 14.8142 40.9666 14.8142H40.6926V15.3478C40.6926 15.708 40.3826 16 40.0002 16C39.6179 16 39.3079 15.708 39.3079 15.3478V14.8142H39.2308C37.9433 14.8142 37 13.7598 37 12.581C37 12.2208 37.31 11.9288 37.6923 11.9288C38.0747 11.9288 38.3846 12.2208 38.3846 12.581C38.3846 13.1486 38.8189 13.5098 39.2308 13.5098H39.3079V11.4568L38.3727 11.1365C37.5233 10.8455 37 10.0542 37 9.2161C37 8.14934 37.8549 7.18573 39.0334 7.18573H39.3079V6.65217C39.3079 6.29199 39.6179 6 40.0002 6ZM39.3079 8.49008H39.0334C38.7306 8.49008 38.3846 8.76055 38.3846 9.2161C38.3846 9.56446 38.6001 9.82645 38.8459 9.91066L39.3079 10.0689V8.49008ZM40.6926 11.9312V13.5098H40.9666C41.2694 13.5098 41.6154 13.2394 41.6154 12.7838C41.6154 12.4355 41.3999 12.1735 41.1541 12.0893L40.6926 11.9312Z" fill="#365CE6"/>
</g>
<defs>
<clipPath id="clip0">
<rect width="53" height="691" fill="white"/>
</clipPath>
</defs>
</svg>
