<svg width="28" height="24" viewBox="0 0 28 24" fill="none" xmlns="http://www.w3.org/2000/svg">
<path d="M11.3033 2.10154L11.3033 2.10151C10.1893 1.26521 8.93675 0.846252 7.55951 0.846252C5.69461 0.846252 3.99642 1.56838 2.76023 2.86986L11.3033 2.10154ZM11.3033 2.10154C12.5837 3.06266 14.4771 3.06299 15.7575 2.10155L11.3033 2.10154ZM9.94198 19.7641L9.94203 19.7642L9.94578 19.7673C10.8754 20.5364 11.9332 21.4115 13.032 22.3441L13.0326 22.3446C13.1667 22.4586 13.343 22.5247 13.5305 22.5247C13.718 22.5247 13.8946 22.4585 14.0281 22.3449L14.0286 22.3446C15.1196 21.4184 16.1708 20.5487 17.0959 19.7832L17.1196 19.7636L17.1197 19.7635C19.8652 17.4924 22.1537 15.5957 23.7337 13.745L23.7337 13.745C25.4701 11.7112 26.2148 9.86532 26.2148 7.89439C26.2148 5.93549 25.524 4.15802 24.3007 2.86991C23.0645 1.56838 21.3664 0.846252 19.5015 0.846252C18.1244 0.846252 16.8718 1.26517 15.7577 2.10146L9.94198 19.7641ZM9.94198 19.7641C7.19614 17.4927 4.90756 15.5958 3.32758 13.7452M9.94198 19.7641L3.32758 13.7452M3.32758 13.7452C1.59109 11.7112 0.846252 9.86526 0.846252 7.89459C0.846252 5.93551 1.53705 4.15805 2.76015 2.86994L3.32758 13.7452Z" stroke="black" stroke-opacity="0.5" stroke-width="1.6925"/>
</svg>
