<svg width="17" height="10" viewBox="0 0 17 10" fill="none" xmlns="http://www.w3.org/2000/svg">
<path d="M15.7678 1.45005C15.711 1.7343 15.4836 2.19857 15.0857 2.84287C14.7066 3.48716 14.3561 4.05565 14.034 4.54835C13.7118 5.0221 13.5412 5.26845 13.5223 5.2874C13.4086 5.45795 13.3517 5.58112 13.3517 5.65692C13.3517 5.73272 13.4086 5.86537 13.5223 6.05487C13.5223 6.05487 13.5792 6.12119 13.6928 6.25384C13.8255 6.38649 13.9771 6.53808 14.1477 6.70864C14.3182 6.87919 14.5077 7.07815 14.7161 7.30556C14.9245 7.53295 15.114 7.76036 15.2846 7.98775C15.4741 8.19621 15.6352 8.41412 15.7678 8.64152C15.9195 8.86892 16.0236 9.05842 16.0805 9.21002C16.2131 9.68377 16.0236 9.92064 15.512 9.92064H13.835C13.7023 9.92064 13.5886 9.90169 13.4938 9.86378C13.3991 9.82588 13.2948 9.75956 13.1812 9.66482C13.0675 9.57006 12.9632 9.46584 12.8685 9.35214C12.7737 9.23844 12.6316 9.07737 12.4421 8.86892C12.2526 8.66047 12.0631 8.46149 11.8736 8.272C11.1157 7.5519 10.5566 7.19186 10.1966 7.19186C9.96919 7.19186 9.83653 7.25818 9.79864 7.39084C9.76074 7.52348 9.74179 7.90247 9.74179 8.52783C9.76074 8.83102 9.77021 9.07737 9.77021 9.26686C9.77021 9.49426 9.69442 9.66482 9.54281 9.77851C9.39122 9.87327 9.0596 9.92064 8.54795 9.92064C7.6573 9.92064 6.75719 9.65534 5.8476 9.12475C4.938 8.59415 4.14211 7.83615 3.45991 6.85077C2.81562 5.97906 2.27555 5.11685 1.8397 4.2641C1.4228 3.39241 1.14803 2.72917 1.01538 2.27437C0.882731 1.81957 0.816406 1.49743 0.816406 1.30793C0.816406 0.985781 1.00591 0.824707 1.38491 0.824707H3.06197C3.27041 0.824707 3.42201 0.872082 3.51676 0.966831C3.63046 1.06158 3.72521 1.23213 3.801 1.47848C4.19896 2.63442 4.68218 3.66719 5.25068 4.57678C5.83812 5.48638 6.28344 5.94117 6.58664 5.94117C6.70034 5.94117 6.77613 5.90327 6.81403 5.82747C6.87089 5.73272 6.89931 5.56217 6.89931 5.31582V2.84287C6.88036 2.57757 6.83298 2.35017 6.75719 2.16068C6.68139 1.97117 6.60559 1.83852 6.52978 1.76272C6.45399 1.66798 6.37819 1.57322 6.30239 1.47848C6.24554 1.38373 6.21711 1.29845 6.21711 1.22265C6.21711 1.14685 6.23606 1.08053 6.27396 1.02368C6.31186 0.966831 6.35924 0.919456 6.41609 0.881557C6.49189 0.843657 6.56768 0.824707 6.64349 0.824707H9.28699C9.59019 0.824707 9.74179 1.03316 9.74179 1.45005V4.74733C9.74179 5.06947 9.82706 5.23055 9.99761 5.23055C10.1871 5.23055 10.4524 5.06 10.7935 4.7189C11.1535 4.32095 11.5041 3.83774 11.8452 3.26924C12.1863 2.70075 12.4421 2.227 12.6127 1.848L12.8685 1.30793C13.0012 0.985781 13.2381 0.824707 13.5792 0.824707H15.2562C15.711 0.824707 15.8815 1.03316 15.7678 1.45005Z" fill="#365CE6"/>
</svg>
