<svg width="19" height="16" viewBox="0 0 19 16" fill="none" xmlns="http://www.w3.org/2000/svg">
<path d="M17.4316 2H14.1816V0.75C14.1816 0.34375 13.8379 0 13.4316 0H4.93164C4.49414 0 4.18164 0.34375 4.18164 0.75V2H0.931641C0.494141 2 0.181641 2.34375 0.181641 2.75V4.5C0.181641 5.625 0.869141 6.78125 2.08789 7.65625C3.08789 8.375 4.27539 8.8125 5.52539 8.96875C6.52539 10.5938 7.68164 11.25 7.68164 11.25V13.5H6.18164C5.05664 13.5 4.18164 14.1562 4.18164 15.25V15.625C4.18164 15.8438 4.33789 16 4.55664 16H13.8066C13.9941 16 14.1816 15.8438 14.1816 15.625V15.25C14.1816 14.1562 13.2754 13.5 12.1816 13.5H10.6816V11.25C10.6816 11.25 11.8066 10.5938 12.8066 8.96875C14.0566 8.8125 15.2441 8.375 16.2441 7.65625C17.4629 6.78125 18.1816 5.625 18.1816 4.5V2.75C18.1816 2.34375 17.8379 2 17.4316 2ZM3.27539 6.03125C2.49414 5.5 2.18164 4.875 2.18164 4.5V4H4.18164C4.21289 5.03125 4.36914 5.9375 4.58789 6.71875C4.08789 6.53125 3.65039 6.3125 3.27539 6.03125ZM16.1816 4.5C16.1816 5.03125 15.6191 5.65625 15.0566 6.03125C14.6816 6.3125 14.2441 6.53125 13.7441 6.71875C13.9629 5.9375 14.1191 5.03125 14.1504 4H16.1816V4.5Z" fill="black"/>
</svg>
