<svg width="16" height="17" viewBox="0 0 16 17" fill="none" xmlns="http://www.w3.org/2000/svg">
<path d="M8 0.874146C3.71875 0.874146 0.25 4.3429 0.25 8.62415C0.25 12.9054 3.71875 16.3741 8 16.3741C12.2812 16.3741 15.75 12.9054 15.75 8.62415C15.75 4.3429 12.2812 0.874146 8 0.874146ZM8 14.8741C4.53125 14.8741 1.75 12.0929 1.75 8.62415C1.75 5.18665 4.53125 2.37415 8 2.37415C11.4375 2.37415 14.25 5.18665 14.25 8.62415C14.25 12.0929 11.4375 14.8741 8 14.8741ZM9.90625 11.6241C10.0938 11.7491 10.3125 11.7179 10.4375 11.5304L11.0312 10.7491C11.1562 10.5616 11.125 10.3429 10.9375 10.2179L8.875 8.68665V4.24915C8.875 4.06165 8.6875 3.87415 8.5 3.87415H7.5C7.28125 3.87415 7.125 4.06165 7.125 4.24915V9.4054C7.125 9.49915 7.15625 9.62415 7.25 9.68665L9.90625 11.6241Z" fill="#365CE6"/>
</svg>
