<svg width="16" height="11" viewBox="0 0 16 11" fill="none" xmlns="http://www.w3.org/2000/svg">
<path d="M7.875 2.31165C8.73177 2.31165 9.45182 2.61243 10.0352 3.21399C10.6367 3.79732 10.9375 4.51737 10.9375 5.37415C10.9375 6.21269 10.6367 6.93274 10.0352 7.5343C9.45182 8.11764 8.73177 8.4093 7.875 8.4093C7.03646 8.4093 6.31641 8.11764 5.71484 7.5343C5.13151 6.93274 4.83984 6.21269 4.83984 5.37415C4.83984 5.08248 4.8763 4.79993 4.94922 4.52649C5.1862 4.65409 5.43229 4.7179 5.6875 4.7179C6.10677 4.7179 6.46224 4.57206 6.75391 4.2804C7.0638 3.9705 7.21875 3.60592 7.21875 3.18665C7.21875 2.93144 7.15495 2.68534 7.02734 2.44836C7.30078 2.35722 7.58333 2.31165 7.875 2.31165ZM15.668 4.96399C15.7227 5.09159 15.75 5.22831 15.75 5.37415C15.75 5.51998 15.7227 5.6567 15.668 5.7843C14.9023 7.24264 13.8268 8.41842 12.4414 9.31165C11.056 10.1866 9.53385 10.6241 7.875 10.6241C6.78125 10.6241 5.72396 10.4236 4.70312 10.0226C3.70052 9.60331 2.80729 9.03821 2.02344 8.32727C1.23958 7.5981 0.592448 6.75045 0.0820312 5.7843C0.0273438 5.6567 0 5.51998 0 5.37415C0 5.22831 0.0273438 5.09159 0.0820312 4.96399C0.847656 3.50566 1.92318 2.33899 3.30859 1.46399C4.69401 0.57076 6.21615 0.124146 7.875 0.124146C9.53385 0.124146 11.056 0.57076 12.4414 1.46399C13.8268 2.33899 14.9023 3.50566 15.668 4.96399ZM7.875 9.31165C9.22396 9.31165 10.4727 8.96529 11.6211 8.27258C12.7878 7.56165 13.7083 6.5955 14.3828 5.37415C13.7083 4.15279 12.7878 3.19576 11.6211 2.50305C10.4727 1.79211 9.22396 1.43665 7.875 1.43665C6.52604 1.43665 5.26823 1.79211 4.10156 2.50305C2.95312 3.19576 2.04167 4.15279 1.36719 5.37415C1.80469 6.17623 2.36068 6.87805 3.03516 7.47961C3.70964 8.06295 4.45703 8.51868 5.27734 8.8468C6.11589 9.1567 6.98177 9.31165 7.875 9.31165Z" fill="#365CE6"/>
</svg>
