<svg width="13" height="14" viewBox="0 0 13 14" fill="none" xmlns="http://www.w3.org/2000/svg">
<path d="M12.7969 7.125C12.7969 3.67188 9.95312 0.828125 6.5 0.828125C3.02148 0.828125 0.203125 3.67188 0.203125 7.125C0.203125 10.6035 3.02148 13.4219 6.5 13.4219C9.95312 13.4219 12.7969 10.6035 12.7969 7.125ZM6.65234 2.91016C8.09961 2.91016 9.62305 4.02734 9.62305 5.5C9.62305 7.48047 7.51562 7.50586 7.51562 8.2168V8.24219C7.51562 8.41992 7.36328 8.54688 7.21094 8.54688H5.78906C5.61133 8.54688 5.48438 8.41992 5.48438 8.24219V8.14062C5.48438 7.09961 6.27148 6.69336 6.85547 6.36328C7.36328 6.08398 7.69336 5.88086 7.69336 5.5C7.69336 4.99219 7.0332 4.66211 6.52539 4.66211C5.83984 4.66211 5.53516 4.99219 5.07812 5.57617C4.97656 5.70312 4.77344 5.72852 4.64648 5.62695L3.75781 4.9668C3.63086 4.86523 3.60547 4.6875 3.70703 4.53516C4.39258 3.49414 5.28125 2.91016 6.65234 2.91016ZM6.5 9.20703C7.13477 9.20703 7.66797 9.74023 7.66797 10.375C7.66797 11.0352 7.13477 11.543 6.5 11.543C5.83984 11.543 5.33203 11.0352 5.33203 10.375C5.33203 9.74023 5.83984 9.20703 6.5 9.20703Z" fill="#365CE6"/>
</svg>
