<svg width="10" height="17" viewBox="0 0 10 17" fill="none" xmlns="http://www.w3.org/2000/svg">
<path d="M9.30847 9.49888H6.87206V16.7756H3.62351V9.49888H0.992188V6.47773H3.62351V4.20375C3.62351 3.33747 3.78594 2.60113 4.11079 1.99474C4.43565 1.38835 4.89044 0.933547 5.47518 0.630348C6.08157 0.305494 6.7746 0.143066 7.55425 0.143066C7.90076 0.143066 8.26893 0.164723 8.65876 0.208037C9.04858 0.229694 9.35178 0.262179 9.56835 0.305494L9.89321 0.337979V2.90433H8.59379C7.98739 2.90433 7.54342 3.06676 7.26188 3.39161C7.002 3.69481 6.87206 4.07381 6.87206 4.5286V6.47773H9.76326L9.30847 9.49888Z" fill="#365CE6"/>
</svg>
