<svg width="20" height="20" viewBox="0 0 20 20" fill="none" xmlns="http://www.w3.org/2000/svg">
<g clip-path="url(#clip0_1_3106)">
<path d="M19.998 10.0048C19.998 11.9785 19.4122 13.8979 18.3039 15.5557C17.6921 16.3947 16.4639 15.5703 17.0051 14.6873C20.775 9.18207 16.6599 1.51235 9.99891 1.56816C5.34706 1.56812 1.56235 5.35283 1.56235 10.0048C1.50642 16.5019 8.84227 20.6342 14.3634 17.2265C14.7324 17.003 15.2127 17.1209 15.4362 17.49C15.6598 17.859 15.5418 18.3393 15.1728 18.5628C11.3572 20.9353 6.06258 20.3088 2.92862 17.0751C-3.34123 10.7925 1.12435 0.0141729 9.99911 0.0058143C15.3733 -0.105034 20.1094 4.63005 19.998 10.0048ZM9.99903 12.3483C10.4305 12.3483 10.7802 11.9986 10.7802 11.5671V10.786H14.3345C15.371 10.7447 15.3702 9.26452 14.3345 9.22363H10.7802V3.75541C10.739 2.71895 9.25875 2.71973 9.21785 3.75541V9.22363H8.43668C7.40022 9.26487 7.401 10.7451 8.43668 10.786H9.21785V11.5671C9.21785 11.9986 9.56758 12.3483 9.99903 12.3483Z" fill="#141736" fill-opacity="0.4"/>
</g>
<defs>
<clipPath id="clip0_1_3106">
<rect width="20" height="20" fill="white"/>
</clipPath>
</defs>
</svg>
