<svg width="23" height="20" viewBox="0 0 23 20" fill="none" xmlns="http://www.w3.org/2000/svg">
<path d="M10.0193 2.39166L10.0193 2.39163C9.14777 1.73735 8.17065 1.41071 7.09419 1.41071C5.63167 1.41071 4.30361 1.97643 3.33715 2.99393L10.0193 2.39166ZM10.0193 2.39166C11.1111 3.21121 12.7196 3.21151 13.8115 2.39167C14.6832 1.73735 15.6604 1.41071 16.7368 1.41071C18.1993 1.41071 19.5273 1.97644 20.4938 2.99401C21.4505 4.00146 21.9945 5.39549 21.9945 6.9388C21.9945 8.48193 21.414 9.93624 20.0302 11.5571L20.0301 11.5571C18.7656 13.0384 16.9303 14.5601 14.7097 16.397L14.7096 16.3971L14.69 16.4134C13.9432 17.0312 13.0938 17.734 12.2122 18.4824L12.2118 18.4828C12.1338 18.549 12.0288 18.5891 11.9155 18.5891C11.8022 18.5891 11.6973 18.5492 11.619 18.4825L11.6184 18.482C10.7301 17.7282 9.87518 17.0208 9.12458 16.3998L9.12182 16.3975L9.12178 16.3975M10.0193 2.39166L9.12178 16.3975M20.6737 12.1066C19.3512 13.6558 17.4503 15.2282 15.2494 17.0488L15.2491 17.0491L15.2308 17.0642C14.4833 17.6828 13.6374 18.3826 12.7599 19.1276C12.5265 19.326 12.2264 19.4354 11.9155 19.4354L20.6737 12.1066ZM20.6737 12.1066C22.1523 10.3749 22.8408 8.73281 22.8408 6.9388M20.6737 12.1066L22.8408 6.9388M9.12178 16.3975C6.90089 14.5603 5.0656 13.0384 3.80103 11.5573C2.4171 9.9362 1.83649 8.48187 1.83649 6.93896C1.83649 5.3955 2.38048 4.00146 3.33707 2.99401L9.12178 16.3975ZM22.8408 6.9388C22.8408 5.19609 22.2251 3.58818 21.1073 2.41122L22.8408 6.9388Z" stroke="#365CE6" stroke-opacity="0.5" stroke-width="1.6925"/>
</svg>
