<svg width="20" height="14" viewBox="0 0 20 14" fill="none" xmlns="http://www.w3.org/2000/svg">
<path d="M19.5913 2.56849C19.3702 1.74648 18.7221 1.09849 17.9002 0.877142C16.3987 0.466309 10.3925 0.466309 10.3925 0.466309C10.3925 0.466309 4.3866 0.466309 2.88509 0.861566C2.079 1.08268 1.41508 1.74659 1.19397 2.56849C0.798828 4.06989 0.798828 7.18358 0.798828 7.18358C0.798828 7.18358 0.798828 10.313 1.19397 11.7987C1.41531 12.6206 2.06318 13.2686 2.8852 13.4899C4.40241 13.9009 10.3928 13.9009 10.3928 13.9009C10.3928 13.9009 16.3987 13.9009 17.9002 13.5056C18.7222 13.2844 19.3702 12.6364 19.5916 11.8145C19.9866 10.313 19.9866 7.19939 19.9866 7.19939C19.9866 7.19939 20.0024 4.06989 19.5913 2.56849ZM8.4803 10.0601V4.30704L13.4747 7.18358L8.4803 10.0601Z" fill="#365CE6"/>
</svg>
