<svg width="22" height="22" viewBox="0 0 22 22" fill="none" xmlns="http://www.w3.org/2000/svg">
<path d="M1.59204 12.9295L2.32222 12.7582L1.59204 12.9295ZM1.59204 7.01766L2.32222 7.18894L1.59204 7.01766ZM18.3551 7.01767L19.0853 6.84639L19.0853 6.84639L18.3551 7.01767ZM18.3551 12.9295L19.0853 13.1007L18.3551 12.9295ZM12.9295 18.3551L12.7582 17.6249L12.9295 18.3551ZM7.01767 18.3551L6.84639 19.0853L7.01767 18.3551ZM7.01767 1.59204L6.84639 0.861857L6.84639 0.861857L7.01767 1.59204ZM12.9295 1.59204L13.1007 0.861857L12.9295 1.59204ZM20.2197 21.2803C20.5126 21.5732 20.9874 21.5732 21.2803 21.2803C21.5732 20.9874 21.5732 20.5126 21.2803 20.2197L20.2197 21.2803ZM2.32222 12.7582C1.89259 10.9266 1.89259 9.0205 2.32222 7.18894L0.861858 6.84639C0.379381 8.90326 0.379381 11.0439 0.861858 13.1008L2.32222 12.7582ZM17.6249 7.18895C18.0545 9.0205 18.0545 10.9266 17.6249 12.7582L19.0853 13.1007C19.5678 11.0439 19.5678 8.90326 19.0853 6.84639L17.6249 7.18895ZM12.7582 17.6249C10.9266 18.0545 9.0205 18.0545 7.18895 17.6249L6.84639 19.0853C8.90326 19.5678 11.0439 19.5678 13.1007 19.0853L12.7582 17.6249ZM7.18894 2.32222C9.0205 1.89259 10.9266 1.89259 12.7582 2.32222L13.1007 0.861857C11.0439 0.379381 8.90326 0.379381 6.84639 0.861857L7.18894 2.32222ZM7.18895 17.6249C4.77415 17.0585 2.88865 15.173 2.32222 12.7582L0.861858 13.1008C1.55839 16.0702 3.87696 18.3887 6.84639 19.0853L7.18895 17.6249ZM13.1007 19.0853C16.0702 18.3887 18.3887 16.0702 19.0853 13.1007L17.6249 12.7582C17.0585 15.173 15.173 17.0585 12.7582 17.6249L13.1007 19.0853ZM12.7582 2.32222C15.173 2.88865 17.0585 4.77415 17.6249 7.18895L19.0853 6.84639C18.3887 3.87696 16.0702 1.55839 13.1007 0.861857L12.7582 2.32222ZM6.84639 0.861857C3.87695 1.55839 1.55839 3.87695 0.861858 6.84639L2.32222 7.18894C2.88865 4.77415 4.77415 2.88865 7.18894 2.32222L6.84639 0.861857ZM16.2494 17.3101L20.2197 21.2803L21.2803 20.2197L17.3101 16.2494L16.2494 17.3101Z" fill="#CECECE"/>
</svg>
