<svg width="14" height="15" viewBox="0 0 14 15" fill="none" xmlns="http://www.w3.org/2000/svg">
<path d="M13.7812 7.37415C13.7812 3.6554 10.7188 0.592896 7 0.592896C3.25391 0.592896 0.21875 3.6554 0.21875 7.37415C0.21875 11.1202 3.25391 14.1554 7 14.1554C10.7188 14.1554 13.7812 11.1202 13.7812 7.37415ZM7 8.74133C7.68359 8.74133 8.25781 9.31555 8.25781 9.99915C8.25781 10.7101 7.68359 11.257 7 11.257C6.28906 11.257 5.74219 10.7101 5.74219 9.99915C5.74219 9.31555 6.28906 8.74133 7 8.74133ZM5.79688 4.22961C5.76953 4.03821 5.93359 3.87415 6.125 3.87415H7.84766C8.03906 3.87415 8.20312 4.03821 8.17578 4.22961L7.98438 7.94836C7.95703 8.13977 7.82031 8.24915 7.65625 8.24915H6.31641C6.15234 8.24915 6.01562 8.13977 5.98828 7.94836L5.79688 4.22961Z" fill="#365CE6"/>
</svg>
