<svg width="17" height="16" viewBox="0 0 17 16" fill="none" xmlns="http://www.w3.org/2000/svg">
<path d="M15.9949 2.26661L13.6214 14.2896C13.4352 15.1467 13.0047 15.3735 12.3299 14.9703L8.73473 12.0968L6.98951 13.9116C6.75681 14.1636 6.51248 14.2896 6.25651 14.2896L6.53575 10.3198L13.2025 3.81675C13.3653 3.64031 13.3653 3.53948 13.2025 3.51428C13.0629 3.46386 12.9116 3.50167 12.7488 3.6277L4.51129 9.26114L0.951035 8.05128C0.555451 7.92525 0.369295 7.7362 0.392564 7.48415C0.415834 7.2321 0.660165 7.01785 1.12556 6.84141L14.9827 1.01893C15.3316 0.892903 15.6108 0.943314 15.8204 1.17016C16.0297 1.37181 16.0879 1.73729 15.9949 2.26661Z" fill="#365CE6"/>
</svg>
