<svg width="18" height="16" viewBox="0 0 18 16" fill="none" xmlns="http://www.w3.org/2000/svg">
<path fill-rule="evenodd" clip-rule="evenodd" d="M6.43523 1.78571C5.37314 1.78571 4.51215 2.64917 4.51215 3.71429C4.51215 4.77941 5.37314 5.64286 6.43523 5.64286C7.49732 5.64286 8.35831 4.77941 8.35831 3.71429C8.35831 2.64917 7.49732 1.78571 6.43523 1.78571ZM3.2301 3.71429C3.2301 1.93908 4.66509 0.5 6.43523 0.5C8.20537 0.5 9.64036 1.93908 9.64036 3.71429C9.64036 5.48949 8.20537 6.92857 6.43523 6.92857C4.66509 6.92857 3.2301 5.48949 3.2301 3.71429Z" fill="#585858"/>
<path fill-rule="evenodd" clip-rule="evenodd" d="M0.666016 3.71438C0.666016 3.35934 0.953012 3.07152 1.30704 3.07152H3.87114C4.22517 3.07152 4.51215 3.35925 4.51215 3.71429C4.51215 4.06933 4.22517 4.35724 3.87114 4.35724H1.30704C0.953012 4.35724 0.666016 4.06942 0.666016 3.71438Z" fill="#585858"/>
<path fill-rule="evenodd" clip-rule="evenodd" d="M8.35831 3.71429C8.35831 3.35925 8.64527 3.07161 8.9993 3.07161L16.6916 3.07161C17.0456 3.07161 17.3326 3.35943 17.3326 3.71447C17.3326 4.06951 17.0456 4.35733 16.6916 4.35733L8.9993 4.35733C8.64527 4.35733 8.35831 4.06933 8.35831 3.71429Z" fill="#585858"/>
<path fill-rule="evenodd" clip-rule="evenodd" d="M11.5634 10.3571C12.6255 10.3571 13.4865 11.2205 13.4865 12.2857C13.4865 13.3508 12.6255 14.2142 11.5634 14.2142C10.5013 14.2142 9.64035 13.3508 9.64035 12.2857C9.64035 11.2205 10.5013 10.3571 11.5634 10.3571ZM14.7686 12.2857C14.7686 10.5105 13.3336 9.07137 11.5634 9.07137C9.79329 9.07137 8.3583 10.5105 8.3583 12.2857C8.3583 14.0609 9.79329 15.4999 11.5634 15.4999C13.3336 15.4999 14.7686 14.0609 14.7686 12.2857Z" fill="#585858"/>
<path fill-rule="evenodd" clip-rule="evenodd" d="M17.3327 12.2858C17.3327 11.9307 17.0457 11.6429 16.6916 11.6429H14.1275C13.7735 11.6429 13.4865 11.9306 13.4865 12.2857C13.4865 12.6407 13.7735 12.9286 14.1275 12.9286H16.6916C17.0457 12.9286 17.3327 12.6408 17.3327 12.2858Z" fill="#585858"/>
<path fill-rule="evenodd" clip-rule="evenodd" d="M9.64035 12.2857C9.64035 11.9306 9.35339 11.643 8.99936 11.643H1.30706C0.953032 11.643 0.666034 11.9308 0.666034 12.2858C0.666034 12.6409 0.953032 12.9287 1.30706 12.9287L8.99936 12.9287C9.35339 12.9287 9.64035 12.6407 9.64035 12.2857Z" fill="#585858"/>
</svg>
