<svg width="15" height="19" viewBox="0 0 15 19" fill="none" xmlns="http://www.w3.org/2000/svg">
<path d="M14.5718 3.41466L7.76629 0.55375C7.5958 0.482101 7.40417 0.482066 7.23372 0.55375L0.42816 3.41466C0.168958 3.52365 0 3.77987 0 4.06403V7.54187C0 12.3306 2.85865 16.6382 7.23757 18.4479C7.40576 18.5174 7.5942 18.5174 7.76243 18.4479C12.1413 16.6382 15 12.3306 15 7.54187V4.06403C15 3.77987 14.8311 3.52365 14.5718 3.41466ZM13.6111 7.54187C13.6111 11.6128 11.25 15.3603 7.5 17.0331C3.85021 15.405 1.38889 11.7231 1.38889 7.54187V4.53344L7.5 1.96443L13.6111 4.53344V7.54187ZM6.73243 9.91189L9.71729 6.88975C9.98847 6.61518 10.4282 6.61515 10.6994 6.88975C10.9706 7.16436 10.9706 7.60954 10.6993 7.88411L7.22347 11.4034C6.95222 11.6781 6.51254 11.678 6.24139 11.4034L4.30063 9.43841C4.02941 9.1638 4.02941 8.71862 4.30063 8.44405C4.57184 8.16948 5.01153 8.16944 5.28271 8.44405L6.73243 9.91189Z" fill="#06C43B"/>
</svg>
