<svg width="20" height="20" viewBox="0 0 20 20" fill="none" xmlns="http://www.w3.org/2000/svg">
<path d="M18.6855 2.79908C18.6496 2.54122 18.464 2.32911 18.2132 2.25939L10.1749 0.0239216C10.0603 -0.00797385 9.93923 -0.00797385 9.82454 0.0239216L1.7862 2.25939C1.53539 2.32911 1.34986 2.54113 1.31395 2.79908C1.26733 3.13434 0.203712 11.0556 2.93182 14.9961C5.6567 18.932 9.67648 19.9406 9.84624 19.9817C9.8967 19.9939 9.94811 19.9999 9.9997 19.9999C10.0513 19.9999 10.1027 19.9938 10.1532 19.9817C10.323 19.9406 14.3428 18.932 17.0676 14.9961C19.7957 11.0556 18.7321 3.13442 18.6855 2.79908ZM15.1834 7.42357L9.70045 12.9065C9.57286 13.0341 9.40554 13.098 9.23831 13.098C9.07108 13.098 8.90376 13.0342 8.77618 12.9065L5.38611 9.51647C5.26349 9.39394 5.19465 9.22767 5.19465 9.05434C5.19465 8.881 5.26358 8.71473 5.38611 8.5922L6.05922 7.91908C6.31448 7.66392 6.72833 7.66383 6.9835 7.91908L9.23831 10.1739L13.586 5.8261C13.7085 5.70349 13.8748 5.63464 14.0482 5.63464C14.2215 5.63464 14.3878 5.70349 14.5103 5.8261L15.1834 6.49922C15.4387 6.75447 15.4387 7.16832 15.1834 7.42357Z" fill="#7BB7EE"/>
</svg>
