<svg width="24" height="20" viewBox="0 0 24 20" fill="none" xmlns="http://www.w3.org/2000/svg">
<path fill-rule="evenodd" clip-rule="evenodd" d="M12.0305 4.6947L11.4678 4.4602C11.4611 4.45641 11.448 4.44882 11.4267 4.43578L11.3765 4.40467C11.3573 4.39279 11.3323 4.37727 11.3062 4.36134C11.2548 4.33003 11.1806 4.2859 11.0946 4.24109L10.9214 4.1509L10.6931 3.19933L10.6929 3.1752L10.6928 3.125C10.6928 2.26107 11.3255 1.6925 12.0002 1.6925C12.3831 1.6925 12.8375 1.94014 13.111 2.42851L13.4054 2.95424L13.194 3.6462C13.073 4.04236 12.8036 4.33229 12.4818 4.48314L12.0305 4.6947ZM14.8127 4.14062C14.5502 5 13.9502 5.66406 13.2002 6.01562V17.5H19.8001C20.1001 17.5 20.4001 17.8125 20.4001 18.125V19.375C20.4001 19.7266 20.1001 20 19.8001 20H11.4002C11.0627 20 10.8003 19.7266 10.8003 19.375V6.01562C10.685 5.96759 10.5839 5.90479 10.4882 5.84538C10.4283 5.80817 10.3705 5.77228 10.3128 5.74219L4.95036 7.57812C4.76779 7.64944 4.57133 7.61949 4.42015 7.50586C4.32291 7.43279 4.24441 7.32511 4.20038 7.1875L3.82539 6.01562C3.71289 5.66406 3.90038 5.3125 4.20038 5.23438L9.03779 3.55469C9.00029 3.39844 9.00029 3.28125 9.00029 3.125C9.00029 1.40625 10.3128 0 12.0002 0C13.0877 0 14.0627 0.664062 14.5877 1.60156L19.0126 0.0390625C19.3126 -0.0390625 19.6501 0.117188 19.7626 0.429688L20.1376 1.64062C20.2064 1.83195 20.1629 2.0379 20.0499 2.19576C19.9783 2.29574 19.8789 2.37643 19.7626 2.42188L14.8127 4.14062ZM17.981 4.2535C17.8242 4.40224 17.6896 4.58597 17.5876 4.80469C17.5554 4.87113 17.5234 4.93689 17.4918 5.00198C16.0776 7.91418 15.3095 9.48146 14.8927 10.3738C14.4715 11.2755 14.409 11.4879 14.4008 11.7023C14.4007 11.7059 14.4006 11.7095 14.4005 11.7131C14.399 11.7634 14.4002 11.8144 14.4002 11.875C14.4002 12.252 14.4985 12.6111 14.6793 12.9425C14.741 13.0557 14.8124 13.1657 14.8927 13.2721C15.6738 14.3064 17.3038 15 19.2001 15C20.8856 15 22.3855 14.4363 23.2433 13.5675C23.4349 13.3734 23.5944 13.1641 23.7169 12.9425C23.8346 12.7294 23.918 12.5049 23.9625 12.2716C23.9872 12.142 24 12.0096 24 11.875H23.9625C23.9625 11.8338 23.9628 11.7967 23.9625 11.7613C23.9623 11.7351 23.9617 11.7098 23.9603 11.6845C23.9591 11.6631 23.9574 11.6418 23.9549 11.6199C23.9043 11.1747 23.5271 10.5053 20.7751 4.80469C20.6892 4.6205 20.5802 4.46113 20.4542 4.32657C20.364 4.23017 20.2651 4.1465 20.1598 4.07557C19.4958 3.62817 18.5777 3.68748 17.981 4.2535ZM9.55522 16.6199C9.53256 16.4207 9.44454 16.1767 9.10775 15.4573C8.69174 14.5687 7.89616 12.9549 6.37534 9.80469C6.28946 9.6205 6.18044 9.46113 6.05451 9.32657C5.96829 9.23444 5.87414 9.15394 5.77406 9.08507C5.67904 9.01967 5.57867 8.96477 5.47468 8.92035C5.44986 8.90976 5.42484 8.89975 5.39963 8.89035C4.86951 8.69256 4.25832 8.75897 3.78265 9.08958C3.71234 9.13845 3.64499 9.19309 3.5813 9.2535C3.42449 9.40224 3.28988 9.58597 3.1879 9.80469C0.25385 15.8479 0.0174634 16.271 0.00111413 16.7023C0.000977735 16.7059 0.000856651 16.7095 0.000749444 16.7131C-0.000745827 16.7634 0.000458342 16.8144 0.000458342 16.875C0.000458342 17.252 0.0987853 17.6111 0.27953 17.9425C0.941495 19.1564 2.70896 20 4.80037 20C6.48583 20 7.98578 19.4363 8.84355 18.5675C8.93994 18.4699 9.02822 18.3684 9.10775 18.2634C9.1863 18.1597 9.2563 18.0526 9.31714 17.9425C9.43484 17.7294 9.51823 17.5049 9.56278 17.2716C9.58752 17.142 9.60028 17.0096 9.60028 16.875H9.56278C9.56278 16.8338 9.5631 16.7967 9.56278 16.7613C9.56253 16.735 9.56193 16.7097 9.56057 16.6845C9.55941 16.6631 9.55771 16.6418 9.55522 16.6199ZM6.75082 17.9425H2.83337C3.35359 18.1605 4.02557 18.3075 4.80037 18.3075C5.55862 18.3075 6.22753 18.1614 6.75082 17.9425ZM2.10042 16.25L4.80037 10.625L7.50032 16.25H2.10042ZM17.2331 12.9425H21.1505C20.6273 13.1614 19.9583 13.3075 19.2001 13.3075C18.4253 13.3075 17.7533 13.1605 17.2331 12.9425ZM16.5001 11.25L19.2001 5.625L21.9 11.25H16.5001Z" fill="#365CE6" fill-opacity="0.5"/>
</svg>
