<svg width="133" height="19" viewBox="0 0 133 19" fill="none" xmlns="http://www.w3.org/2000/svg">
<path d="M0.704 18V1.08H12.128V3.984H4.424V8.112H11.6V11.016H4.424V18H0.704ZM17.5948 18.264C16.7148 18.264 15.9388 18.096 15.2668 17.76C14.5948 17.424 14.0588 16.968 13.6588 16.392C13.2748 15.816 13.0828 15.168 13.0828 14.448C13.0828 13.6 13.3068 12.92 13.7548 12.408C14.2028 11.896 14.9308 11.536 15.9388 11.328C16.9468 11.104 18.2828 10.992 19.9468 10.992H20.8108V10.584C20.8108 9.88 20.6508 9.384 20.3308 9.096C20.0108 8.792 19.4668 8.64 18.6988 8.64C18.0588 8.64 17.3788 8.744 16.6588 8.952C15.9548 9.144 15.2508 9.44 14.5468 9.84L13.5628 7.416C13.9788 7.144 14.4828 6.896 15.0748 6.672C15.6828 6.448 16.3148 6.28 16.9708 6.168C17.6268 6.04 18.2508 5.976 18.8428 5.976C20.6668 5.976 22.0268 6.392 22.9228 7.224C23.8188 8.04 24.2668 9.312 24.2668 11.04V18H20.8828V16.224C20.6428 16.848 20.2348 17.344 19.6588 17.712C19.0988 18.08 18.4108 18.264 17.5948 18.264ZM18.4108 15.84C19.0828 15.84 19.6508 15.608 20.1148 15.144C20.5788 14.68 20.8108 14.08 20.8108 13.344V12.864H19.9708C18.7388 12.864 17.8668 12.976 17.3548 13.2C16.8428 13.408 16.5868 13.776 16.5868 14.304C16.5868 14.752 16.7388 15.12 17.0428 15.408C17.3628 15.696 17.8188 15.84 18.4108 15.84ZM32.7061 18.264C31.4261 18.264 30.3061 18.016 29.3461 17.52C28.4021 17.008 27.6741 16.288 27.1621 15.36C26.6501 14.432 26.3941 13.336 26.3941 12.072C26.3941 10.808 26.6501 9.72 27.1621 8.808C27.6741 7.896 28.4021 7.2 29.3461 6.72C30.3061 6.224 31.4261 5.976 32.7061 5.976C33.4581 5.976 34.2181 6.088 34.9861 6.312C35.7541 6.536 36.3781 6.856 36.8581 7.272L35.8501 9.768C35.4501 9.448 35.0021 9.2 34.5061 9.024C34.0101 8.832 33.5301 8.736 33.0661 8.736C32.1221 8.736 31.3861 9.032 30.8581 9.624C30.3461 10.2 30.0901 11.024 30.0901 12.096C30.0901 13.152 30.3461 13.984 30.8581 14.592C31.3861 15.184 32.1221 15.48 33.0661 15.48C33.5141 15.48 33.9861 15.392 34.4821 15.216C34.9941 15.04 35.4501 14.784 35.8501 14.448L36.8581 16.944C36.3781 17.36 35.7541 17.688 34.9861 17.928C34.2181 18.152 33.4581 18.264 32.7061 18.264ZM44.2854 18.264C40.9734 18.264 39.3174 16.656 39.3174 13.44V8.928H37.0854V6.216H39.3174V2.76H42.9414V6.216H46.4214V8.928H42.9414V13.296C42.9414 13.968 43.0934 14.472 43.3974 14.808C43.7174 15.144 44.2214 15.312 44.9094 15.312C45.1174 15.312 45.3334 15.288 45.5574 15.24C45.7974 15.192 46.0534 15.128 46.3254 15.048L46.8534 17.688C46.5174 17.864 46.1174 18 45.6534 18.096C45.1894 18.208 44.7334 18.264 44.2854 18.264ZM53.7513 18.264C52.4873 18.264 51.3833 18.016 50.4393 17.52C49.5113 17.008 48.7913 16.296 48.2793 15.384C47.7673 14.456 47.5113 13.36 47.5113 12.096C47.5113 10.848 47.7673 9.768 48.2793 8.856C48.7913 7.928 49.5113 7.216 50.4393 6.72C51.3833 6.224 52.4873 5.976 53.7513 5.976C55.0153 5.976 56.1113 6.224 57.0393 6.72C57.9833 7.216 58.7113 7.928 59.2233 8.856C59.7513 9.768 60.0153 10.848 60.0153 12.096C60.0153 13.36 59.7513 14.456 59.2233 15.384C58.7113 16.296 57.9833 17.008 57.0393 17.52C56.1113 18.016 55.0153 18.264 53.7513 18.264ZM53.7513 15.552C54.5193 15.552 55.1433 15.272 55.6233 14.712C56.1193 14.152 56.3673 13.28 56.3673 12.096C56.3673 10.928 56.1193 10.072 55.6233 9.528C55.1433 8.968 54.5193 8.688 53.7513 8.688C52.9833 8.688 52.3593 8.968 51.8793 9.528C51.3993 10.072 51.1593 10.928 51.1593 12.096C51.1593 13.28 51.3993 14.152 51.8793 14.712C52.3593 15.272 52.9833 15.552 53.7513 15.552ZM62.2201 18V6.216H65.7721V8.256C66.3321 6.88 67.5321 6.12 69.3721 5.976L70.4281 5.904L70.6441 8.952L68.6041 9.168C66.8121 9.344 65.9161 10.256 65.9161 11.904V18H62.2201ZM71.9668 3.936V0.551999H75.8788V3.936H71.9668ZM72.1108 18V6.216H75.7348V18H72.1108ZM84.6526 18.264C83.2606 18.264 82.0606 18.016 81.0526 17.52C80.0606 17.008 79.2926 16.296 78.7486 15.384C78.2206 14.456 77.9566 13.368 77.9566 12.12C77.9566 10.904 78.2126 9.84 78.7246 8.928C79.2526 8 79.9646 7.28 80.8606 6.768C81.7726 6.24 82.8206 5.976 84.0046 5.976C85.7166 5.976 87.0766 6.52 88.0846 7.608C89.0926 8.68 89.5966 10.136 89.5966 11.976V12.888H81.4126C81.5406 13.816 81.8766 14.496 82.4206 14.928C82.9806 15.344 83.7486 15.552 84.7246 15.552C85.3646 15.552 86.0126 15.456 86.6686 15.264C87.3246 15.072 87.9166 14.776 88.4446 14.376L89.4046 16.8C88.8126 17.248 88.0846 17.608 87.2206 17.88C86.3726 18.136 85.5166 18.264 84.6526 18.264ZM84.1486 8.376C83.3806 8.376 82.7566 8.608 82.2766 9.072C81.8126 9.536 81.5246 10.184 81.4126 11.016H86.5966C86.5006 9.256 85.6846 8.376 84.1486 8.376ZM96.2165 18.264C95.1765 18.264 94.2085 18.144 93.3125 17.904C92.4165 17.664 91.6725 17.336 91.0805 16.92L91.9445 14.568C92.5365 14.936 93.2085 15.232 93.9605 15.456C94.7285 15.664 95.4885 15.768 96.2405 15.768C96.9125 15.768 97.4085 15.664 97.7285 15.456C98.0485 15.232 98.2085 14.944 98.2085 14.592C98.2085 14.032 97.8005 13.68 96.9845 13.536L94.4645 13.08C93.4565 12.904 92.6885 12.544 92.1605 12C91.6325 11.456 91.3685 10.744 91.3685 9.864C91.3685 9.064 91.5925 8.376 92.0405 7.8C92.4885 7.224 93.1045 6.776 93.8885 6.456C94.6725 6.136 95.5765 5.976 96.6005 5.976C97.4485 5.976 98.2725 6.088 99.0725 6.312C99.8725 6.52 100.561 6.856 101.137 7.32L100.225 9.648C99.7445 9.296 99.1685 9.008 98.4965 8.784C97.8405 8.56 97.2245 8.448 96.6485 8.448C95.9285 8.448 95.4085 8.568 95.0885 8.808C94.7685 9.032 94.6085 9.32 94.6085 9.672C94.6085 10.232 94.9845 10.584 95.7365 10.728L98.2565 11.184C99.2965 11.36 100.089 11.712 100.633 12.24C101.177 12.752 101.449 13.456 101.449 14.352C101.449 15.584 100.969 16.544 100.009 17.232C99.0485 17.92 97.7845 18.264 96.2165 18.264ZM103.184 18V14.16H107.072V18H103.184ZM109.634 18V1.08H113.258V11.088H113.306L117.65 6.216H121.946L116.954 11.856L122.186 18H117.818L113.306 12.912H113.258V18H109.634ZM122.612 18V15.672L128.276 8.928H122.612V6.216H132.188V8.544L126.524 15.312H132.452V18H122.612Z" fill="black"/>
</svg>
