<svg width="143" height="143" viewBox="0 0 143 143" fill="none" xmlns="http://www.w3.org/2000/svg">
<circle cx="71.25" cy="71.25" r="71.25" fill="#F1F1F1"/>
<path d="M78.0078 74.375C75.9688 74.375 75.0547 75.5 71.75 75.5C68.375 75.5 67.4609 74.375 65.4219 74.375C60.2188 74.375 56 78.6641 56 83.8672V85.625C56 87.5234 57.4766 89 59.375 89H84.125C85.9531 89 87.5 87.5234 87.5 85.625V83.8672C87.5 78.6641 83.2109 74.375 78.0078 74.375ZM84.125 85.625H59.375V83.8672C59.375 80.4922 62.0469 77.75 65.4219 77.75C66.4766 77.75 68.0938 78.875 71.75 78.875C75.3359 78.875 76.9531 77.75 78.0078 77.75C81.3828 77.75 84.125 80.4922 84.125 83.8672V85.625ZM71.75 73.25C77.3047 73.25 81.875 68.75 81.875 63.125C81.875 57.5703 77.3047 53 71.75 53C66.125 53 61.625 57.5703 61.625 63.125C61.625 68.75 66.125 73.25 71.75 73.25ZM71.75 56.375C75.4062 56.375 78.5 59.4688 78.5 63.125C78.5 66.8516 75.4062 69.875 71.75 69.875C68.0234 69.875 65 66.8516 65 63.125C65 59.4688 68.0234 56.375 71.75 56.375Z" fill="#A4A4A4"/>
</svg>
