<svg width="16" height="16" viewBox="0 0 16 16" fill="none" xmlns="http://www.w3.org/2000/svg">
<path d="M8.76521 15.9551C11.9748 15.5956 14.547 13.0299 14.9131 9.8203C15.3936 5.62365 12.1317 2.05127 8.04289 2.00552V0.122909C8.04289 0.0183201 7.91215 -0.037243 7.8239 0.0281253L3.94756 2.87491C3.88219 2.92394 3.88219 3.01873 3.94756 3.06775L7.8239 5.91454C7.91215 5.97991 8.04289 5.92108 8.04289 5.81976V3.94042C10.9158 3.98618 13.2168 6.43095 13.0207 9.35291C12.854 11.8663 10.8047 13.9058 8.29129 14.066C5.62752 14.2359 3.36251 12.3337 2.95722 9.81703C2.88205 9.34964 2.4735 9.00973 2.00285 9.00973C1.4178 9.00973 0.960219 9.52941 1.05174 10.1079C1.62044 13.6934 4.93135 16.3833 8.76521 15.9551Z" fill="#92969D"/>
</svg>
