<svg width="15" height="15" viewBox="0 0 15 15" fill="none" xmlns="http://www.w3.org/2000/svg">
<path d="M1.50857 9.04239L2.23876 8.87111L1.50857 9.04239ZM1.50857 5.11331L2.23876 5.28459V5.28458L1.50857 5.11331ZM12.6496 5.11331L13.3797 4.94203L12.6496 5.11331ZM12.6496 9.04238L13.3797 9.21366L12.6496 9.04238ZM9.0436 12.6483L8.87233 11.9182L9.0436 12.6483ZM5.11453 12.6483L4.94325 13.3785L5.11453 12.6483ZM5.11453 1.50735L4.94325 0.777172L5.11453 1.50735ZM9.04361 1.50735L9.21488 0.777172L9.04361 1.50735ZM13.7109 14.7704C14.0038 15.0633 14.4787 15.0633 14.7716 14.7704C15.0645 14.4775 15.0645 14.0026 14.7716 13.7097L13.7109 14.7704ZM2.23876 8.87111C1.96208 7.69161 1.96208 6.46409 2.23876 5.28458L0.778394 4.94203C0.448869 6.34684 0.448869 7.80885 0.778394 9.21367L2.23876 8.87111ZM11.9194 5.28459C12.1961 6.46409 12.1961 7.69161 11.9194 8.87111L13.3797 9.21366C13.7093 7.80885 13.7093 6.34684 13.3797 4.94203L11.9194 5.28459ZM8.87233 11.9182C7.69283 12.1948 6.46531 12.1948 5.28581 11.9182L4.94325 13.3785C6.34806 13.708 7.81007 13.708 9.21488 13.3785L8.87233 11.9182ZM5.28581 2.23753C6.46531 1.96086 7.69283 1.96086 8.87233 2.23753L9.21488 0.777172C7.81007 0.447648 6.34806 0.447649 4.94325 0.777172L5.28581 2.23753ZM5.28581 11.9182C3.77391 11.5635 2.5934 10.383 2.23876 8.87111L0.778394 9.21367C1.26314 11.2802 2.87671 12.8938 4.94325 13.3785L5.28581 11.9182ZM9.21488 13.3785C11.2814 12.8938 12.895 11.2802 13.3797 9.21366L11.9194 8.87111C11.5647 10.383 10.3842 11.5635 8.87233 11.9182L9.21488 13.3785ZM8.87233 2.23753C10.3842 2.59218 11.5647 3.77268 11.9194 5.28459L13.3797 4.94203C12.895 2.87549 11.2814 1.26192 9.21488 0.777172L8.87233 2.23753ZM4.94325 0.777172C2.87671 1.26192 1.26314 2.87549 0.778394 4.94203L2.23876 5.28458C2.5934 3.77268 3.77391 2.59218 5.28581 2.23753L4.94325 0.777172ZM11.0722 12.1317L13.7109 14.7704L14.7716 13.7097L12.1329 11.071L11.0722 12.1317Z" fill="white"/>
</svg>
