<svg width="16" height="16" viewBox="0 0 16 16" fill="none" xmlns="http://www.w3.org/2000/svg">
<path d="M1.2368 9.33579L1.96698 9.16451L1.2368 9.33579ZM1.2368 5.243L1.96698 5.41428L1.2368 5.243ZM12.842 5.243L13.5722 5.07173L12.842 5.243ZM12.842 9.33579L13.5722 9.50706L12.842 9.33579ZM9.08579 13.092L8.91451 12.3618L9.08579 13.092ZM4.993 13.092L4.82172 13.8222L4.993 13.092ZM4.993 1.4868L4.82172 0.756615L4.993 1.4868ZM9.08579 1.4868L9.25706 0.756615L9.08579 1.4868ZM13.9697 15.2803C14.2626 15.5732 14.7374 15.5732 15.0303 15.2803C15.3232 14.9874 15.3232 14.5126 15.0303 14.2197L13.9697 15.2803ZM1.96698 9.16451C1.67767 7.93117 1.67767 6.64762 1.96698 5.41428L0.506615 5.07172C0.164461 6.53037 0.164461 8.04842 0.506615 9.50707L1.96698 9.16451ZM12.1118 5.41428C12.4011 6.64762 12.4011 7.93117 12.1118 9.16451L13.5722 9.50706C13.9143 8.04841 13.9143 6.53037 13.5722 5.07173L12.1118 5.41428ZM8.91451 12.3618C7.68117 12.6511 6.39762 12.6511 5.16428 12.3618L4.82172 13.8222C6.28037 14.1643 7.79841 14.1643 9.25706 13.8222L8.91451 12.3618ZM5.16428 2.21698C6.39762 1.92767 7.68117 1.92767 8.91451 2.21698L9.25706 0.756615C7.79841 0.414462 6.28037 0.414462 4.82172 0.756615L5.16428 2.21698ZM5.16428 12.3618C3.57783 11.9897 2.33911 10.751 1.96698 9.16451L0.506615 9.50707C1.00885 11.6482 2.68063 13.3199 4.82172 13.8222L5.16428 12.3618ZM9.25706 13.8222C11.3982 13.3199 13.0699 11.6482 13.5722 9.50706L12.1118 9.16451C11.7397 10.751 10.501 11.9897 8.91451 12.3618L9.25706 13.8222ZM8.91451 2.21698C10.501 2.58911 11.7397 3.82782 12.1118 5.41428L13.5722 5.07173C13.0699 2.93063 11.3982 1.25885 9.25706 0.756615L8.91451 2.21698ZM4.82172 0.756615C2.68063 1.25885 1.00885 2.93063 0.506615 5.07172L1.96698 5.41428C2.33911 3.82782 3.57782 2.58911 5.16428 2.21698L4.82172 0.756615ZM11.221 12.5317L13.9697 15.2803L15.0303 14.2197L12.2817 11.471L11.221 12.5317Z" fill="black" fill-opacity="0.23"/>
</svg>
