<svg width="24" height="22" viewBox="0 0 24 22" fill="none" xmlns="http://www.w3.org/2000/svg">
<path d="M23.8109 2.42073L20.2651 20.265C19.987 21.537 19.3439 21.8737 18.3359 21.2752L12.9651 17.0105L10.3579 19.704C10.0103 20.0781 9.64533 20.265 9.26294 20.265L9.68008 14.3731L19.6394 4.72142C19.8827 4.45956 19.8827 4.30991 19.6394 4.2725C19.4308 4.19768 19.2049 4.25379 18.9616 4.44084L6.65578 12.8019L1.33719 11.0062C0.746231 10.8192 0.468135 10.5386 0.502897 10.1645C0.537659 9.79042 0.90266 9.47243 1.5979 9.21056L22.2988 0.568954C22.8201 0.381906 23.2372 0.456726 23.5502 0.793412C23.8629 1.09269 23.9499 1.63513 23.8109 2.42073Z" fill="black"/>
</svg>
