<svg width="12" height="24" viewBox="0 0 12 24" fill="none" xmlns="http://www.w3.org/2000/svg">
<path d="M11.2059 13.4008H7.92461V23.2008H3.54961V13.4008H0.00585938V9.33203H3.54961V6.26953C3.54961 5.10287 3.76836 4.11119 4.20586 3.29453C4.64336 2.47787 5.25586 1.86537 6.04336 1.45703C6.86002 1.01953 7.79336 0.800781 8.84336 0.800781C9.31002 0.800781 9.80586 0.829948 10.3309 0.888281C10.8559 0.917448 11.2642 0.961197 11.5559 1.01953L11.9934 1.06328V4.51953H10.2434C9.4267 4.51953 8.82877 4.73828 8.44961 5.17578C8.09961 5.58412 7.92461 6.09453 7.92461 6.70703V9.33203H11.8184L11.2059 13.4008Z" fill="black"/>
</svg>
