<svg width="22" height="14" viewBox="0 0 22 14" fill="none" xmlns="http://www.w3.org/2000/svg">
<path d="M20.6632 1.76797C20.5868 2.15078 20.2805 2.77604 19.7445 3.64376C19.2341 4.51146 18.762 5.27708 18.3282 5.94062C17.8943 6.57865 17.6646 6.91042 17.6391 6.93594C17.4859 7.16562 17.4093 7.33151 17.4093 7.4336C17.4093 7.53567 17.4859 7.71433 17.6391 7.96953C17.6391 7.96953 17.7157 8.05885 17.8687 8.23751C18.0475 8.41615 18.2516 8.62031 18.4813 8.85001C18.7109 9.07969 18.9661 9.34765 19.2468 9.65391C19.5275 9.96015 19.7828 10.2664 20.0125 10.5726C20.2677 10.8534 20.4846 11.1469 20.6632 11.4531C20.8675 11.7594 21.0078 12.0146 21.0843 12.2188C21.263 12.8568 21.0078 13.1758 20.3187 13.1758H18.0602C17.8816 13.1758 17.7284 13.1503 17.6007 13.0992C17.4732 13.0482 17.3328 12.9589 17.1797 12.8313C17.0266 12.7036 16.8862 12.5633 16.7586 12.4102C16.6309 12.257 16.4396 12.0401 16.1843 11.7594C15.9291 11.4786 15.6739 11.2107 15.4187 10.9555C14.3979 9.98567 13.645 9.50078 13.1602 9.50078C12.8539 9.50078 12.6753 9.5901 12.6242 9.76876C12.5732 9.9474 12.5477 10.4578 12.5477 11.3C12.5732 11.7083 12.5859 12.0401 12.5859 12.2953C12.5859 12.6016 12.4839 12.8313 12.2797 12.9844C12.0755 13.112 11.6289 13.1758 10.9398 13.1758C9.74036 13.1758 8.52813 12.8185 7.30313 12.1039C6.07813 11.3893 5.00625 10.3685 4.0875 9.04141C3.21979 7.86744 2.49245 6.70626 1.90547 5.55781C1.344 4.38385 0.973959 3.49062 0.795314 2.87812C0.616666 2.26562 0.527344 1.83178 0.527344 1.57656C0.527344 1.14271 0.782552 0.925781 1.29297 0.925781H3.55157C3.83229 0.925781 4.03646 0.989583 4.16407 1.11719C4.31718 1.24479 4.44479 1.47448 4.54687 1.80626C5.08282 3.36303 5.73359 4.75391 6.49922 5.97891C7.29036 7.20391 7.89011 7.81641 8.29843 7.81641C8.45157 7.81641 8.55364 7.76537 8.60468 7.66328C8.68125 7.53567 8.71953 7.30599 8.71953 6.97422V3.64376C8.694 3.28646 8.63021 2.98021 8.52813 2.72501C8.42604 2.46979 8.32396 2.29115 8.22187 2.18906C8.11979 2.06146 8.01771 1.93385 7.91563 1.80626C7.83907 1.67865 7.80078 1.5638 7.80078 1.46172C7.80078 1.35964 7.8263 1.27031 7.87734 1.19375C7.92839 1.11719 7.99218 1.05339 8.06875 1.00234C8.17084 0.951302 8.27291 0.925781 8.375 0.925781H11.9352C12.3435 0.925781 12.5477 1.20651 12.5477 1.76797V6.2086C12.5477 6.64244 12.6625 6.85937 12.8922 6.85937C13.1474 6.85937 13.5047 6.62969 13.9641 6.17031C14.4489 5.63437 14.9211 4.9836 15.3805 4.21797C15.8398 3.45235 16.1843 2.81433 16.4141 2.30391L16.7586 1.57656C16.9373 1.14271 17.2563 0.925781 17.7157 0.925781H19.9743C20.5868 0.925781 20.8164 1.20651 20.6632 1.76797Z" fill="black"/>
</svg>
