<svg width="40" height="40" viewBox="0 0 40 40" fill="none" xmlns="http://www.w3.org/2000/svg">
<circle cx="20" cy="20" r="20" fill="#4A76A8"/>
<g clip-path="url(#clip0_106_2)">
<path d="M29.8217 24.4723C29.768 24.3823 29.4355 23.6597 27.8354 22.1746C26.1602 20.6195 26.3852 20.872 28.4029 18.1831C29.6317 16.5455 30.123 15.5454 29.9693 15.1179C29.823 14.7103 28.9192 14.8178 28.9192 14.8178L25.914 14.8353C25.914 14.8353 25.6914 14.8053 25.5252 14.9041C25.3639 15.0016 25.2602 15.2266 25.2602 15.2266C25.2602 15.2266 24.7839 16.4942 24.1488 17.5718C22.81 19.8457 22.2737 19.9657 22.0549 19.8245C21.5461 19.4957 21.6736 18.5019 21.6736 17.7968C21.6736 15.5929 22.0074 14.6741 21.0223 14.4366C20.6948 14.3578 20.4548 14.3053 19.6185 14.2966C18.5459 14.2853 17.6371 14.3003 17.1233 14.5516C16.7808 14.7191 16.517 15.0929 16.6783 15.1141C16.877 15.1404 17.3271 15.2354 17.5658 15.5604C17.8746 15.9792 17.8634 16.9217 17.8634 16.9217C17.8634 16.9217 18.0409 19.5157 17.4496 19.8382C17.0433 20.0595 16.487 19.6082 15.2932 17.5443C14.6819 16.488 14.2193 15.3191 14.2193 15.3191C14.2193 15.3191 14.1306 15.1016 13.9718 14.9854C13.7793 14.8441 13.5093 14.7991 13.5093 14.7991L10.6516 14.8166C10.6516 14.8166 10.2228 14.8291 10.0653 15.0154C9.92527 15.1816 10.054 15.5241 10.054 15.5241C10.054 15.5241 12.2917 20.7583 14.8244 23.3972C17.1483 25.8162 19.786 25.6574 19.786 25.6574H20.9811C20.9811 25.6574 21.3424 25.6174 21.5261 25.4186C21.6961 25.2361 21.6899 24.8936 21.6899 24.8936C21.6899 24.8936 21.6661 23.2897 22.4112 23.0535C23.145 22.8209 24.0876 24.6036 25.0864 25.2899C25.8415 25.8087 26.4152 25.6949 26.4152 25.6949L29.0867 25.6574C29.0867 25.6574 30.4843 25.5711 29.8217 24.4723Z" fill="white"/>
</g>
<defs>
<clipPath id="clip0_106_2">
<rect width="20" height="20" fill="white" transform="translate(10 10)"/>
</clipPath>
</defs>
</svg>
